<svg width="124" height="124" viewBox="0 0 124 124" fill="none" xmlns="http://www.w3.org/2000/svg">
<path fill-rule="evenodd" clip-rule="evenodd" d="M123.181 65.6946C123.21 65.8531 123.281 66.0185 123.257 66.1685C122.961 68.0744 122.661 69.9811 122.337 71.8818C122.273 72.2575 122.175 72.6665 121.962 72.9693C121.406 73.7632 121.248 74.678 120.994 75.5758C119.973 79.1873 118.952 82.8031 117.541 86.2846C116.963 87.715 116.263 89.1001 115.576 90.4834C113.276 95.1032 110.452 99.3653 107.03 103.244C103.886 106.809 100.577 110.21 96.979 113.311C95.725 114.392 94.503 115.486 93.3754 116.695C93.114 116.974 92.8147 117.238 92.4886 117.429C89.9626 118.908 87.4713 120.473 84.6217 121.286C82.6067 121.861 80.6044 122.498 78.4938 122.699C77.1183 122.829 75.758 123.099 74.3815 123.23C71.0003 123.553 67.6472 123.275 64.2945 122.738C59.7406 122.007 55.3271 120.746 50.9339 119.389C50.4049 119.226 49.8855 119.03 49.376 118.813C46.7635 117.704 44.0223 117.011 41.306 116.231C39.054 115.585 36.9125 114.701 34.8855 113.527C32.7292 112.275 30.5109 111.138 28.4777 109.67C26.8082 108.462 25.2429 107.139 23.777 105.71C20.8038 102.807 17.7466 99.9692 15.2439 96.6334C13.6849 94.5517 12.1977 92.4073 10.8157 90.204C9.31695 87.8135 7.90625 85.3631 6.73072 82.7868C4.90516 78.7911 3.4863 74.6734 2.68603 70.3519C2.50385 69.3755 2.21532 68.4175 1.95187 67.4585C1.61433 66.2306 1.22945 65.0152 0.905766 63.7865C0.566213 62.5042 0.368633 61.1997 0.487759 59.8364C0.936558 59.8805 0.805692 60.2306 0.872514 60.4465C0.954741 60.709 0.995605 60.9853 1.05847 61.2544C1.12133 61.5234 1.18156 61.7932 1.25661 62.0604C1.32857 62.3214 1.41894 62.5775 1.50117 62.84C1.97583 62.7661 1.83716 62.4355 1.8327 62.2157C1.7899 59.6173 1.76693 57.0192 2.07984 54.4333C2.13939 53.9445 2.25554 53.4618 2.32273 52.9752C2.50431 51.6657 2.67562 50.3548 2.8436 49.0418C2.85749 48.9368 2.85617 48.7964 2.79855 48.7188C2.25624 47.969 2.62149 47.2399 2.81308 46.4993C3.39107 44.2371 4.37504 42.1318 5.33155 40.0238C5.75321 39.0968 6.0377 38.1837 6.06537 37.1755C6.07771 36.7415 6.13735 36.3104 6.18287 35.7958C6.80476 35.9797 6.39525 36.6389 6.79948 36.8257C6.88752 36.7812 7.01993 36.7601 7.05857 36.6893C7.57449 35.7147 8.07705 34.7324 8.58223 33.7494C9.61685 31.7376 10.6698 29.7364 11.6818 27.7137C12.8275 25.4246 14.3297 23.3857 15.9748 21.4425C16.3151 21.0383 16.7353 20.7 17.1101 20.3401C17.5125 20.6766 17.3108 20.8949 17.1337 21.1052C15.1335 23.4706 13.3469 25.9905 11.7652 28.653C11.1461 29.6943 10.5805 30.7666 10.1429 31.9216C10.8641 30.9348 11.5853 29.9479 12.3098 28.963C14.0741 26.5588 15.8184 24.1432 17.6091 21.7588C20.1428 18.3845 23.09 15.4086 26.4554 12.8538C27.1137 12.3537 27.8196 11.9101 28.5312 11.4874C29.1507 11.1202 29.8169 10.8996 30.5584 10.8223C31.26 10.7485 31.962 10.5353 32.6257 10.2845C33.8654 9.81866 35.0797 9.28499 36.3006 8.77067C36.7395 8.58513 37.2648 8.51599 37.5453 7.84887C37.2605 7.87948 37.0684 7.87278 36.8929 7.92221C34.7665 8.52781 32.6356 9.12194 30.5207 9.76528C29.6263 10.038 28.7633 10.4221 27.8754 10.7607C27.7378 10.2933 28.1136 10.2864 28.3045 10.1949C29.5486 9.59416 30.7749 8.94328 32.0629 8.44774C34.865 7.36989 37.4681 5.91557 40.0236 4.37393C42.6928 2.76269 45.597 1.93222 48.6904 1.83835C51.3447 1.75697 54.0053 1.87658 56.6628 1.8591C59.9402 1.83601 63.1801 2.29446 66.4363 2.56278C66.9696 2.60693 67.5202 2.84499 68.1564 2.48739C67.5489 1.9815 66.8315 1.98625 66.1765 1.85194C65.42 1.69673 64.6491 1.59744 63.8819 1.4915C63.1705 1.39331 62.4561 1.3156 61.7362 1.22807C61.6878 0.756721 62.0708 0.833762 62.2923 0.793211C63.6067 0.556723 64.9315 0.541283 66.2641 0.65891C69.3645 0.934827 72.4138 1.5227 75.3807 2.44642C77.7593 3.1857 80.113 4.02591 82.4387 4.91862C85.715 6.17398 88.6895 8.03316 91.6985 9.80149C95.205 11.8614 98.337 14.4389 101.336 17.1545C107.1 22.3759 112.378 28.0519 116.931 34.3693C118.062 35.9381 119.078 37.5911 120.14 39.2081C120.229 39.3436 120.266 39.5138 120.324 39.6689C121.751 43.5211 122.934 47.4341 123.345 51.5395C123.35 51.5958 123.363 51.65 123.365 51.7044C123.579 56.0662 123.704 60.4278 123.408 64.7883C123.386 65.1124 123.266 65.4287 123.189 65.7459C123.127 65.4907 123.008 65.238 123.018 64.9906C123.043 64.3378 123.119 63.6882 123.184 63.0362C123.232 62.5562 123.276 62.0828 122.889 61.5001C122.624 63.1273 122.603 64.6206 122.628 66.1159C122.629 66.1848 122.776 66.2542 122.846 66.3257C122.606 66.5682 122.34 66.8006 122.592 67.1813C122.589 67.2568 122.584 67.334 122.58 67.4112C122.563 67.3396 122.547 67.268 122.53 67.1964C122.631 66.9091 122.731 66.6208 122.83 66.3341C122.853 66.0618 122.832 65.779 123.181 65.6946ZM99.004 73.3985C99.1464 73.1172 99.2861 72.8365 99.526 72.3632C98.9818 72.7118 98.7765 72.9634 99.0563 73.3888C99.0336 73.4976 99.0108 73.6064 98.9881 73.7152C99.0204 73.694 99.0843 73.6643 99.0817 73.6495C99.0642 73.5641 99.031 73.4828 99.004 73.3985ZM111.008 29.8726C111.049 29.2509 110.66 28.953 109.954 28.4971C110.293 29.2447 110.502 29.6889 111.061 29.8543C111.071 29.9445 111.076 30.036 111.1 30.1227C111.104 30.1385 111.18 30.138 111.224 30.1433C111.15 30.0544 111.078 29.9638 111.008 29.8726ZM70.7278 2.83481C70.6433 2.80376 70.5588 2.77271 70.4744 2.74166C70.5486 2.77121 70.6221 2.79814 70.6973 2.82603C71.4967 3.08808 72.2978 3.35108 73.098 3.61576C73.6255 3.70087 74.1535 3.79289 74.6825 3.86776C75.7001 4.01414 76.6365 4.5481 77.6911 4.51855C78.7253 4.89842 79.7545 5.29088 80.7948 5.65648C81.8434 6.0269 82.923 6.41302 83.6995 7.20055C84.2667 7.77627 84.9044 8.13336 85.5851 8.4931C87.6863 9.60871 89.7875 10.7243 91.8686 11.8748C93.1328 12.5737 94.216 13.5205 95.3212 14.4446C96.549 15.4726 97.8649 16.3942 99.1504 17.3492C99.2687 17.4375 99.4638 17.4814 99.6101 17.4594C99.7346 17.4404 99.8405 17.2954 99.9435 17.2174C99.8746 17.0668 99.8548 16.9468 99.7855 16.8779C96.8106 13.9589 93.58 11.371 89.8589 9.45538C87.7439 8.36733 85.6161 7.29399 83.4349 6.35166C81.7176 5.60846 79.9125 5.06733 78.1402 4.45417C78.0201 4.41146 77.8478 4.52479 77.6982 4.56031C76.4075 3.67988 74.8919 3.54751 73.4175 3.28595C73.3347 3.27136 73.2096 3.50729 73.0963 3.61479C72.4959 2.78046 71.6364 2.74974 70.7278 2.83481ZM21.6128 78.1669C21.3687 77.1281 21.3687 77.1281 20.3974 76.2304C20.6852 76.9507 20.8145 77.768 21.664 78.1477C21.6752 78.2362 21.6805 78.3234 21.7023 78.4092C21.7049 78.424 21.7811 78.4192 21.8231 78.4235C21.7565 78.3385 21.6838 78.2522 21.6128 78.1669ZM118.756 41.1777C118.741 41.0183 118.766 40.8399 118.706 40.7011C117.729 38.466 116.538 36.3485 115.182 34.3215C115.102 34.2047 114.941 34.1405 114.808 34.0462C114.48 34.4572 114.666 34.8019 114.859 35.1238C115.967 36.9718 117.077 38.8209 118.209 40.6557C118.339 40.8661 118.604 40.997 118.805 41.1661C118.815 41.5266 118.815 41.5266 119.222 41.7859C118.992 41.485 118.873 41.3322 118.756 41.1777ZM121.212 68.7232C120.571 70.7137 119.962 72.7166 119.273 74.6929C118.926 75.6874 118.687 76.6912 118.478 77.7208C118.225 78.9562 117.861 80.1778 117.445 81.3678C117.047 82.5097 116.547 83.6179 116.045 84.7225C114.514 88.0993 112.663 91.2823 110.248 94.1155C110.069 94.3248 109.836 94.5248 109.754 94.7703C109.325 96.0653 108.348 96.9666 107.531 97.9889C106.843 98.8487 106.202 99.7467 105.561 100.64C105.461 100.78 105.233 100.974 105.573 101.237C105.774 101.098 105.998 100.959 106.201 100.797C111.052 96.8961 114.228 91.7802 116.799 86.2241C116.845 86.1245 116.865 86.0137 116.908 85.9122C118.402 82.3455 119.32 78.5908 120.381 74.8871C120.894 73.097 121.095 71.2162 121.425 69.3734C121.468 69.1282 121.569 68.8142 121.171 68.7284C121.42 68.5991 121.619 68.4548 121.298 68.0303C121.259 68.3421 121.235 68.5327 121.212 68.7232ZM122.101 51.7347C121.75 50.3441 121.536 48.9301 121 47.6056C120.526 46.4338 119.957 45.2984 119.41 44.1557C119.054 43.4113 118.672 42.6766 118.276 41.9496C118.203 41.8142 118.022 41.7385 117.7 41.4835C118.337 44.0282 118.909 46.3141 119.482 48.6043C120.129 48.6745 120.609 48.909 120.806 49.4816C121 50.0481 121.142 50.6311 121.313 51.2065C121.41 51.5353 121.556 51.8147 122.101 51.7347ZM106.371 50.3961C106.411 50.3375 106.542 50.2225 106.583 50.0821C106.769 49.4289 106.717 48.774 106.499 48.138C105.861 46.2622 105.155 44.414 104.163 42.6885C104.097 42.5725 103.948 42.5022 103.657 42.2612C104.613 45.1253 105.494 47.7686 106.371 50.3961ZM14.1659 33.8852C14.2788 33.4006 14.4116 32.9275 14.4888 32.4467C14.5136 32.2881 14.3956 32.1069 14.3247 31.8709C12.8865 33.448 12.5792 33.9223 12.1039 35.2972C12.7699 34.8416 13.3929 34.4143 14.1659 33.8852ZM40.5922 15.4869C41.6947 15.2279 42.419 15.0763 43.1308 14.8732C43.3019 14.8235 43.5165 14.6215 43.5468 14.4572C43.5863 14.2384 43.467 13.99 43.4025 13.7045C42.3376 14.0141 41.5956 14.5743 40.5922 15.4869ZM43.6085 111.981C44.7633 112.661 45.9168 113.305 47.1924 113.66C47.2917 113.689 47.5212 113.542 47.5489 113.436C47.5784 113.331 47.4595 113.089 47.3595 113.058C46.1153 112.684 44.86 112.336 43.6085 111.981ZM67.0683 118.25C67.2767 118.495 67.3465 118.659 67.4623 118.701C68.5743 119.109 69.7453 118.978 70.8926 119.046C71.1162 119.06 71.4595 119.094 71.5642 118.689C70.1122 118.547 68.6705 118.406 67.0683 118.25ZM11.7239 84.9403C12.0914 84.0995 12.252 83.5937 11.7363 83.0986C11.3214 83.2581 10.9259 83.2914 10.734 83.7857C10.9862 84.0777 11.2561 84.3931 11.7239 84.9403ZM113.202 46.6503C113.22 46.3768 113.472 45.9257 112.974 45.7115C113.055 46.0489 113.128 46.3504 113.202 46.6503ZM54.3081 82.0646C54.8092 82.1876 55.3094 82.3124 55.956 82.4729C55.4718 81.7034 54.8251 81.9441 54.3081 82.0646ZM6.8287 46.8714C6.62364 47.0877 6.49436 47.1882 6.41423 47.3193C6.26574 47.5572 6.19819 47.813 6.4322 48.0479C6.45913 48.0745 6.55443 48.083 6.56499 48.0647C6.67651 47.8985 6.81883 47.7369 6.86757 47.5522C6.91317 47.3768 6.85157 47.175 6.8287 46.8714ZM106.459 69.6421C106.904 69.1677 106.792 68.7243 106.459 67.9555C106.308 68.6952 106.103 69.1199 106.459 69.6421ZM15.7896 82.2023C15.825 82.4688 15.8037 82.6405 15.8739 82.7542C15.9496 82.8777 16.0984 82.9902 16.2366 83.0323C16.4063 83.0815 16.4368 82.7666 16.2432 82.5196C16.1589 82.411 16.0104 82.3519 15.7896 82.2023ZM91.6353 42.7066C91.7766 42.4889 91.8808 42.374 91.9251 42.2355C91.9472 42.1663 91.8574 42.0634 91.8168 41.9757C91.7065 42.0472 91.5255 42.1023 91.4992 42.198C91.4657 42.3139 91.5647 42.4664 91.6353 42.7066ZM86.2261 77.0232C86.221 77.1554 86.2163 77.2946 86.2126 77.4321C86.2955 77.4312 86.4458 77.4448 86.4487 77.4243C86.4808 77.2877 86.484 77.1433 86.4966 77.002C86.4194 77.0084 86.3432 77.0132 86.2261 77.0232ZM98.6728 38.8203C98.6127 38.8743 98.5516 38.9299 98.4906 38.9855C98.5951 39.1323 98.6979 39.2781 98.8024 39.4249C98.856 39.3938 98.9079 39.3617 98.9615 39.3306C98.8662 39.1602 98.7691 38.989 98.6728 38.8203ZM113.756 49.6212C113.82 49.5985 113.885 49.5758 113.948 49.5547C113.925 49.4087 113.91 49.2622 113.877 49.119C113.866 49.0753 113.811 49.0435 113.775 49.0051C113.722 49.0672 113.618 49.1383 113.625 49.193C113.643 49.3387 113.709 49.4789 113.756 49.6212ZM106.911 31.7985C107.013 32.0528 107.064 32.1885 107.127 32.3181C107.138 32.3446 107.241 32.3596 107.247 32.3496C107.288 32.2738 107.366 32.1477 107.34 32.1194C107.252 32.0176 107.125 31.9512 106.911 31.7985ZM51.2817 21.592C51.3837 21.5733 51.4951 21.5733 51.5848 21.5298C51.607 21.5182 51.566 21.3771 51.5536 21.2945C51.4508 21.3106 51.3402 21.3132 51.2505 21.3567C51.2292 21.3666 51.2692 21.5094 51.2817 21.592ZM19.2733 48.4788C19.3664 47.9163 19.402 47.7351 19.4204 47.5529C19.4241 47.5195 19.3294 47.4405 19.3223 47.4452C19.2476 47.4974 19.1275 47.5589 19.1247 47.6215C19.1186 47.771 19.1708 47.9274 19.2733 48.4788ZM27.6879 24.5407C27.7473 24.4841 27.8067 24.4275 27.8661 24.3709C27.8186 24.3568 27.7587 24.3178 27.7293 24.334C27.6606 24.372 27.6083 24.4394 27.5492 24.4917C27.5948 24.5091 27.6397 24.5239 27.6879 24.5407ZM53.1218 87.0502C53.1585 87.0714 53.1969 87.0936 53.2353 87.1158C53.2379 87.0574 53.2473 86.9986 53.235 86.9427C53.2322 86.9322 53.1526 86.935 53.1096 86.9324C53.1143 86.9706 53.119 87.0087 53.1218 87.0502ZM91.7275 76.4685C91.7677 76.4452 91.8105 76.4211 91.8524 76.3988C91.8114 76.3463 91.7721 76.2948 91.7312 76.2423C91.7072 76.2839 91.6676 76.3253 91.6625 76.3689C91.6598 76.4006 91.7044 76.4352 91.7275 76.4685ZM122.397 68.5915L122.415 68.46L122.314 68.5459L122.397 68.5915ZM81.1388 87.9942C81.1821 87.9771 81.2368 87.971 81.2577 87.9387C81.2773 87.9124 81.2581 87.857 81.2563 87.8138C81.2173 87.8312 81.1593 87.8354 81.1394 87.866C81.1204 87.8949 81.138 87.9494 81.1388 87.9942Z" fill="black"/>
</svg>
