<svg width="24" height="20" viewBox="0 0 24 20" fill="none" xmlns="http://www.w3.org/2000/svg">
<path d="M12.0004 9.00006C14.8949 9.00006 17.2504 6.98106 17.2504 4.50006C17.2504 2.01906 14.8949 6.10352e-05 12.0004 6.10352e-05C9.10587 6.10352e-05 6.75037 2.01906 6.75037 4.50006C6.75037 6.98106 9.10587 9.00006 12.0004 9.00006ZM12.0004 2.00006C13.6092 2.00006 14.917 3.12106 14.917 4.50006C14.917 5.87906 13.6092 7.00006 12.0004 7.00006C10.3927 7.00006 9.0837 5.87906 9.0837 4.50006C9.0837 3.12106 10.3927 2.00006 12.0004 2.00006Z" fill="white"/>
<path d="M23.3788 18.7781C22.1655 14.1981 17.486 11.0001 12.0003 11.0001C6.51349 11.0001 1.83516 14.1991 0.622992 18.7781C0.480659 19.3171 0.873826 19.8531 1.50266 19.9751C2.12916 20.0951 2.75566 19.7591 2.89799 19.2211C3.86749 15.5591 7.61016 13.0001 12.0003 13.0001C16.3893 13.0001 20.1332 15.5591 21.1027 19.2221C21.2252 19.6861 21.707 20.0001 22.239 20.0001C22.3242 20.0001 22.4105 19.9921 22.4992 19.9761C23.1268 19.8531 23.5212 19.3171 23.3788 18.7781Z" fill="white"/>
</svg>
