<svg width="60" height="56" viewBox="0 0 60 56" fill="none" xmlns="http://www.w3.org/2000/svg">
<path d="M59.5377 50.0863L33.285 2.33764C32.6179 1.12569 31.389 0.400879 29.9995 0.400879C28.61 0.400879 27.3812 1.12569 26.714 2.33764L0.461386 50.0863C-0.174593 51.2503 -0.15303 52.623 0.521386 53.7607C1.20061 54.9126 2.40776 55.599 3.74921 55.599H56.2497C57.5913 55.599 58.7985 54.9126 59.4777 53.7607C60.152 52.623 60.1736 51.2503 59.5377 50.0863ZM29.4068 19.6506C29.6084 19.617 29.8076 19.6003 30.0043 19.6003C31.7323 19.6003 33.2562 20.8362 33.549 22.5761C33.6186 22.9721 33.6114 23.3753 33.549 23.7496L31.1827 37.806C31.0842 38.3868 30.5755 38.7995 30.0019 38.7995C29.9371 38.7995 29.8675 38.7947 29.8027 38.7827C29.2819 38.6964 28.8978 38.2931 28.8163 37.806L26.45 23.7496C26.1213 21.8082 27.4485 19.9722 29.4068 19.6506ZM29.9995 48.3992C28.0148 48.3992 26.3996 46.7841 26.3996 44.7993C26.3996 42.8145 28.0147 41.1994 29.9995 41.1994C31.9843 41.1994 33.5994 42.8146 33.5994 44.7993C33.5994 46.784 31.9842 48.3992 29.9995 48.3992Z" fill="#B3B3B3"/>
</svg>
