<svg width="11" height="23" viewBox="0 0 11 23" fill="none" xmlns="http://www.w3.org/2000/svg">
<g clip-path="url(#clip0)">
<mask id="mask0" mask-type="alpha" maskUnits="userSpaceOnUse" x="0" y="15" width="11" height="12">
<path d="M10.5661 21.5613L4.2209 26.4354L0.0167008 20.7482L6.36191 15.8741L10.5661 21.5613Z" fill="#EA580C"/>
</mask>
<g mask="url(#mask0)">
<path fill-rule="evenodd" clip-rule="evenodd" d="M9.50943 21.3641C9.51561 21.5973 9.68565 21.7075 9.76681 21.8676C9.81413 21.9607 9.86638 22.1365 9.79992 22.1445C9.32877 22.2007 9.12031 22.8538 8.56965 22.7008C6.3346 22.0808 3.99972 22.1611 1.7383 21.7266C1.57915 21.6961 1.41835 21.6763 1.25898 21.6474C0.338571 21.4818 0.338615 21.4815 0.69523 20.6429C1.0621 19.78 1.12291 19.7296 2.09668 19.7565C4.11976 19.8123 6.14284 19.8794 8.15965 20.0522C8.78864 20.1059 9.41 20.223 9.89014 20.6957C10.0188 20.8221 10.1397 20.9664 10.227 21.1237C10.3034 21.2619 10.3795 21.4533 10.2368 21.5822C10.0884 21.716 9.99171 21.5308 9.88402 21.4543C9.78542 21.3844 9.69012 21.3058 9.50943 21.3641Z" fill="white"/>
</g>
<path fill-rule="evenodd" clip-rule="evenodd" d="M10.0184 11.6781C9.35494 12.1235 8.59713 12.2425 7.82905 12.325C6.16096 12.5039 4.47748 12.4099 2.81183 12.6404C2.48985 12.6849 2.40413 12.5644 2.46621 12.2083C2.64691 11.1738 3.42392 10.9825 4.23194 10.8724C5.85396 10.6517 7.48166 10.4776 9.10581 10.2756C9.52676 10.2233 9.9446 10.1433 10.3625 10.0672C10.6041 10.0235 10.7439 10.1563 10.8575 10.3375C10.975 10.5251 10.8981 10.6547 10.7656 10.8225C10.53 11.121 10.3354 11.4523 10.0184 11.6781Z" fill="white"/>
<mask id="mask1" mask-type="alpha" maskUnits="userSpaceOnUse" x="0" y="-1" width="8" height="7">
<path d="M7.1972 1.15247L1.675 5.39314L0.769608 4.16871L6.29181 -0.0719602L7.1972 1.15247Z" fill="#EA580C"/>
</mask>
<g mask="url(#mask1)">
<path fill-rule="evenodd" clip-rule="evenodd" d="M3.80279 1.85716C4.46553 1.34822 5.12583 0.836348 5.792 0.332414C6.00409 0.17209 6.2281 0.00260871 6.4986 0.228805C6.74548 0.435516 6.53512 0.628742 6.48774 0.834845C6.39646 1.23251 6.18024 1.54988 5.9095 1.83276C4.73231 3.06403 3.46575 4.17669 1.93236 4.93643C1.76637 5.01835 1.61581 5.13963 1.42968 5.02488C1.21925 4.89539 1.36075 4.70753 1.35274 4.53519C1.31493 3.73089 1.83695 3.32974 2.39313 2.9295C2.87181 2.58482 3.3319 2.21312 3.80012 1.85355L3.80279 1.85716Z" fill="white"/>
</g>
</g>
<defs>
<clipPath id="clip0">
<rect width="11" height="23" fill="white"/>
</clipPath>
</defs>
</svg>
