<svg width="13" height="27" viewBox="0 0 13 27" fill="none" xmlns="http://www.w3.org/2000/svg">
<g clip-path="url(#clip0)">
<mask id="mask0" mask-type="alpha" maskUnits="userSpaceOnUse" x="0" y="-5" width="13" height="14">
<path d="M0.512622 1.68323L8.00573 -4.03266L12.98 2.64962L5.48693 8.36551L0.512622 1.68323Z" fill="#EA580C"/>
</mask>
<g mask="url(#mask0)">
<path fill-rule="evenodd" clip-rule="evenodd" d="M1.76153 1.91602C1.75398 1.64215 1.55292 1.51257 1.45684 1.32454C1.40082 1.21515 1.33888 1.00873 1.41741 0.999422C1.97413 0.933935 2.21978 0.167325 2.87067 0.347579C5.51256 1.07797 8.27167 0.986257 10.9445 1.49895C11.1326 1.53489 11.3227 1.55837 11.511 1.59244C12.5989 1.78791 12.5988 1.78828 12.1783 2.77252C11.7457 3.78528 11.6739 3.84439 10.5231 3.81176C8.13233 3.74402 5.74153 3.66297 3.35801 3.45785C2.61466 3.39407 1.88026 3.25588 1.31234 2.70041C1.16017 2.55184 1.01715 2.38232 0.913858 2.19746C0.823372 2.03513 0.733214 1.81029 0.901771 1.65908C1.07696 1.50214 1.19143 1.71975 1.31877 1.80969C1.43536 1.89186 1.54807 1.98431 1.76153 1.91602Z" fill="white"/>
</g>
<path fill-rule="evenodd" clip-rule="evenodd" d="M1.15918 13.2872C1.94292 12.7649 2.83849 12.6259 3.74625 12.5298C5.71766 12.3216 7.70756 12.4337 9.67604 12.1649C10.0566 12.1129 10.158 12.2545 10.085 12.6726C9.87248 13.8873 8.95429 14.1111 7.99936 14.2395C6.08244 14.497 4.15875 14.6998 2.23929 14.9353C1.7418 14.9963 1.24801 15.0897 0.754121 15.1786C0.468581 15.2297 0.30324 15.0736 0.1688 14.8606C0.0297771 14.6402 0.120442 14.4882 0.276956 14.2913C0.555129 13.941 0.78481 13.5521 1.15918 13.2872Z" fill="white"/>
<mask id="mask1" mask-type="alpha" maskUnits="userSpaceOnUse" x="4" y="20" width="9" height="8">
<path d="M4.494 25.6451L11.0185 20.669L12.0902 22.1085L5.56575 27.0846L4.494 25.6451Z" fill="#EA580C"/>
</mask>
<g mask="url(#mask1)">
<path fill-rule="evenodd" clip-rule="evenodd" d="M8.50649 24.8209C7.72346 25.4181 6.94333 26.0187 6.15624 26.61C5.90565 26.7982 5.64098 26.997 5.32093 26.731C5.02882 26.4879 5.27733 26.2611 5.33313 26.019C5.44063 25.5519 5.69593 25.1793 6.01574 24.8473C7.40623 23.402 8.90254 22.0962 10.7147 21.2053C10.9108 21.1092 11.0887 20.9669 11.3089 21.1019C11.5578 21.2543 11.3907 21.4748 11.4004 21.6773C11.4459 22.6223 10.8292 23.093 10.172 23.5626C9.60644 23.967 9.06286 24.4032 8.50965 24.8251L8.50649 24.8209Z" fill="white"/>
</g>
</g>
<defs>
<clipPath id="clip0">
<rect width="13" height="27" fill="white" transform="translate(13 27) rotate(-180)"/>
</clipPath>
</defs>
</svg>
