<svg width="29" height="35" viewBox="0 0 29 35" fill="none" xmlns="http://www.w3.org/2000/svg">
<path d="M16.3629 9.39987C22.8617 8.24452 22.3278 -0.650571 15.2721 0.0369767C12.6026 0.16044 10.6725 2.09849 8.54716 3.46452C7.87432 3.89608 7.28874 4.4058 6.63657 4.85208C5.52282 5.57361 5.76739 6.08332 6.94314 6.46957C6.93625 6.46618 6.92821 6.46278 6.92132 6.45938C8.82043 7.6827 10.9561 8.49937 13.1721 8.97737C13.1652 8.97511 13.1572 8.97284 13.1491 8.97057C14.1779 9.29566 15.2802 9.54938 16.3629 9.39987Z" fill="white"/>
<g clip-path="url(#clip0)">
<path d="M14.4162 30.3077C24.3741 34.4078 31.4279 21.6953 21.1131 16.4636C17.3301 14.296 12.976 15.2739 8.8542 15.2934C7.55008 15.2983 6.29765 15.4872 5.00908 15.5305C2.8441 15.5485 2.73444 16.4643 4.01477 18.0256C4.00826 18.0149 4.00017 18.0031 3.99366 17.9924C5.53681 21.3394 7.76162 24.3337 10.3936 26.9321C10.3861 26.9229 10.3771 26.9128 10.368 26.9026C11.4995 28.251 12.7947 29.5654 14.4162 30.3077Z" fill="white"/>
</g>
<defs>
<clipPath id="clip0">
<rect width="24.4724" height="15.4085" fill="white" transform="matrix(0.843768 0.536708 0.536708 -0.843768 0 21.2236)"/>
</clipPath>
</defs>
</svg>
