<svg width="64" height="69" viewBox="0 0 64 69" fill="none" xmlns="http://www.w3.org/2000/svg">
<path fill-rule="evenodd" clip-rule="evenodd" d="M62.7208 40.28C62.6608 40.37 62.7008 40.52 62.4608 40.5L62.4908 40.14C62.6808 40.12 62.9608 40.16 62.9708 40.04C62.8508 39.39 63.3208 38.4 62.7408 37.97C62.8908 37.7 63.0308 37.55 62.7008 37.24C62.8908 36.87 62.8908 36.85 62.6408 36.52C63.0108 36.06 62.3808 35.84 62.4708 35.2C62.3408 34.37 62.1508 33.54 61.9408 32.73C61.8808 31.85 61.2708 31.5 61.0608 30.75L61.0208 30.64C60.6208 30.21 60.9308 29.96 60.4108 29.73C60.0908 29.25 60.1208 29.32 59.9908 28.76L59.5508 28.96C59.5608 28.86 59.6708 28.75 59.9408 28.65C59.8908 28.43 59.5808 28.53 59.5208 28.33C59.4408 28.15 59.3508 27.98 59.2608 27.81C59.2108 27.71 59.0208 27.77 58.9408 27.71C59.2408 27.42 58.8008 26.6 58.3908 26.69C58.3808 26.52 58.5808 26.33 58.3708 26.17L58.1608 26.29C58.1308 25.75 58.0708 25.92 57.6908 25.49C57.4108 25.03 57.1108 24.58 56.8108 24.13C56.6108 24.06 56.7008 23.48 56.2808 23.79C55.7508 23.04 55.1508 22.19 54.6308 22.03L54.5608 21.94C54.2808 21.82 54.2508 21.11 53.7908 21.4L53.7108 21.31C53.3508 21.16 53.8008 20.78 53.4408 20.64C53.0208 20.58 52.8008 20.01 52.3208 20.13L52.2408 20.05C52.4308 19.57 52.0108 19.7 51.7708 19.56L51.1308 18.92C50.9308 18.57 50.6108 18.55 50.3108 18.47L50.2308 18.39C48.7908 17.29 47.7608 16.71 46.5508 16C46.5608 15.94 46.5508 15.86 46.5308 15.72C46.8908 15.9 46.6808 15.48 46.8108 15.41C46.8108 15.27 47.0308 15.36 47.0508 15.23C47.1508 15.1 47.3708 15.11 47.3408 14.86L47.5308 14.21C47.9508 14.23 47.6908 13.54 48.0808 13.52L48.1408 13.33C48.1308 13.16 48.2308 13.09 48.3808 13.08C48.2208 12.9 47.6608 12.69 47.6908 12.52C47.9408 12.73 48.6208 13.03 48.3008 12.75C48.5908 12.5 49.0008 11.92 48.9608 11.6C48.7608 11.75 48.7108 11.39 48.5608 11.33C48.5308 11.41 48.3008 11.27 48.2408 11.32C47.9008 11.01 47.6808 10.86 47.2608 10.85C46.8208 10.56 47.4608 10.8 47.4708 10.73C47.3308 10.66 47.3408 10.54 47.5208 10.61C47.6008 10.94 48.2508 10.99 48.6108 11.21C48.8708 11.34 48.6408 11.47 48.9708 11.6C49.3308 11.48 49.5908 11 49.4208 10.57C49.7508 10.72 49.5208 10.37 49.4908 10.31C49.6008 10.34 49.7508 10.43 49.7708 10.37C49.6508 10.06 50.2408 10.12 49.9108 9.84999C50.1108 9.73999 50.2908 9.60998 50.4408 9.43998L50.4608 9.37998C50.2508 9.23998 49.9608 9.10999 49.8908 8.96999C50.1808 9.07998 50.3508 9.19998 50.4808 9.31998C50.7908 9.34998 50.3008 8.99998 50.7708 9.23998C50.7108 8.79998 51.2608 8.55999 50.8908 8.26999C51.2108 8.48999 51.1308 8.21998 51.1808 8.10998C51.2408 8.03998 51.3708 8.05999 51.3508 7.89998C51.6308 7.85998 51.5808 7.30998 51.5408 7.10998C51.7208 7.19999 51.7908 7.14998 51.7908 6.99998C51.7708 6.76998 52.0008 6.87998 51.9808 6.64998C52.1808 6.39998 52.4908 5.85998 52.4208 5.52998L52.4308 5.45998C52.8308 5.61998 52.4608 5.18998 52.6108 5.02998C52.6108 4.74998 52.6108 4.72998 52.7808 4.58998C52.9008 4.54998 52.9108 4.32998 52.9408 4.14998L52.8708 4.11998C52.9008 3.81998 53.1208 3.97998 53.0308 3.67999C53.1708 3.72998 53.1208 3.40998 53.1708 3.29998L53.3808 2.51998C53.6208 2.06998 53.5808 1.98998 53.7408 1.49998C53.8008 1.23998 53.7608 1.08998 53.7608 0.939985C53.8308 1.04998 53.8708 0.739985 53.7808 0.809985C53.6708 0.769985 53.7808 0.769985 53.8008 0.679985C53.7408 0.449985 53.7108 0.249985 53.6208 0.149985C53.5908 0.139985 53.6208 0.0699849 53.5808 0.0799849C53.6008 0.0499849 53.6008 0.00998492 53.5608 0.0799849C53.5308 0.0299849 53.5108 0.00998492 53.4008 0.109985C53.4008 0.0999849 53.3708 0.109985 53.4008 0.0599849C53.4208 0.0599849 53.4308 0.0599849 53.4608 0.00998492C53.4108 -0.0300151 53.2808 0.159985 53.1908 0.199985C53.1908 0.129985 53.1808 0.129985 53.1208 0.249985C52.8408 0.349985 52.7108 0.759985 52.5008 0.909985C52.3808 0.969985 52.1708 1.23998 52.1908 1.33998C52.1008 1.34998 52.0208 1.41998 51.9408 1.51998L52.0408 1.55998L52.0008 1.60998C51.7908 1.60998 51.8808 1.76998 51.6608 1.89998C51.5808 2.07998 51.4608 2.06998 51.3708 2.19999L51.1808 2.46999L51.4308 2.56998C51.4108 2.59998 51.3808 2.62998 51.3308 2.59998L51.2708 2.56998C51.0008 2.69999 50.6608 2.90999 50.6408 3.29998L50.4908 3.23998C50.4508 3.27998 50.4208 3.34998 50.3408 3.31998C50.3608 3.28998 50.3708 3.24998 50.3008 3.23998L50.2208 3.34998C50.2008 3.37998 50.1908 3.41999 50.2608 3.43999C50.3908 3.32999 50.3308 3.63999 50.3808 3.69999C50.2508 3.76998 50.2908 3.81998 50.0308 3.61998C49.8208 3.78998 49.9808 3.96999 49.7708 3.99998C49.8608 4.04998 50.0108 4.08998 49.9908 4.15998C49.7308 3.98998 49.4508 4.09998 49.7208 4.24998C49.6808 4.36998 49.5308 4.30998 49.4408 4.33998C49.5608 4.40999 49.4408 4.50998 49.3908 4.59998C49.2808 4.55998 49.1608 4.51998 49.1408 4.62998C49.0008 4.57998 48.9708 4.71998 48.9008 4.80998C48.7508 4.75998 48.7308 4.89998 48.6608 4.98998C48.6708 5.20998 47.9708 5.18998 48.4108 5.37998C48.3608 5.44999 48.2008 5.34998 48.1408 5.39998C47.9508 5.59998 48.1808 5.72998 47.8208 5.67998C48.0508 5.80998 48.2308 5.84998 48.3808 5.85998L48.3508 5.91998C48.0508 5.88998 48.0808 5.94998 47.7908 5.73998L47.7508 5.78998C47.5208 5.80998 47.4208 6.01998 47.2508 6.12998L47.1108 6.34998C47.0308 6.41998 46.8608 6.35998 46.7808 6.40998L46.9008 6.45998C46.6308 6.59998 46.6508 6.69999 46.6208 6.89998C46.4308 6.78998 46.2808 6.81998 46.5908 6.95998C46.4708 7.03998 46.1808 6.89998 46.1708 7.11998L46.5408 7.28998L46.6108 7.17998C46.7008 7.23998 46.7208 7.28998 46.6708 7.34998C46.2208 7.30998 46.5408 7.35998 46.7008 7.57998C46.3508 7.39998 46.0708 7.29998 45.8908 7.33998C46.2208 7.45998 45.4308 7.44998 45.8508 7.67998C45.8008 7.93998 45.3808 7.73998 45.3208 7.99998C45.1208 8.20998 45.1508 8.37998 44.8208 8.54998C44.9908 8.64999 45.0308 8.74998 45.3308 8.85998C45.2608 8.92998 44.9708 8.75998 44.7608 8.65998C44.6108 8.69998 44.5208 8.84998 44.6008 8.93998C44.2108 8.95998 44.3308 8.99998 44.1008 9.19998C44.7308 9.56998 43.9908 8.95998 44.4808 9.16998C44.2908 9.26999 44.6908 9.41998 44.6408 9.52998C44.0308 9.17998 44.2008 9.45998 44.4008 9.62998C44.1308 9.50998 43.9008 9.43998 43.7608 9.45998C43.9908 9.59999 43.6908 9.51999 43.6608 9.62998L43.8008 9.69998L43.7708 9.75998C43.4708 9.93999 42.5208 10.21 43.5208 10.57C43.5108 10.7 43.2608 10.58 43.1308 10.59C42.7508 10.63 43.0408 10.85 42.7408 10.97C43.1008 11.18 43.1308 11.03 43.5308 11.29C43.3008 11.47 42.6908 10.91 42.6508 11.14C42.6308 11.27 42.9208 11.23 42.9308 11.35C42.9108 11.51 42.4508 11.19 42.3708 11.29C42.8108 11.46 42.6108 11.56 42.7508 11.7C42.5708 11.62 42.5508 11.49 42.4408 11.54C41.7508 11.5 41.9708 12.17 41.4408 12.34C41.2408 12.25 41.3108 12.35 41.3808 12.46C41.1908 12.42 41.3408 12.69 40.9108 12.58C41.6108 12.91 40.9308 12.83 40.9308 12.95C41.1008 13.03 41.1008 13.1 41.2308 13.18C41.2208 13.43 40.8408 13.3 40.5708 13.27C40.9408 13.47 40.2808 13.31 40.4308 13.56C39.7908 13.18 40.3208 13.76 40.2908 13.85C39.7908 13.94 39.5508 14.02 39.6008 14.44C39.5608 14.52 39.2708 14.34 39.2008 14.38C39.3108 14.53 39.3308 14.67 39.4908 14.82C39.3408 14.73 39.1608 14.65 39.0108 14.67C38.8308 14.69 38.7008 14.85 38.8608 15.15C38.8608 15.16 38.8708 15.18 38.8708 15.19C38.8208 15.2 38.7508 15.19 38.6208 15.17C38.7708 15.27 38.8608 15.31 38.9508 15.34C39.0008 15.42 39.0708 15.52 39.1408 15.63C39.0608 15.65 38.9708 15.67 38.7008 15.5C38.7708 15.45 39.0308 15.52 38.5708 15.29C38.5708 15.37 38.4708 15.44 38.6708 15.56C38.5508 15.81 37.7908 15.93 38.0608 16.48C38.0308 16.54 38.1808 16.63 38.1908 16.7C38.1608 16.76 38.3108 16.85 38.3208 16.92C37.9808 16.72 37.8908 16.78 37.5708 16.6C37.4308 16.75 37.8708 17.11 37.4008 17.02L37.7608 17.21C37.8308 17.45 37.3508 17.14 37.3008 17.26C36.6308 17.06 37.4308 17.67 37.3208 17.78C36.7908 17.69 36.3708 17.9 36.6608 18.38C36.4008 18.25 35.8508 18.23 36.2008 18.43L36.1808 18.49L36.0508 18.86C36.1908 18.95 36.4108 19.06 36.4008 19.12C36.0908 19.2 35.3408 18.85 35.4508 19.34C35.4408 19.41 34.9608 19.96 35.5608 20.36C34.7708 19.82 34.9908 20.29 34.8908 20.44C34.9208 20.64 34.5108 20.39 34.6108 20.66C34.6408 21.15 33.9008 21.11 34.5208 21.73C34.2808 21.71 34.0108 21.66 33.7108 21.58C34.1208 21.91 34.0208 21.91 34.6108 22.15L34.5908 22.21C34.2308 22.04 33.7908 21.8 33.8008 22C34.1208 22.25 34.1908 22.61 34.0508 22.66C33.9808 22.53 33.8908 22.4 33.7408 22.26C33.4808 22.45 33.6108 23.03 34.2808 23.38C33.1508 22.85 33.4508 23.03 34.2308 23.58L33.3208 23.08C33.1808 23.76 32.3208 23.38 33.0508 24.21C32.3608 23.74 32.6908 24.42 32.3708 24.51C32.3808 24.63 32.2508 24.72 32.4908 24.88C32.6608 25.27 31.9408 24.76 31.8908 24.92C32.1908 25.15 32.1608 25.34 32.3508 25.55C32.1008 25.53 32.0608 25.69 32.4908 25.78C32.5508 26.01 32.3708 25.98 31.9208 25.69C31.8408 25.79 32.1308 25.95 32.2208 26.09C31.6208 25.83 32.1108 26.17 31.9708 26.33L31.9608 26.4C31.8208 26.34 31.6208 26.21 31.6008 26.28C31.8408 26.43 31.7708 26.54 31.9008 26.67C31.5808 26.49 31.5208 26.52 31.7008 26.71C31.5208 26.61 31.2608 26.5 31.5108 26.68C31.4708 26.79 31.5008 26.91 31.6208 27.04L31.5908 27.18C31.4708 27.27 31.0508 27.03 31.3608 27.36C31.2608 27.31 31.1608 27.26 31.1808 27.33C31.0508 27.57 31.0708 27.98 30.9808 28.28C31.0008 28.21 31.2908 28.36 31.3108 28.46C31.3008 28.56 31.2008 28.57 31.1008 28.57L31.2708 28.66L31.2508 28.73C31.0408 28.61 31.0408 28.52 30.7708 28.39C30.8608 28.68 30.8808 28.61 30.5508 28.57C31.0508 28.91 30.4708 28.99 30.2708 29.02L31.0908 29.47C30.9808 29.71 30.5908 29.14 30.4108 29.25C30.6408 29.44 30.3408 29.33 30.5108 29.61C30.3508 29.52 30.3008 29.56 30.1708 29.5C30.3708 30 29.8308 29.9 30.3408 30.35C29.9208 30.1 29.8908 30.27 29.8008 30.36C30.1408 30.71 30.2108 30.65 30.5708 30.93L30.7308 31.02C30.7108 31.06 30.6908 31.09 30.5508 31C30.3108 30.88 29.9708 30.66 29.9008 30.72C30.2708 30.94 29.6808 30.8 29.6808 30.9C29.9508 31.07 30.1108 31.02 30.1508 31.16C29.8308 31.04 29.7408 31.17 29.4608 31.09C29.7908 31.4 29.4008 31.64 29.4508 31.92C29.6708 32.08 30.2708 32.28 30.2108 32.41C29.2308 31.8 29.1908 32.19 28.9908 32.43C29.2808 32.58 29.3008 32.66 29.1108 32.65C29.0908 32.74 28.8308 32.57 28.7808 32.62C29.1708 32.85 28.5508 32.63 28.7308 32.89L28.6608 33.23C28.4108 33.28 28.4508 33.51 28.7208 33.79C28.5008 34.04 28.2508 34.06 28.4408 34.47L28.3008 34.39C28.1508 34.57 28.8708 34.79 28.6708 34.97C28.2608 34.73 28.1808 34.73 28.3608 34.96C27.7808 34.62 28.3408 35.14 28.3108 35.24C27.8208 35.12 28.1808 35.48 28.0908 35.73C27.8208 35.71 28.1508 36 27.7708 35.94C28.0008 36.06 28.1108 36.18 28.1608 36.3C27.9908 36.21 27.9608 36.29 27.7508 36.16C27.6108 36.47 28.1908 36.77 27.6808 36.73C27.8508 37.03 28.2908 36.89 28.1808 37.15C27.9808 37.11 27.7508 37.04 27.7508 37.23C28.3008 37.44 28.2008 37.37 28.6808 37.56C28.8608 37.65 28.9608 37.74 29.0608 37.83C29.0608 37.92 29.2608 38.11 29.0208 38.04C28.9708 37.9 28.8508 37.77 28.6708 37.63C28.3808 37.62 27.9708 37.47 27.6008 37.37C27.9108 37.8 27.0508 37.93 27.4408 38.73C27.1208 38.34 27.2108 38.79 27.1708 38.97C27.2008 39.12 26.9808 39.07 27.1508 39.19C27.1908 39.68 26.8808 39.51 26.9708 39.78L26.9608 39.92C26.6708 40.52 26.9308 40.66 26.5808 41.54L26.5308 41.97C26.5908 42.22 26.5508 42.33 26.4508 42.61L26.4308 42.75C26.3908 43.22 26.1608 43.22 26.3808 43.7C26.1808 43.63 26.3208 43.45 26.1608 43.37C26.1508 43.49 26.1108 43.58 26.0408 43.61C26.2308 43.73 26.3908 43.85 26.4208 44.02L26.2608 43.94C25.8108 43.8 26.3008 44.27 26.1808 44.42C26.0008 44.4 26.2508 44.7 26.0008 44.43C25.9908 44.56 26.0108 44.68 26.1008 44.78L26.0608 44.98C25.9708 44.95 25.9308 45 25.8908 45.05C25.8908 45.14 25.9808 45.24 25.7908 45.15C25.7508 45.32 25.7208 45.48 25.8708 45.56C25.8408 45.64 25.7308 45.65 25.9108 45.73C25.8508 45.96 25.7108 45.48 25.6808 45.7C25.7908 45.76 25.5508 45.95 25.5808 46.17C25.4308 46.31 25.5408 46.62 25.5908 46.76C25.5308 46.76 25.4808 46.78 25.4408 46.81C25.4308 46.82 25.4208 46.84 25.4008 46.85C25.3808 46.87 25.3608 46.89 25.3408 46.92C25.3308 46.94 25.3208 46.97 25.3108 47C25.3008 47.02 25.3008 47.03 25.2908 47.05C25.2808 47.09 25.2708 47.13 25.2708 47.16V47.15C25.2608 47.09 25.2508 47.03 25.2408 46.97C25.2408 46.93 25.2308 46.88 25.2208 46.84C25.2208 46.82 25.2108 46.8 25.2008 46.79C25.1808 46.74 25.1508 46.7 25.0908 46.67C25.1708 46.61 25.1808 46.53 25.1908 46.46C25.0708 46.53 24.9908 46.51 24.9308 46.45L25.1508 46.33C25.1308 46.19 25.0108 46.26 24.9408 46.22C25.0408 46.19 25.1408 45.88 24.9508 45.98C24.9708 46.05 24.8708 46.09 24.8508 45.96C25.1708 45.83 24.8308 45.55 24.8408 45.34C24.8708 45.09 24.8008 45 24.7208 44.63C24.6708 44.45 24.6408 44.23 24.4908 44.22C24.5808 44.05 24.5508 43.72 24.4308 43.7C24.5708 43.45 24.3508 43.59 24.2508 43.49L24.3408 43.43C24.3708 43.1 24.2808 43.18 24.2608 42.85C24.1008 42.86 23.8708 43.01 23.7908 42.9C23.9808 42.77 24.0408 42.84 24.2208 42.72C24.1808 42.63 24.2208 42.55 24.2508 42.46C24.1108 42.54 24.0408 42.63 23.9708 42.71C23.9808 42.54 24.2308 42.4 23.9808 42.39L23.6708 42.58L23.6408 42.52L23.7408 42.46C23.6208 42.2 23.9008 42.36 24.0508 42.27C23.8408 41.83 23.9708 41.89 23.8708 41.43L23.5408 41.63C23.4708 41.36 23.9508 41.46 23.8008 41.23C23.7508 41.01 23.5408 41.59 23.4408 41.37C23.2908 41.25 23.9908 41.09 23.8408 40.96C23.5308 41.07 23.9008 40.61 23.6608 40.51C23.5208 40.59 23.3308 40.73 23.2808 40.67C23.3508 40.62 23.4208 40.57 23.3708 40.53C23.3808 40.46 23.4408 40.4 23.5808 40.32L23.4208 39.94C23.2708 40.02 23.0808 40.17 23.0208 40.11C23.1608 40.01 23.3708 39.9 23.3608 39.82C23.2108 39.91 23.0608 39.98 23.0508 39.85C23.5808 39.44 22.8208 39.65 23.0908 39.27C23.0408 39.24 23.0308 39.15 22.9008 39.23C22.9008 39.12 23.0208 39 22.9108 38.91L22.7808 38.99C22.7808 38.92 22.8508 38.85 23.0108 38.76C22.8608 38.6 22.3008 38.72 22.7608 38.28C22.5608 38.29 22.5208 38.23 22.6308 38.05L22.5008 38.14C22.1208 38.1 22.7208 37.73 22.3308 37.53L22.0508 37.71C22.1608 37.54 22.3808 37.35 22.1508 37.25C22.0308 36.98 21.9208 36.72 21.4008 37.02C22.1208 36.54 21.5408 36.62 21.3108 36.6C21.6108 36.56 21.6408 35.86 21.6508 35.9C21.5908 35.8 21.3308 35.7 20.9408 35.81C21.4208 35.58 21.1108 35.52 21.0708 35.41L20.9208 35.5C20.8808 35.45 20.7508 35.52 20.6908 35.49C20.8408 35.4 20.8308 35.33 20.9408 35.25L20.6508 34.89L20.3108 34.48C19.6308 34.87 20.5108 34.5 20.1008 34.77C20.0408 34.71 19.8508 34.82 19.8208 34.71C19.9908 34.59 20.2508 34.44 20.2208 34.37C19.6008 34.76 20.1608 34.36 20.1308 34.27C19.8208 34.3 19.8208 34.57 19.6408 34.51C19.8308 34.38 19.7908 34.31 20.0408 34.17C19.7708 34.09 19.8208 34.15 20.0108 33.87C19.7308 34.04 19.7708 33.76 19.5408 33.87C19.7208 33.69 19.6108 33.57 19.6108 33.43L19.4608 33.53C19.7308 33.16 19.2008 33.42 18.9408 33.48C19.1108 33.34 19.1808 33.22 19.1008 33.14C19.1608 32.86 18.9808 32.96 18.7808 32.8C18.9308 32.5 18.5808 32.7 18.6508 32.42L18.3608 32.61C18.5608 32.19 17.8408 32.37 18.1908 31.94C17.7808 32.32 17.7608 32.2 17.3708 32.31C17.5908 32.1 17.6908 31.92 17.9608 31.7C17.7808 31.45 17.2308 31.24 17.4508 30.95C16.8608 31.2 17.3408 30.61 16.6908 30.89C17.2608 30.5 16.5608 30.77 16.7408 30.47L16.6008 30.56C16.5908 30.34 16.6208 30.28 16.2308 30.41C16.3808 30.3 16.4008 30.22 16.4208 30.14C16.3008 30.2 16.1408 30.31 16.0908 30.27C16.2608 30.16 16.4108 30.05 16.2808 30C16.2208 29.93 16.1108 29.94 16.0008 29.95C16.1008 29.87 16.2808 29.78 16.2308 29.73C15.8008 29.93 16.3108 29.41 15.8608 29.58C15.7808 29.55 15.6308 29.6 15.4908 29.66C15.3008 29.54 16.0108 29.53 15.8608 29.36C15.4908 29.62 16.0408 28.97 15.5408 29.26C15.5708 29.29 15.4808 29.38 15.4008 29.34C15.4808 29.29 15.5608 29.23 15.4908 29.21C15.7308 29.08 15.4308 28.78 15.2108 28.93C15.2408 28.96 15.1508 29.05 15.0708 29.01C15.1108 28.85 15.3708 28.61 14.9808 28.69L14.8408 28.77C14.8108 28.54 14.3308 28.97 14.2508 28.82C14.4908 28.78 14.8108 28.58 14.7508 28.45C14.6408 28.31 14.5408 28.19 14.3508 28.47C13.9008 28.55 14.5408 28.2 14.2108 28.1C14.4408 27.87 13.5008 28.02 13.3708 28.3C13.3508 28.18 13.0608 28.29 13.2408 28.15C13.4708 27.99 14.3008 27.7 13.8908 27.77C13.1608 28.16 14.0708 27.49 13.5808 27.65L13.7108 27.57C13.5308 27.4 13.3708 27.52 13.6208 27.25C13.1308 27.43 12.9008 27.94 12.4208 28.1C12.9608 27.65 11.9808 28.18 12.2508 27.89C12.4408 27.91 12.7408 27.77 13.1008 27.55C12.9108 27.37 13.3108 27.45 13.4008 27.23C13.2208 27.03 13.2908 26.59 12.8308 26.59C12.4608 26.74 12.6708 26.83 12.4208 26.97C12.3808 26.85 12.1708 26.97 12.0508 26.96C12.2408 26.85 12.4808 26.73 12.3408 26.65C12.7208 26.16 12.2308 25.91 11.6808 26.05C12.2208 25.87 12.1608 25.53 11.8808 25.87C11.8308 25.58 11.6708 25.57 11.6208 25.35C11.5008 25.29 11.6808 25.13 11.5008 25.2C11.2408 25.04 11.3408 25.03 11.1708 24.79C11.2508 24.66 11.1508 24.54 11.0408 24.42C10.9808 24.36 10.8508 24.42 10.8108 24.32C10.7508 24.27 10.7108 24.16 10.5908 24.21C10.6308 24.3 10.3708 24.39 10.2108 24.48L10.1708 24.43C10.4208 24.32 10.5608 24.22 10.6508 24.11C10.3908 23.94 10.5108 23.89 10.3108 23.63L10.2108 23.68C10.1708 23.63 10.2508 23.58 10.2308 23.52C10.0108 23.21 9.69081 23.28 9.82081 22.92C9.44081 22.98 9.45081 22.71 9.43081 22.67C9.06081 22.96 8.95081 22.88 8.49081 22.97C8.80081 22.89 8.72081 22.75 8.87081 22.64C8.99081 22.77 9.00081 22.46 8.95081 22.39C8.68081 22.13 9.25081 22.02 9.02081 21.78C8.91081 21.83 8.86081 21.89 8.82081 21.91C8.88081 21.85 8.93081 21.79 8.98081 21.72H8.99081C9.19081 21.47 9.33081 21.21 9.31081 20.92C10.4808 19.89 11.5108 18.53 12.3608 17.47C12.6708 16.97 13.6608 16.75 13.5608 16.11C14.3408 16.16 14.3808 15.3 14.9408 15.31C15.2308 14.9 16.1608 14.79 16.0508 14.19C16.2708 13.85 16.6308 14.33 16.5408 13.84C17.6508 12.98 19.1408 12.27 20.0108 11.68C20.1608 11.26 20.7208 11.47 21.1708 11.06L21.0508 10.85C21.5508 10.59 22.0508 10.35 22.5608 10.11C24.0008 9.34998 24.7608 8.89998 26.5908 8.53998C27.0908 8.38999 27.5908 8.23998 28.0908 8.10998C28.5008 7.91998 29.1708 8.04998 29.3108 7.56998C29.6908 7.67999 29.9608 7.73998 30.3808 7.35998C31.2108 7.96999 32.1108 6.83998 32.8008 7.28998C33.1508 7.10998 33.8508 7.52998 33.9708 6.98998H34.0908C34.3008 7.52998 34.9308 7.06998 35.3008 7.23998C35.5808 7.25998 35.6508 6.82998 36.0208 7.03998C36.0408 7.39998 36.3008 7.27998 36.4908 7.31998C37.1308 7.08998 37.2208 7.78998 37.6208 7.93998L37.6408 7.69998C38.0608 7.67998 38.2308 7.78998 38.3708 7.58998L38.4908 7.60998C39.1108 8.01999 39.1208 6.25998 39.5608 5.88998C39.2608 5.76998 39.4008 4.11998 39.1108 4.55998C38.7308 3.75998 38.1508 3.69998 37.5908 3.84998C37.0308 3.99998 36.5008 4.36998 36.0708 4.39998L35.9308 4.38998C35.6208 3.85998 35.4508 4.46998 34.9708 4.11998C34.4308 4.25998 33.4908 3.82998 33.2208 4.39998L32.6808 4.43998C31.9208 4.49998 31.1708 4.58998 30.4308 4.70998L30.1708 4.74998C29.2508 5.05998 27.8408 4.89998 27.2808 5.62998C26.9008 5.24998 26.8008 5.68998 26.5308 5.83998C26.4908 5.70998 26.3408 5.60998 26.4108 5.87998C25.6208 5.60998 25.4208 6.18998 24.6008 6.21998C24.2508 6.49998 23.3408 6.35998 23.3608 6.93998L22.1708 7.43998C21.5008 7.68998 20.8408 7.99998 20.1908 8.32998C19.8708 8.51998 19.3808 8.59999 19.4008 9.00998C19.0608 8.48998 19.3708 9.38999 18.9508 9.24998C18.3308 9.37998 17.6708 9.91998 16.7508 10.54L15.8908 11.09C14.6208 11.9 14.2908 12.39 13.6408 12.97L13.0308 13.44L12.9308 13.52C12.5308 13.83 12.1308 14.16 11.7408 14.49L11.6408 14.57C11.3808 14.79 11.0208 14.98 11.1308 15.33L10.9408 15.5C10.2708 15.3 10.6408 16.09 10.0908 16.28L9.90081 16.46C9.36081 17.18 8.14081 17.77 8.10081 18.64C8.28081 18.79 8.39081 18.75 8.55081 18.85C8.38081 19.04 7.94081 18.55 7.84081 18.92C7.81081 19.01 7.74081 19.09 7.65081 19.17C7.58081 18.97 7.42081 18.82 7.40081 18.66V18.6C7.53081 18.58 7.33081 18.2 7.35081 18.41C7.37081 18.41 7.39081 18.4 7.40081 18.46C7.35081 18.51 7.29081 18.4 7.30081 18.5C7.20081 18.48 7.34081 18.32 7.30081 18.22C7.25081 18.18 7.21081 18.17 7.14081 18.22L7.11081 18.23C7.09081 18.15 7.07081 18.2 7.05081 18.26C7.00081 17.91 7.22081 18.3 7.20081 18.05C7.13081 18 7.08081 17.72 7.05081 17.91L7.03081 17.71C6.99081 17.71 7.00081 17.82 6.98081 17.88C6.97081 17.8 6.98081 17.69 6.95081 17.69C6.86081 17.7 6.71081 18.18 6.68081 17.96C6.64081 18.12 6.59081 18.22 6.54081 18.36L6.60081 18.33C6.53081 18.39 6.52081 18.66 6.43081 18.67C6.38081 18.71 6.36081 18.86 6.34081 18.97C6.29081 19 6.24081 19.03 6.23081 19.15L6.10081 19.2C6.05081 19.45 6.03081 19.71 5.99081 19.96C6.07081 20.1 5.96081 20.57 5.96081 20.85V20.92C5.94081 21.1 5.95081 21.24 6.00081 21.31C5.75081 21.77 5.49081 22.21 4.94081 22.6C5.06081 22.68 5.17081 22.77 5.07081 22.84L4.48081 23.71C4.22081 23.59 4.27081 23.76 4.34081 23.93L4.13081 24.27C3.48081 24.27 3.43081 25.25 3.04081 25.66L3.25081 25.77L3.12081 26C2.91081 26.4 2.70081 26.79 2.50081 27.2C2.38081 27.78 1.56081 28.49 1.94081 29.03L1.89081 29.16C1.12081 29.57 1.13081 30.9 0.740809 31.71C0.810809 32.82 -0.379191 33.7 0.560809 34.57C0.630809 34.47 0.620809 34.3 0.850809 34.33L0.770809 34.75C0.580809 34.76 0.300809 34.69 0.270809 34.83C0.280809 35.03 0.240809 35.23 0.200809 35.46L0.0508086 36.2C-0.0291914 36.7 -0.0291914 36.88 0.230809 37.22C0.0608086 37.52 -0.109191 37.68 0.180809 38.06C-0.0491914 38.47 -0.0491914 38.5 0.160809 38.9C-0.259191 39.4 0.340809 39.72 0.190809 40.45C0.230809 41.44 0.340809 42.42 0.480809 43.39C0.450809 44.42 1.04081 44.91 1.19081 45.81L1.22081 45.95C1.60081 46.5 1.26081 46.75 1.77081 47.08C2.06081 47.68 2.03081 47.6 2.14081 48.26L2.59081 48.09C2.57081 48.21 2.45081 48.31 2.18081 48.39C2.21081 48.66 2.53081 48.58 2.58081 48.82L2.82081 49.46C2.87081 49.59 3.06081 49.53 3.14081 49.62C2.82081 49.92 3.24081 50.92 3.66081 50.87C3.67081 51.07 3.45081 51.26 3.67081 51.47L3.88081 51.36C3.90081 51.99 3.96081 51.79 4.35081 52.33C4.63081 52.89 4.93081 53.45 5.25081 53.99C5.46081 54.09 5.37081 54.75 5.79081 54.44C6.34081 55.36 6.97081 56.4 7.52081 56.64L7.60081 56.75C7.90081 56.91 7.94081 57.72 8.42081 57.45L8.50081 57.55C8.88081 57.75 8.42081 58.13 8.81081 58.33C9.25081 58.45 9.51081 59.1 10.0108 59.02L10.1008 59.12C9.92081 59.63 10.3708 59.53 10.6208 59.71L11.3408 60.47C11.5808 60.88 11.9208 60.92 12.2408 61.04L12.3308 61.13C14.1008 62.59 15.3408 63.3 16.9108 64.34C17.2108 64.78 17.5808 64.45 17.8908 64.73C18.0508 65.03 18.5608 64.87 18.9808 65.44C19.2708 65.63 19.5708 65.8 19.8708 65.98L19.9808 66.05C20.0908 66.12 20.2008 65.96 20.3208 65.97C20.6908 66.01 21.0908 66.75 21.4508 66.32C21.6608 66.84 21.9208 66.67 22.3708 66.79C23.0408 66.96 23.8308 67.82 24.4708 67.48C25.0108 67.6 25.6508 68.19 26.1208 67.86C26.5108 68.29 27.2908 68.92 27.7808 68.48C28.4608 68.71 29.3708 68.06 29.9408 68.06L30.0708 68.08C30.2908 68.62 30.5308 68.04 30.9308 68.44C31.4608 68.35 32.2908 68.89 32.6308 68.36L33.1508 68.39C33.8808 68.42 34.6208 68.42 35.3608 68.39L35.6208 68.38C36.5608 68.18 37.9308 68.49 38.5808 67.81C38.9008 68.23 39.0708 67.79 39.3508 67.66C39.3808 67.79 39.5108 67.91 39.4808 67.63C39.8508 67.79 40.1108 67.73 40.3808 67.64C40.6508 67.53 40.9708 67.39 41.3708 67.39C41.4508 67.32 41.5608 67.29 41.6808 67.27L41.8608 67.24L41.9508 67.23H41.9708H41.9808L42.1508 67.17H42.1608L42.2108 67.16C42.4608 67.09 42.6808 66.98 42.6708 66.69L43.8108 66.22C44.4508 65.94 45.0908 65.65 45.7108 65.34C46.0208 65.16 46.4908 65.09 46.4808 64.68C46.7908 65.21 46.5108 64.29 46.9108 64.45C47.5008 64.34 48.1508 63.82 49.0408 63.22L49.8708 62.69C51.0908 61.91 51.4208 61.43 52.0408 60.86L52.6208 60.41L52.7208 60.33C53.1008 60.02 53.4808 59.71 53.8508 59.38L53.9408 59.3C54.1808 59.08 54.5208 58.9 54.4208 58.55L54.6008 58.38C55.2408 58.59 54.8808 57.8 55.3908 57.61L55.5608 57.44C56.0508 56.73 57.2008 56.15 57.2008 55.29C57.0208 55.14 56.9208 55.18 56.7608 55.08C56.9108 54.9 57.3608 55.38 57.4408 55.01C57.5408 54.67 58.2808 54.43 57.9308 54C58.0308 53.88 58.2808 54.05 58.3408 53.85C59.1408 52.98 59.0508 52.1 59.9708 51.39C59.8508 51.31 59.7308 51.23 59.8308 51.16C60.0008 50.88 60.1608 50.6 60.3108 50.31C60.5808 50.42 60.5108 50.26 60.4308 50.09L60.6008 49.76C61.2308 49.75 61.1708 48.8 61.5008 48.41L61.2808 48.31L61.3808 48.08C61.5408 47.7 61.6908 47.32 61.8308 46.94C61.8708 46.39 62.5808 45.71 62.1308 45.23L62.1608 45.11C62.8608 44.7 62.6608 43.5 62.9308 42.77C62.6908 41.79 63.7608 40.97 62.7208 40.28ZM25.0308 52.71C25.1008 52.68 25.1008 52.66 25.0708 52.65C25.0508 52.66 25.0508 52.68 25.0208 52.69C25.0408 52.68 25.0508 52.66 25.0708 52.65C25.1108 52.66 25.1108 52.68 25.0308 52.71ZM25.2108 47.41H25.2208C25.2508 47.41 25.2908 47.39 25.3208 47.36V47.37C25.3208 47.38 25.3208 47.4 25.3208 47.41C25.3208 47.44 25.3308 47.46 25.3208 47.5C25.2908 47.49 25.2608 47.48 25.2208 47.48C25.1508 47.46 25.1008 47.45 25.0508 47.47L25.0408 47.49C25.0308 47.39 25.0808 47.4 25.1408 47.41C25.1608 47.41 25.1808 47.41 25.2108 47.41ZM25.2908 47.18C25.3008 47.18 25.3008 47.18 25.3008 47.18C25.3108 47.18 25.3208 47.19 25.3208 47.22C25.3108 47.21 25.3008 47.2 25.2908 47.18ZM24.9408 51.79C24.9008 51.82 24.8608 51.82 24.8408 51.8C24.8708 51.77 24.8908 51.73 24.8908 51.68C24.9208 51.72 24.9408 51.76 24.9408 51.79ZM39.5908 64.89C39.1008 65.01 38.6108 65.12 38.1208 65.21C37.7108 65.36 37.0808 65.16 36.8808 65.63C36.5408 65.48 36.2808 65.39 35.8308 65.73C35.1308 65.03 34.1008 66.05 33.5008 65.53C33.1408 65.67 32.5308 65.17 32.3208 65.7L32.2008 65.69C32.0908 65.14 31.4008 65.52 31.0708 65.33C30.8008 65.29 30.6708 65.69 30.3508 65.47C30.3808 65.12 30.1108 65.21 29.9308 65.15C29.2808 65.34 29.2808 64.62 28.9008 64.46L28.8508 64.69C28.4408 64.68 28.2708 64.57 28.1208 64.77L28.0008 64.74C27.6408 64.47 27.4408 65.06 27.2308 65.62C26.9508 65.68 26.6508 65.81 26.3608 65.4C25.4508 65.23 24.9708 65.04 24.0708 64.69C23.7108 64.69 23.3408 63.99 23.0008 64.43L22.7908 64.32L21.9408 63.86C21.7308 63.65 21.5208 63.67 21.3108 63.78L21.2108 63.72C20.6808 63.59 20.2008 62.74 19.6508 63.04C18.4708 62.06 17.3308 61.82 16.1208 60.7L15.9708 60.89C15.6308 60.79 15.4308 60.02 14.9908 60.35C14.9708 59.8 14.0908 59.55 13.8308 59.26C13.4808 58.92 13.1408 58.57 12.8108 58.21L12.6408 58.38L12.5608 58.29C12.9008 57.67 11.9508 58.12 11.9008 57.56C11.6308 57.46 11.5908 56.75 11.1708 57.07C10.7608 56.62 10.4608 55.98 9.92081 55.87L9.85081 55.77L9.34081 55.07C8.88081 54.69 8.76081 53.66 8.12081 53.66C7.92081 53.34 7.73081 53.02 7.55081 52.7C7.42081 52.28 7.13081 52.14 6.86081 51.95C7.13081 51.79 6.96081 51.49 6.68081 51.62C6.66081 51.37 6.30081 50.65 6.13081 50.5C6.09081 50.44 6.04081 50.38 5.87081 50.5C5.76081 50.29 5.92081 50.17 6.24081 50.17C6.10081 49.9 5.70081 50.01 5.71081 49.58L5.49081 49.69L5.44081 49.57C5.68081 49.43 5.60081 49.28 5.51081 49.12C5.19081 48.75 5.35081 47.84 4.76081 47.81C4.43081 46.82 4.30081 46.61 3.91081 45.83L3.88081 45.71C3.87081 45.26 3.62081 45.05 3.41081 44.79C3.59081 44.71 3.66081 44.61 3.59081 44.48C3.37081 44.14 3.68081 43.34 3.12081 43.28C3.07081 42.94 3.01081 42.61 2.98081 42.27C2.88081 41.47 2.83081 40.66 2.80081 39.85C2.85081 39.61 2.53081 39.59 2.56081 39.35C2.67081 38.74 2.89081 38.49 2.59081 37.94L2.60081 37.81C2.62081 37.48 2.64081 37.1 2.67081 36.81L2.68081 36.69C2.56081 36.3 3.13081 35.47 2.63081 35.23L2.69081 34.84L2.84081 34.08C3.07081 33.36 3.49081 31.18 3.91081 30.54L4.00081 30.3C4.15081 29.49 5.05081 28.66 4.81081 27.92C4.87081 27.69 5.18081 27.79 5.26081 27.58C5.59081 26.96 5.94081 26.35 6.30081 25.76C6.64081 25.44 6.65081 25.1 6.74081 24.77L6.77081 24.75L6.79081 24.82C6.64081 25.04 6.85081 25.56 7.04081 25.62L7.15081 25.95C7.35081 26.28 7.34081 26.94 7.71081 27.05C7.73081 27.09 7.76081 27.12 7.85081 27.05C8.03081 27.24 7.53081 27.76 8.02081 27.74C8.14081 27.81 8.05081 28.18 8.32081 28.04C8.31081 27.94 8.55081 27.83 8.62081 27.72L8.74081 27.65C9.10081 27.54 9.05081 27.78 8.69081 27.84C8.58081 27.72 8.40081 28.09 8.24081 28.17C8.31081 28.53 8.66081 28.48 8.74081 28.83C8.75081 29.07 9.05081 28.88 9.07081 29.11C9.14081 29.22 9.04081 29.29 8.85081 29.32C9.08081 29.47 8.68081 29.89 9.22081 29.66C9.32081 30.01 9.66081 30.42 9.93081 30.5C9.92081 30.45 10.4208 30.15 10.4608 30.18C10.3208 30.28 10.2908 30.36 10.2708 30.45C10.1008 30.55 10.0408 30.49 9.83081 30.63C9.82081 30.86 10.1108 30.66 10.1508 30.83C9.98081 31.05 10.2908 31.5 10.5708 31.44C10.6808 31.39 10.8408 31.28 10.8808 31.33C10.9308 31.41 11.0308 31.41 11.1408 31.41C10.9008 31.56 10.7008 31.66 10.5508 31.69C10.5908 31.96 10.9008 31.85 11.0008 32.04C11.1408 32.14 11.1308 32.26 11.0608 32.4C11.4908 32.66 11.3408 33.31 11.7908 33.36L11.8708 33.47C11.8108 33.67 12.3108 33.84 12.4208 34.15C12.6708 34.09 12.8208 34.27 12.6808 34.46L13.3308 35.23C13.6008 35.12 13.5108 35.5 13.9508 35.15C13.9908 35.2 14.1208 35.13 14.1808 35.16L13.8908 35.35C13.8308 35.63 14.0608 35.47 14.2008 35.7C14.2308 35.77 14.0408 35.98 14.3308 35.85C14.3108 35.81 14.3008 35.78 14.4308 35.7L14.5208 35.8C14.3108 35.95 14.4908 36.01 14.5508 36.1L14.4008 36.2C14.5308 36.4 14.3708 36.52 14.7108 36.55L14.8408 36.7C14.8108 36.8 14.8308 37.38 15.4408 37.1L15.4908 37.15C14.8908 37.43 15.5408 37.83 15.7208 37.4C15.7408 37.6 15.7908 38.16 15.8808 38.35C15.9508 38.23 16.3308 37.99 16.3508 38.09C15.9308 38.42 17.3008 37.7 16.8208 38.1C16.5008 38.13 16.3908 38.26 16.0508 38.52C16.0608 38.91 16.5508 38.67 16.5608 39.06L16.7008 39.21C16.6308 39.34 16.6408 39.46 16.7908 39.54C17.0108 39.44 16.9908 39.71 17.2608 39.55C17.1308 39.74 17.3208 39.85 17.4408 39.98L17.5808 39.89C17.5608 40.05 17.2008 40.19 17.5808 40.13C17.6708 40.22 17.5708 40.3 17.3508 40.36C17.3608 40.66 17.8608 40.22 17.9908 40.34C17.7908 40.54 17.8308 40.68 17.9908 40.81C17.7308 41.02 18.1508 41.19 18.3108 41.15C18.3608 41.27 18.5808 41.14 18.7108 41.13L18.5808 41.21C18.4908 41.29 18.4708 41.35 18.5408 41.39C18.4608 41.44 18.3908 41.49 18.4608 41.52C18.2308 41.63 18.5008 41.92 18.6908 41.77C19.2108 41.79 18.9508 42.64 19.6808 42.47C19.3208 42.54 19.4308 42.66 19.6508 42.64C19.5208 42.85 19.7808 42.76 19.7908 43.02C20.0408 43.18 19.9208 43.38 20.0608 43.55C20.2708 43.71 20.3008 43.9 20.1908 44.09C20.6608 43.76 20.6108 44.15 20.9608 44.09L20.6508 44.28C20.1508 44.34 20.8208 44.44 20.8408 44.7C21.1408 44.69 20.9408 45.01 21.2008 45.17L21.3908 45.06L21.5008 45.22C21.3908 45.32 20.9808 45.68 21.3808 45.6L21.5808 45.87L21.9208 46.35L21.9608 46.4C21.7608 46.53 22.0608 46.6 22.1108 46.62L21.9008 46.7C21.9508 46.81 22.0708 46.77 22.1308 46.87L22.2408 47.03C22.1008 47.17 22.4108 47.35 22.4508 47.51L22.5208 47.47L22.6908 47.75L22.8308 47.97L22.7608 48.01C22.6808 48.21 22.9608 48.13 23.0308 48.31C23.0908 48.39 23.1308 48.53 23.2308 48.5C23.2708 48.58 23.1408 48.61 23.1608 48.69C23.2908 48.63 23.1908 48.92 23.3608 49.03C23.4208 49.25 23.6108 49.21 23.5508 49.37C23.6608 49.62 23.7508 49.56 23.7608 49.78C23.7208 49.85 23.8508 50.09 23.9808 50.33C23.9808 50.33 23.9808 50.33 23.9908 50.33C24.0308 50.29 24.0708 50.26 24.1108 50.25C24.1408 50.26 24.1808 50.27 24.1908 50.21C24.3508 50.29 24.1808 50.51 24.3708 50.57L24.3408 50.63C23.9908 50.6 24.1808 50.79 24.0008 50.99C24.1008 51.01 24.0808 51.08 24.0608 51.16C24.0408 51.25 24.1508 51.21 24.1908 51.15C24.1608 51.06 24.1908 51.04 24.2508 51.02C24.3008 51.16 24.4408 51.34 24.4808 51.48L24.5308 51.45C24.4408 51.29 24.6108 51.23 24.6408 51.11C24.6408 51.24 24.7008 51.2 24.7508 51.14C24.7508 51.16 24.7608 51.17 24.7608 51.18C24.6208 51.26 24.7208 51.26 24.6608 51.4V51.41V51.42L24.5808 51.6C24.6608 51.56 24.7208 51.6 24.7208 51.68C24.6908 51.65 24.6608 51.62 24.6108 51.63C24.6308 51.67 24.6408 51.7 24.6308 51.73C24.6208 51.7 24.6008 51.67 24.5508 51.66C24.5008 51.77 24.5608 51.82 24.6408 51.84C24.6708 51.91 24.6808 51.98 24.6708 52.04L24.7508 52.22L24.8008 52.34C24.8108 52.4 24.8108 52.43 24.8308 52.46C24.8108 52.46 24.7908 52.46 24.7808 52.47C24.7508 52.5 24.7108 52.51 24.6808 52.52L24.8908 52.53L24.9008 52.56C24.8708 52.57 24.8508 52.58 24.8208 52.59L24.9108 52.6L24.9408 52.73L24.9808 52.92L25.1008 52.74C25.1308 52.7 25.1508 52.66 25.1708 52.62H25.2308L25.2708 52.56L25.3208 52.47L25.2708 52.56L25.3808 52.57C25.4408 52.48 25.5608 52.41 25.5608 52.29C25.6408 52.16 25.5608 52.06 25.5208 51.96C25.5208 51.95 25.5308 51.95 25.5308 51.93C25.5208 51.92 25.5108 51.92 25.5108 51.92C25.5008 51.87 25.5108 51.81 25.5908 51.76C25.5708 51.88 25.5908 51.94 25.7008 52.01C25.7308 51.99 25.7608 51.97 25.7308 51.92C25.7408 51.85 25.7508 51.78 25.6808 51.8C25.6608 51.74 25.7308 51.72 25.7608 51.69C25.5908 51.62 25.6408 51.47 25.8508 51.43C25.9308 51.37 25.8108 51.34 25.7208 51.42C25.7408 51.36 25.7608 51.3 25.7908 51.26H25.7808C25.8408 51.19 25.8908 51.13 25.9808 51.08C26.0508 51.22 25.8508 51.23 25.8908 51.35C26.1608 51.25 25.8308 51.4 25.9708 51.54C26.1208 51.42 26.0608 51.45 26.2408 51.41C26.2108 51.32 25.9408 51.32 26.0908 51.18C26.1308 51.33 26.2808 51.18 26.3308 51.29L26.4908 51.21C26.4608 51.13 26.5308 51.09 26.4708 50.99C26.3108 50.78 26.4508 50.61 26.2608 50.39C26.2708 50.35 26.2708 50.32 26.2708 50.29C26.2708 50.28 26.2708 50.28 26.2708 50.27C26.2708 50.23 26.2508 50.19 26.2308 50.15C26.3808 50.28 26.3908 50.06 26.4508 49.96L26.3908 49.93C26.5508 49.89 26.6608 49.69 26.7508 49.44L26.7808 49.38C26.8908 49.4 27.0808 48.97 26.9908 48.9L27.1008 48.66C27.2408 48.71 27.2408 48.42 27.3208 48.33L27.4508 48.03C27.6408 47.94 27.7008 47.57 27.8308 47.34L27.7608 47.31C27.7908 47.1 28.0008 47.28 28.0308 47.07C28.2808 47.1 28.0408 46.83 28.1908 46.71C28.3108 46.34 28.4808 46.09 28.7108 45.93C28.8808 45.62 28.9308 45.34 28.8808 45.06C28.9608 44.96 29.1308 44.99 29.1808 44.84C29.4308 44.8 29.7908 43.78 29.3008 44.01L29.3908 44.05C29.1708 44.42 29.1208 43.8 29.4608 43.86C29.7708 44.09 29.6908 43.68 29.8008 43.58C29.8708 43.48 29.9508 43.69 30.0208 43.62C29.8508 43.5 30.1908 43.39 30.0508 43.27C30.2208 43.08 30.0408 42.91 30.1408 42.73C30.3808 42.82 30.3008 42.45 30.4108 42.35C30.6708 42.21 30.7408 41.79 30.8708 41.47L30.9408 41.28C31.2208 41.02 31.5808 40.73 31.6208 40.28C31.6308 40.26 31.6408 40.22 31.6408 40.15L31.6908 40.03C31.9608 40.03 31.9408 39.67 32.0508 39.47L32.0908 39.35L32.2308 38.97L32.3008 38.78C32.3208 38.53 32.4808 38.46 32.6208 38.35L32.7608 38.42L32.9408 37.92L32.9608 37.86C32.7508 37.74 32.4308 37.61 32.4208 37.49L32.8508 37.72C32.8808 37.6 32.9508 37.54 33.0808 37.55C32.9708 37.48 32.8008 37.4 32.8208 37.33C33.0708 37.48 33.1808 37.45 33.1708 37.29C33.4908 37.45 33.3308 37.06 33.4508 36.99C33.5208 36.69 33.3808 36.58 33.7808 36.57C33.8908 36.45 33.5608 36.29 33.7408 36.17C34.1008 36 33.5208 35.83 34.2408 35.77L34.3108 35.58C34.1008 35.46 33.9608 35.43 33.8308 35.4C33.8508 35.34 33.9808 35.39 34.0308 35.36C34.2108 35.44 34.2908 35.42 34.3808 35.4C34.4608 35.14 34.9908 35.37 34.9108 34.94C34.7908 34.86 34.6008 34.77 34.6208 34.71C35.3308 35.04 34.7908 34.55 34.6908 34.52C34.8608 34.61 34.8408 34.51 34.5608 34.37L34.6208 34.18C34.7808 34.26 34.7908 34.33 34.9108 34.41C34.9108 34.27 35.1308 34.37 35.1608 34.24C35.2308 34.21 35.3008 34.16 35.3608 34.11C35.3808 34.09 35.3908 34.08 35.4108 34.06C35.4508 34.02 35.4908 33.98 35.5308 33.93C35.5408 33.91 35.5508 33.89 35.5708 33.87C35.6108 33.82 35.6408 33.77 35.6708 33.71C35.6808 33.7 35.6808 33.68 35.6908 33.67C35.8508 33.35 35.9408 32.98 36.0408 32.79C36.0608 32.78 36.0808 32.76 36.0908 32.71C36.4008 32.75 36.3508 32.41 36.4508 32.23L36.2808 32.14C36.2808 32 36.5108 32.1 36.5308 31.98C36.3008 31.81 36.1408 31.66 35.9108 31.49L35.9308 31.43C36.2508 31.59 36.2708 31.7 36.5708 31.86C36.5408 31.59 36.9908 31.39 36.6408 31.07C36.6908 31.04 36.8108 31.07 37.0008 31.19L37.2308 30.49C37.6608 30.18 37.2408 30.17 37.4808 29.73C37.7808 29.86 38.1808 29.68 37.8008 29.38C37.8008 29.34 37.8008 29.29 37.6508 29.22C37.6508 29.18 37.6508 29.13 37.5008 29.06L37.5408 28.93L38.0708 29.22L38.1108 29.09C38.5308 29.24 38.3108 28.73 38.4708 28.61C38.6208 28.39 38.5008 27.91 38.9008 27.94L39.0008 27.62L38.8208 27.52C39.0508 27.45 39.3008 27.39 39.3708 27.14L39.4308 26.95C39.4508 26.83 39.5308 26.77 39.6908 26.79C39.4308 26.19 40.3408 26.48 39.9808 25.89L40.0208 25.76C40.2408 25.87 40.2508 25.77 40.2608 25.67C40.6308 25.73 40.5308 25.32 40.6508 25.13C40.6508 25.09 40.6508 25.04 40.4808 24.96C40.4808 24.49 41.5308 24.54 40.7808 24C41.0208 24.13 41.0608 24.06 41.3608 24.24L41.4608 23.92C41.4108 23.49 42.0208 23.55 41.4908 23.11C42.0308 23.37 42.2008 22.98 42.3008 22.58C42.7208 22.78 42.4708 22.3 42.6208 22.23C42.6708 22.13 42.6408 22.01 42.5108 21.87C42.8008 22.01 42.6808 21.8 42.5708 21.68C43.1008 22.04 42.9408 21.71 43.0208 21.62C42.7608 21.2 43.5608 21.47 43.4408 20.94C43.0108 20.62 42.5108 20.61 42.5308 20.45C42.8208 20.41 43.4108 20.89 43.4808 20.81C43.8608 20.65 44.0308 20.29 44.1708 19.91C44.1708 19.77 44.4208 19.88 44.4308 19.75C44.8908 19.81 44.6708 19.2 44.8608 19C44.8608 18.95 44.8608 18.91 44.7008 18.84C45.1908 18.97 45.1808 18.6 45.2608 18.31L45.2908 18.2C45.7508 18.42 46.2308 18.67 46.7108 19.11L46.8608 18.92C47.1708 18.98 47.2908 19.67 47.7308 19.33C47.7008 19.83 48.5208 19.99 48.7408 20.24L49.6508 21.12L49.8208 20.95L49.9008 21.03C49.5408 21.62 50.4808 21.13 50.5008 21.64C50.7608 21.7 50.7608 22.35 51.1908 22.02C51.5708 22.39 51.8508 22.94 52.3708 22.99L52.4408 23.07L52.9208 23.65C53.3608 23.94 53.4608 24.84 54.0908 24.77L54.6208 25.51C54.7508 25.9 55.0608 25.99 55.3308 26.14C55.0808 26.32 55.2308 26.55 55.5008 26.41C55.5108 26.62 55.8708 27.19 56.0508 27.31C56.0908 27.36 56.1508 27.4 56.3108 27.28C56.4208 27.45 56.2708 27.57 55.9508 27.61C56.0708 27.83 56.4708 27.68 56.4708 28.05L56.6808 27.93L56.7308 28.02C56.4908 28.17 56.5808 28.29 56.6708 28.42C56.9908 28.7 56.8808 29.5 57.4608 29.46C57.8308 30.26 57.9708 30.43 58.4008 31.04L58.4408 31.14C58.4808 31.52 58.7308 31.67 58.9608 31.87C58.7908 31.95 58.7308 32.04 58.8008 32.15C59.0508 32.42 58.7808 33.11 59.3408 33.11C59.4208 33.39 59.4908 33.66 59.5608 33.94C59.7308 34.6 59.8508 35.27 59.9508 35.94C59.9208 36.15 60.2508 36.14 60.2508 36.34C60.1908 36.86 60.0108 37.08 60.3608 37.53L60.3708 37.64C60.3908 37.93 60.3908 38.22 60.4108 38.51V38.62C60.5708 38.99 60.0908 39.61 60.6308 39.82L60.6108 40.15L60.5608 40.81C60.4308 41.42 60.3208 43.34 60.0208 43.94L59.9708 44.15C59.9408 44.88 59.1908 45.65 59.5308 46.33C59.5008 46.54 59.1908 46.46 59.1408 46.66C58.9108 47.24 58.6508 47.81 58.3808 48.37C57.9308 48.85 58.2608 49.37 57.8608 49.85L57.5708 50.33C57.4108 50.58 57.2608 50.84 57.0908 51.08C56.8308 51.77 55.8608 52.29 55.9708 53.04C54.9308 54.03 54.0308 55.36 53.2508 56.38C52.9708 56.87 52.0408 57.07 52.1408 57.71C51.4008 57.64 51.3708 58.5 50.8408 58.47C50.5708 58.88 49.6908 58.95 49.8008 59.55C49.5808 59.88 49.2608 59.39 49.3308 59.88C48.2708 60.7 46.8408 61.37 46.0108 61.94C45.8608 62.37 45.3308 62.13 44.8908 62.53L45.0008 62.74C44.5208 62.98 44.0308 63.22 43.5408 63.44C42.1108 64.16 41.3708 64.67 39.5908 64.89Z" fill="white"/>
<path fill-rule="evenodd" clip-rule="evenodd" d="M15.9305 38.43C15.9005 38.44 15.8805 38.41 15.8505 38.36C15.8305 38.41 15.8405 38.44 15.9305 38.43Z" fill="white"/>
</svg>
