<svg width="24" height="24" viewBox="0 0 24 24" fill="none" xmlns="http://www.w3.org/2000/svg">
<g clip-path="url(#clip0)">
<path d="M13.5036 20.9966C7.7067 20.9966 3.00737 16.2973 3.00737 10.5004C3.00737 4.7035 7.70665 0.00427246 13.5036 0.00427246C19.3005 0.00427246 23.9998 4.70355 23.9998 10.5005C23.9998 16.2974 19.3004 20.9966 13.5036 20.9966ZM13.5036 3.0032C9.36292 3.0032 6.0063 6.35982 6.0063 10.5005C6.0063 14.6411 9.36292 17.9977 13.5036 17.9977C17.6442 17.9977 21.0008 14.6411 21.0008 10.5005C21.0008 6.35982 17.6442 3.0032 13.5036 3.0032Z" fill="black"/>
<path d="M1.50802 23.9955C1.10944 23.9978 0.72637 23.8413 0.443408 23.5607C-0.144584 22.9775 -0.14846 22.0281 0.434725 21.4401C0.437619 21.4372 0.440514 21.4343 0.443408 21.4314L6.08135 15.7935C6.69001 15.2055 7.66009 15.2223 8.24808 15.831C8.83607 16.4397 8.81928 17.4097 8.21061 17.9977L2.57262 23.5607C2.28966 23.8413 1.90659 23.9978 1.50802 23.9955Z" fill="black"/>
</g>
<defs>
<clipPath id="clip0">
<rect width="24" height="24" fill="white"/>
</clipPath>
</defs>
</svg>
