<svg width="120" height="99" viewBox="0 0 120 99" fill="none" xmlns="http://www.w3.org/2000/svg">
<path d="M25.1242 14.7488C25.3138 13.9344 25.3361 15.0315 25.4922 14.1154C25.8714 12.4867 26.0721 12.9504 27.6221 12.4528C28.4808 12.5885 29.4621 13.1427 29.161 13.5838C29.2725 15.1673 29.1164 13.6517 29.1387 15.1559C29.2502 15.5292 29.0272 16.0042 29.2502 16.7394C29.3617 17.1126 29.0607 17.5538 29.2725 18.2324C29.674 18.108 29.3841 18.6056 29.4956 18.9676C29.1276 20.6415 29.4733 21.7499 29.2837 23.7745C29.3952 24.1477 29.1053 24.6341 29.6071 24.8264C29.8301 25.5615 29.5513 26.0592 29.6628 26.4324C29.529 27.2242 29.7409 27.9141 29.9639 28.6493C30.0754 29.0225 30.0754 29.0225 29.7855 29.5089C29.0384 29.7464 27.9009 30.1083 27.1538 30.3458C26.8081 30.4589 26.4066 30.5834 26.4066 30.5834C25.3361 29.769 25.3361 28.5475 25.0127 27.4956C24.8008 26.8057 25.0685 26.2628 24.8566 25.5728C24.8231 24.0233 24.3994 22.881 24.7228 21.2749C24.589 20.8564 24.4997 20.5397 24.667 19.6688C24.5667 19.3521 24.812 18.5265 24.5778 17.7347C22.9497 16.7507 21.9795 16.6489 20.1507 17.6329C17.2737 19.2956 15.7236 21.4106 14.4747 24.0572C14.1513 24.6228 14.2628 24.996 13.9171 25.0978C13.616 25.5389 13.7275 25.9121 13.4264 26.3533C12.6012 28.9886 11.8206 30.7304 11.6868 33.558C11.5418 36.1481 11.553 39.8466 12.3113 42.3236C12.5566 44.563 12.9358 46.4066 14.6977 47.8091C15.9801 49.3134 17.5747 50.4218 19.7381 50.4897C21.0986 50.8064 22.4702 50.7837 23.9533 50.3087C25.1577 49.9242 26.1836 49.2003 27.5218 48.024C30.2873 45.9881 31.3355 43.2849 32.1161 40.3216C32.4061 39.824 32.3057 39.5073 32.1942 39.1453C31.8485 38.0369 32.4953 37.4827 33.3539 37.2113C33.6996 37.0982 34.4356 36.8719 34.9374 37.0529C34.9374 37.0529 35.3389 36.9285 35.7961 37.1886C36.3314 37.4827 36.4206 38.2066 36.8666 38.4102C37.0897 39.1453 37.8814 39.6543 37.7587 40.5026C37.413 41.0116 37.2235 41.8259 37.0897 42.6176C36.1975 46.4292 34.6698 49.2229 31.5586 51.3719C29.1499 53.3512 26.3509 53.8376 23.0278 54.0751C20.9871 54.3805 19.1694 53.7923 17.2402 53.2494C15.4114 52.616 13.7833 51.632 12.3001 50.8855C10.6163 49.5057 8.69824 47.5716 7.69462 45.5244C7.37123 44.4725 6.53487 43.0022 6.31185 42.267C5.16326 39.971 5.0852 35.8314 5.06289 33.1169C5.67622 29.3958 6.45682 27.473 7.9734 24.2156C8.83206 22.7226 9.6015 21.3314 10.8951 19.8158C11.7983 18.6622 12.4451 18.108 13.4376 17.0448C14.352 15.9477 16.3035 15.7328 17.0952 15.4726C17.8424 15.2351 18.701 15.3708 19.437 15.1333C21.132 14.941 22.3921 14.9524 23.8195 15.303C24.2767 15.5631 24.6782 15.4387 25.1131 15.6423C25.0573 15.3482 25.2246 15.0655 25.1242 14.7488Z" fill="#2C1D0E"/>
<path d="M63.4294 38.7156C63.842 38.0031 64.6114 37.4715 64.7452 36.8494C66.6298 32.7777 66.9198 29.2262 66.273 25.0866L65.7823 23.5031C65.7823 23.5031 65.4143 23.3335 65.3363 23.062C65.2582 22.8019 64.9683 22.8924 64.6783 22.9829C62.7938 23.0055 60.753 22.4965 58.9242 21.6256C58.1882 21.275 57.1735 21.0262 56.6382 20.3249C56.1141 19.6237 55.8241 19.7142 55.5788 18.9224C55.2108 18.7528 55.4115 18.3908 55.2554 17.8706C55.0881 17.339 55.5788 16.8979 56.0695 16.4568C56.6382 16.2758 57.1288 15.8347 57.7868 15.9139C59.1138 15.9591 60.9426 15.5519 61.6229 16.1401C62.4815 15.8686 63.2956 16.4794 64.0316 16.8187C64.0316 16.8187 64.1096 17.0788 64.3995 16.9884C64.6895 16.8979 64.7675 17.158 65.1355 17.339C65.2136 17.5991 65.5816 17.7801 65.9496 17.9497C66.3176 18.1194 66.5629 18.9111 66.8417 18.8206C66.9198 19.0808 67.5219 19.4088 67.6892 19.9404L68.2022 19.782C69.2839 19.4427 70.3098 17.667 70.6666 16.5699C70.5886 16.3097 70.9566 15.9026 70.8785 15.6311C71.2019 15.4728 71.7148 15.4841 71.871 16.0043C72.1609 15.9139 72.1275 16.8526 72.0159 17.2937C72.1832 17.8253 71.8152 17.6444 71.9713 18.1759L71.7706 18.5266C71.358 19.2391 71.4472 19.4993 70.9566 19.9404C70.5663 20.6982 69.6407 21.5691 69.0385 21.8744C68.9939 22.7567 69.3619 22.9263 69.6072 23.718C69.7745 24.2496 70.0198 24.4532 69.8972 25.0753L70.0644 25.6069C70.3098 26.3986 70.5551 27.1903 70.5105 28.0726C70.6778 28.6041 70.4659 28.9548 70.544 29.2149L70.8339 29.1244C70.8673 30.2668 71.1127 31.0585 71.0792 31.9407C71.0792 31.9407 70.8785 32.2913 71.2465 32.4723C71.3246 32.7324 71.2019 33.3545 71.2799 33.6147C71.0346 34.8475 70.7893 36.0803 70.176 37.1435C69.6407 38.4668 69.0274 39.53 68.336 40.333C68.1353 40.6837 67.5554 40.8646 67.2766 40.9551C66.7079 41.1361 66.4179 41.2266 65.9273 41.6677C65.0686 41.9391 64.21 42.2106 63.2733 42.2219C62.2473 41.9617 61.2326 41.7129 60.4966 41.3623C59.0246 40.6723 57.7645 39.6318 57.0731 38.399L55.9357 34.7118C55.9022 33.5694 55.7795 32.1556 55.7349 31.0133L55.5677 30.4817C54.9989 30.6626 55.077 30.9228 54.5083 31.1037C54.3076 31.4544 54.0176 31.5448 53.8169 31.9068C53.527 31.9973 53.2482 32.0877 53.0363 32.4384C53.7723 34.8136 53.5604 35.1642 53.7277 35.6845C53.8503 37.0869 54.2518 38.4103 54.0845 39.9032C54.2518 40.4348 53.5493 41.2266 53.9953 41.6677C54.1626 42.1992 53.75 42.9005 53.2593 43.3529C53.1367 43.975 52.9359 44.3256 52.7241 44.6762C52.2334 45.1173 50.3934 46.2823 49.8247 46.4633L49.5348 46.5538C47.7394 46.8365 46.2228 47.0288 44.5501 46.6895C42.8774 46.3502 41.6953 45.5698 40.714 44.4387C40.268 43.9976 39.9 43.8279 39.4539 43.3982C39.164 43.4886 37.9931 40.6837 38.0711 40.9438C37.1902 42.3802 33.7556 29.9953 33.0753 27.7785C32.7519 26.7266 32.3059 24.2609 31.9825 23.2091C31.581 21.8971 31.5364 20.7434 31.4138 19.3409C31.135 17.4068 31.6256 16.9657 31.3357 15.0316C31.3357 13.0071 31.6256 10.892 32.0048 9.03713C32.1721 7.54416 33.198 5.76843 33.644 4.17366C34.1012 2.5902 34.67 2.39792 35.5732 1.25557C35.774 0.90495 36.5546 0.362051 36.8445 0.271568C37.0452 -0.0790551 37.9373 0.158463 39.4539 -0.0338135L40.9705 0.407292C41.3385 0.576949 42.0745 0.927571 42.2306 1.44785C42.6767 1.88896 43.2119 2.57889 43.0893 3.20096C43.3346 3.99269 44.2267 4.86359 44.104 5.48567C43.7806 6.45836 44.3828 7.41975 44.3494 8.30196C44.0594 10.417 43.736 11.3897 43.6468 13.1541C43.8922 13.9459 43.2119 14.7941 43.1673 15.6763C43.29 17.0788 42.3087 17.8027 42.5205 19.4653C41.7399 23.4692 40.1676 25.4712 38.7625 28.0612C38.5618 28.4119 41.4835 34.6552 41.5727 34.9153C42.5094 36.9286 43.368 38.6817 44.7843 40.2539C45.3195 40.9551 45.8437 41.6563 46.7358 42.5272C46.8138 42.7874 47.1818 42.9684 47.5498 43.138C48.1185 42.957 48.2412 42.335 48.4531 41.9843C48.9103 40.4009 49.0664 38.8966 48.8657 37.2227L48.4196 34.757C48.2523 34.2254 48.1743 33.9653 47.7282 33.5355C47.3602 33.3658 47.0703 33.4563 46.7023 33.2753C46.1336 33.4563 45.3976 33.117 45.0296 32.936C44.3717 32.8569 43.9256 32.4157 43.8476 32.1556C43.4796 31.986 42.7436 30.4251 42.6655 30.1537C42.2641 29.8709 41.3719 27.3826 41.8403 24.6342C41.963 24.0121 42.922 22.8471 43.1227 22.6662C43.8141 22.0441 43.7026 21.5012 44.5612 21.2298C45.3418 20.6982 45.9886 20.7773 46.7246 21.1166C47.4606 21.456 48.5646 21.9762 49.3006 22.3269C49.6686 22.4965 49.9585 23.0394 50.2819 23.4579C51.2075 24.6116 52.8579 29.3506 52.8133 30.2328C53.3708 29.9953 55.8353 28.6381 55.6569 27.2469C55.7015 26.3647 55.6569 25.2223 55.9914 24.2496C56.1141 23.6276 56.5267 22.9263 56.6493 22.3042C56.8501 21.9536 57.0619 21.5917 57.3407 21.5012C58.2774 21.4899 59.2476 22.1685 59.1138 22.7906C59.5264 23.5258 59.5152 24.2836 59.4706 25.1658C59.348 25.7878 59.1472 26.1385 58.9577 26.7719C59.1472 27.179 59.0023 27.3374 59.1696 27.8577C59.3703 29.5316 59.4929 30.9341 60.2624 32.4271L61.0764 35.0624C61.7678 36.2839 62.3812 37.2566 63.0725 38.4781L63.4294 38.7156ZM37.9485 23.899C38.1157 22.406 38.9298 21.9762 39.0079 20.2118C40.0449 16.2419 39.6769 10.3378 39.5543 6.09643C39.6769 5.47436 39.4651 4.79573 39.2197 4.004C38.8294 2.73724 37.8816 0.497776 36.4542 2.16041C36.2535 2.51103 36.3315 2.78248 36.1308 3.1331C35.8074 4.1058 36.0081 3.75517 35.7628 4.98801C35.5621 5.33863 35.7182 5.87022 35.5175 6.22084C35.4283 7.98527 35.0603 9.84017 34.9711 11.5933C35.0937 12.9958 35.1272 14.1494 35.1718 15.2918L35.4952 16.3437C35.5286 17.486 35.1718 17.3164 35.4952 18.3682L35.5732 18.6284C35.852 20.5624 36.6661 23.1978 37.2348 25.0414C37.2348 25.0414 37.3128 25.3015 37.6028 25.211C37.8816 25.1318 38.0265 24.1591 37.9485 23.899ZM47.0592 31.4657L46.8919 30.9341C46.7246 30.4025 45.4757 25.3128 45.0296 24.8717C44.9515 24.6116 44.8623 24.3401 44.4943 24.1705C44.4163 23.9103 44.0483 23.7294 43.8364 24.0913C43.5465 24.1818 43.7806 25.9575 43.8699 26.2176C44.1932 27.2695 45.3753 31.1151 46.7692 31.5448L47.0592 31.4657ZM63.8085 19.5671C62.9387 18.798 61.5448 17.9158 60.8088 17.5652C60.1509 17.486 59.426 17.1354 58.7681 17.0562C58.4001 16.8866 58.1102 16.977 57.9094 17.3277C57.4188 17.7688 57.4968 18.0402 57.9429 18.47C58.021 18.7302 58.5562 19.4314 58.9242 19.6011L59.9725 19.963C60.7865 20.5737 62.0355 20.7547 62.9722 20.7434C63.2621 20.6529 63.9089 20.7321 64.4888 20.5511C64.3103 20.1553 63.9869 19.7368 63.8085 19.5671Z" fill="#2C1D0E"/>
<path d="M82.4423 9.74965C81.171 9.27461 80.7361 9.48951 80.1005 10.417C79.1303 10.892 78.4501 11.7177 77.781 13.1541C77.2011 14.0476 76.8443 14.7149 76.822 15.8346C76.1975 18.2211 77.3795 20.8225 79.8105 21.2184C79.989 21.6143 80.7584 21.8518 80.5354 21.3541C81.3494 20.9583 82.1189 21.1845 82.8326 21.3202C83.6912 20.8904 84.3157 21.0827 85.0852 21.3202C85.4978 22.225 84.8621 22.2816 85.4643 23.5823C85.442 24.6907 84.9848 25.7199 84.8621 27.1903C84.5387 30.5382 83.4013 32.8116 82.1077 34.6099C81.8624 35.2207 80.1897 36.3517 79.1415 36.3743C78.1713 36.8494 77.3461 35.9106 76.1863 35.9898C75.573 35.7975 71.1013 32.246 70.9787 28.9321C70.8114 27.4165 70.4991 27.0206 71.224 25.9914C72.5175 24.193 74.2906 25.8896 74.0007 27.0093C73.8 27.7219 73.064 28.8755 73.2758 29.328C74.5694 31.9972 76.7328 33.9992 77.1677 33.7843C78.5616 32.9134 79.5541 29.3053 79.8328 24.9961L79.2195 24.8038C76.3871 24.9735 74.6363 23.7519 73.2424 21.8631C71.2128 18.5718 71.3801 15.1786 73.2312 11.695C73.432 10.9825 74.2237 10.1003 74.6586 9.88537C76.1863 8.15488 77.4799 7.5215 79.3199 6.61667C80.0447 6.75239 80.4796 6.53749 80.9034 6.32259L81.9851 5.79101C83.2117 6.16425 84.0035 5.28204 84.8733 4.86355L85.4085 4.5921C86.0219 4.78438 86.8694 5.463 87.0478 5.87018C88.1852 6.89943 89.1331 7.54412 89.7241 8.84482C90.8727 11.3444 90.6608 14.9411 91.5976 16.9883C92.0102 17.8931 93.694 24.4758 94.062 25.2675C94.4189 24.6002 94.7869 22.9489 95.021 21.8518C95.4336 19.8725 95.4671 19.4879 96.0916 16.6716C96.2923 15.9591 96.2031 14.5905 97.0506 14.8506L97.2067 14.8959C98.3553 15.2465 97.6974 17.7122 97.5636 18.5831C97.0394 21.4785 97.4074 20.9922 95.6009 27.8802C95.389 28.7172 95.4225 30.2328 95.6901 30.8323C95.8685 31.2281 95.6901 31.9972 95.6901 31.9972C95.8016 33.411 95.4336 33.1622 96.0247 34.4629C95.9578 35.4808 95.5452 35.4356 95.7013 36.9512C95.2664 37.2905 94.7869 37.709 94.1847 37.6977L92.2778 37.7203C91.5753 37.3357 90.7612 36.5666 89.713 36.5892C88.9547 36.2273 88.4975 35.6618 88.754 34.4855C89.2446 33.3884 89.7464 32.8907 89.3784 32.099C88.9435 31.1489 88.7763 29.6333 88.6201 28.1178C87.0813 23.6049 85.8211 18.2211 83.6243 13.4255C83.2563 12.6225 83.2786 11.5141 82.866 10.6092L82.4423 9.74965Z" fill="#2C1D0E"/>
<path d="M13.1365 84.1043C13.3595 84.8395 13.8725 85.4842 14.207 86.5473L15.1326 89.5446C15.6567 90.2458 17.1398 95.0415 17.3628 95.7766C17.5301 96.3082 17.4632 97.1339 17.6305 97.6542L17.2067 98.3102L15.3221 98.0953C15.1772 98.4346 15.2552 98.6947 15.3221 98.9096L15.0322 99.0001C14.6865 98.8757 14.1066 99.0567 13.7944 98.8757C13.1365 98.7965 12.4897 98.7173 12.2555 98.7852C11.5976 98.706 11.2519 98.5816 10.8839 98.412C10.5717 98.2197 10.2037 98.05 9.92487 98.1405C9.55688 97.9709 9.55688 97.9709 9.48997 97.756L6.36759 87.6444C6.26722 86.2872 5.78771 84.7603 5.40857 83.4935C5.01827 82.2268 4.91791 80.8695 4.52761 79.6027C4.21537 78.6074 4.25997 77.7252 4.03695 76.9787C3.47938 75.1917 3.17829 73.382 2.91066 71.4932C2.52036 70.2264 2.49806 69.1406 2.10776 67.8738C1.84013 65.9963 1.30486 64.2545 1.03723 62.377C0.814199 61.6418 0.568869 60.8501 0.490809 59.7756C0.178571 58.769 0.0782084 57.423 0.0559057 56.3259C-0.022154 56.0658 -0.022154 56.0658 0.178571 55.7038C0.379296 55.3532 0.535415 55.0139 1.03723 54.618C1.67286 54.652 1.90703 54.5728 2.47575 54.3918C3.27865 54.143 4.13731 53.8602 5.01827 53.8716C5.95498 53.8602 6.92515 54.1317 7.78381 54.0978C9.3227 54.1883 10.9173 54.4936 12.7462 54.4936C13.7721 54.7538 14.6308 54.7085 15.679 55.2401C16.7607 55.7038 17.7308 55.9753 18.8125 56.439C20.2064 57.095 20.9647 58.5314 21.5892 59.719L21.7565 60.2506C22.3698 62.2526 22.7824 64.3789 22.5371 66.6523C22.3252 67.8173 22.4367 69.1745 22.1691 70.3508C21.8792 70.4413 21.9684 70.7015 22.0464 70.9729C21.4331 72.8504 20.5298 74.8071 19.2586 76.5942C19.2586 76.5942 19.0913 76.8769 18.8125 76.9674C18.8906 77.2276 18.6118 77.318 18.3999 77.68C17.8312 78.6753 16.9056 79.5462 15.9243 80.4284C15.5563 81.0618 14.7757 81.6047 14.43 82.2946C14.4969 82.5095 14.207 82.6 13.9282 82.6905C13.7275 83.0411 13.5714 83.3804 13.0027 83.5614L13.1365 84.1043ZM8.15181 58.1582L8.0849 57.9433C7.42697 57.8641 7.12588 57.6719 6.46795 57.5927C5.81002 57.5135 5.58699 57.5814 4.95136 57.5588C4.38264 57.7397 3.78047 57.6379 3.28981 58.0903L4.851 63.1461C4.99597 63.6211 5.44202 64.0509 5.53123 64.3224C5.75426 65.0576 5.92153 65.5891 6.35643 65.9737L7.83957 70.7693C8.5198 71.9456 8.84319 72.9975 9.23349 74.2642L9.52343 74.4L10.0921 74.219C10.5159 73.563 11.0289 73.4046 11.2407 73.0427C12.1663 72.1718 13.025 71.086 13.6606 70.0794C15.1549 68.2132 16.0581 66.2565 16.3704 64.1867C16.5822 63.0217 16.4707 61.6644 16.0804 60.3977C15.5675 59.753 15.1772 59.3006 14.4412 58.9499C14.1512 59.0404 14.0955 58.8255 13.8056 58.916L8.95471 57.9094L8.15181 58.1582Z" fill="#2C1D0E"/>
<path d="M32.4062 73.8682C32.4508 73.2801 33.0753 72.6354 33.7221 72.5902L34.2016 72.33C34.8707 71.6514 35.4729 71.6401 36.3427 71.4818L36.8779 71.199C37.4132 70.9162 37.8369 71.2442 38.4949 71.199C39.6658 71.9342 40.5467 73.1444 40.6917 75.0672C41.1935 74.8636 41.3719 74.2641 41.6953 73.7099C42.7436 72.0247 41.9741 69.0048 41.9295 67.1499C41.7288 66.0754 41.4723 65.0235 41.3719 64.1413C41.4165 63.5531 40.8813 63.8472 40.2791 63.293L40.569 62.5126L40.2233 61.8227C39.978 61.3363 39.9446 60.7255 40.2568 59.9904L40.1341 59.7415C40.8813 59.3457 42.0633 59.0177 42.7101 58.9724L43.4572 58.5766C44.2936 58.373 44.8066 58.7236 45.3195 59.0629C45.4199 59.2552 46.3343 60.013 46.1893 60.4089C46.4347 61.7095 46.9922 62.2864 46.8919 63.5871C46.903 64.1413 46.9365 64.6276 47.0034 65.0235C47.5944 68.6428 48.888 73.8004 49.2337 75.8589L49.4567 76.3C49.702 76.7863 49.4121 77.5668 49.6351 78.0079C49.8804 78.4942 49.8358 79.0824 49.8693 79.6931C49.9919 79.9419 49.847 80.3265 50.215 80.3831C50.5941 79.9306 50.6164 79.2973 50.9733 78.7883C51.0179 78.2001 51.8431 72.5676 51.8654 71.9342C51.9546 71.5722 51.7762 70.6674 52.0549 69.8983C52.1442 69.5364 52.1665 68.7786 52.9917 68.9482C53.2147 69.3893 53.5046 69.8531 53.3708 70.2376C53.4489 71.0746 53.3708 71.7306 53.4489 72.5676C53.1812 72.7146 53.1812 76.7637 53.1812 76.7637C53.2816 77.6459 52.8132 79.2746 52.8467 79.8741C52.6571 80.8468 52.6348 81.4802 52.3783 82.1814L51.5531 84.4435L51.2967 84.6245C50.5495 85.0203 49.6351 85.2126 48.7764 85.371C47.6948 85.0882 47.1818 84.7376 46.7134 83.7988L46.3678 83.1089C45.5202 82.0683 45.0519 81.1409 44.9961 79.6705C44.6616 78.0418 44.249 76.956 43.3569 72.8729C42.9666 74.6487 42.6766 76.3679 41.1378 77.1935C41.1266 77.4423 41.2939 78.0418 41.305 78.4716C41.6061 80.4283 41.3942 79.7384 41.673 81.6385C41.7845 83.0749 41.2158 87.0675 40.5467 88.3003C39.9111 89.5784 39.387 90.4267 38.1157 91.1166C37.324 91.5464 36.3092 92.0893 35.4729 92.2929L34.3131 91.9875C33.6106 91.8066 33.1199 91.7613 32.3951 91.5238C31.6479 91.3655 31.135 91.0148 30.5216 90.4719C29.7522 89.3296 29.6518 90.0648 28.8378 88.4474C28.5925 87.961 28.5367 87.4294 27.7561 87.2259L27.3101 86.3436C26.7748 85.2578 26.1169 81.9326 26.0611 80.4622C25.6485 75.4404 25.4812 74.0379 24.9794 69.5024C24.9237 68.0321 24.4218 66.4939 23.6189 65.4307C23.7305 65.114 23.8754 64.7294 24.1431 64.5824C24.288 64.1978 24.5557 64.0508 24.8902 64.1865C25.2805 64.2883 26.7079 63.5192 26.7079 63.5192C28.2022 63.2704 28.927 64.0621 29.4177 65.0461C29.6407 65.4872 29.4957 65.8831 29.6184 66.1206L29.7411 66.3694C30.2094 67.3082 30.2875 68.1339 30.4882 69.2084C30.8562 69.9435 30.8785 70.8031 31.0792 71.8889C31.2799 72.9634 31.4807 74.0492 31.8598 75.3386C31.8598 75.2142 32.094 75.2707 31.9713 75.0219L32.4062 73.8682ZM32.2278 78.7657C32.462 80.4509 32.6404 82.1588 32.8523 83.7988L33.0976 84.2851C33.4433 84.9751 33.421 85.6085 33.3987 86.2418C33.5994 87.3163 33.6775 88.1533 34.1458 89.0808L34.5138 89.8159C35.0491 89.5332 35.5732 89.2391 35.6624 88.8772C36.075 88.3456 36.4765 87.814 36.733 87.1127C37.5582 84.8507 37.2682 82.6451 37.2236 80.5414C37.1902 79.9306 37.0898 79.7384 36.8445 79.252C36.2423 79.2633 35.4952 79.105 35.1049 79.0032C33.7555 78.8561 32.7296 78.1662 32.1497 76.9786L32.0494 76.7863C31.7818 76.9334 32.0382 77.0352 32.0382 77.0352C32.0271 77.6912 32.2724 78.1775 32.2278 78.7657ZM34.1681 74.4112C34.5027 74.5469 34.5361 75.1463 34.7592 75.5874C35.0045 76.0738 35.4617 76.4583 35.6847 76.8994L35.9301 77.3858C36.1977 77.2388 36.3204 77.4876 36.4653 77.103C36.2869 75.3952 35.4283 74.3546 33.9563 73.9587L34.1681 74.4112Z" fill="#2C1D0E"/>
<path d="M61.3217 42.6742C62.2808 41.8599 63.9646 40.1633 65.1132 39.6317C66.1726 38.8965 68.1575 38.0256 69.2615 39.2132C69.9752 39.4847 70.1759 42.0635 69.6853 43.2058C69.6184 43.3528 68.8266 43.7939 68.5478 43.9184C68.1241 44.3029 67.5331 44.45 67.0536 44.8571C65.9496 45.4905 66.3622 45.3661 65.5816 45.8524C64.3549 46.7912 64.5779 45.9542 63.6189 46.7686C63.3847 47.1192 63.1617 47.221 63.1617 47.221C62.0912 47.7752 61.2214 48.7931 60.5077 49.5509C60.2401 49.6754 60.2401 49.6754 59.9724 49.9807L59.6825 50.0599C55.7461 53.6566 60.5746 55.9639 60.162 55.4889L61.5894 57.2533C61.7009 57.5022 62.2362 57.9885 62.6153 58.1129C64.9125 59.4702 66.6298 59.3344 67.5331 60.9745C67.4215 61.3251 68.1129 61.5513 68.2244 61.8001C68.5813 62.4787 69.1389 63.4401 69.3284 63.8925C69.3061 63.5419 71.213 66.4148 71.2576 71.4931L71.3245 73.1558C71.358 73.382 71.3022 73.71 71.581 74.185C71.6925 74.4338 70.9119 75.35 71.0123 75.5988C71.0123 75.5988 71.1238 75.8476 71.0123 76.2096L71.3691 76.8882C71.3691 76.8882 71.4807 77.137 71.2576 77.2388C71.3468 78.0419 71.0792 78.777 70.8339 79.433C70.9454 79.6819 70.6666 79.8176 70.6666 79.8176C70.5105 80.8016 70.2652 81.4576 69.9418 82.2154C69.6518 82.894 68.7263 83.6292 67.8453 83.7423C66.942 83.9233 66.2841 83.9233 65.247 83.7988C64.8679 83.6744 64.2323 83.731 63.9535 83.8554C63.0837 83.9572 62.1023 84.1155 61.5225 83.5387C61.2548 83.6631 61.1433 83.4143 60.8645 83.5387L59.3591 82.4868C57.8983 81.107 56.85 79.5914 55.9914 77.9288C55.1885 76.5376 54.7424 75.0559 54.4859 73.4159C53.9618 71.9003 53.75 70.2377 53.5492 68.575C53.6719 67.6702 53.75 66.4826 53.4935 65.4421C53.4043 64.0283 53.5827 62.49 54.0733 61.0423C54.3633 60.3637 54.5306 59.3684 55.1439 58.8368C56.3817 58.5088 57.2515 59.0064 58.2663 59.0743C58.2663 59.0743 58.6454 59.1987 58.7569 59.4475C59.4706 59.4249 59.571 59.6738 59.8275 60.1035C59.939 60.3524 59.6602 60.4881 59.7717 60.7369C60.017 62.5014 59.4372 62.8294 59.4483 64.0509C59.5375 64.2545 59.3368 64.7069 59.1807 65.0914C59.2922 65.3403 59.5598 65.2159 59.7271 65.4421C59.5375 65.7701 59.5487 66.3808 59.8163 66.8559C59.7382 67.4327 59.9055 68.2697 60.162 68.6995L60.2735 68.9483C60.2512 70.1133 60.9091 70.7127 60.8422 71.9003C61.0987 72.3301 61.3106 72.8278 61.3998 73.6421C61.6786 74.1171 61.8236 74.9089 62.2027 75.6327C62.5595 76.3114 62.9498 78.8675 63.7527 79.6479C63.8643 79.8968 63.7304 80.2021 63.842 80.451C63.842 80.451 64.2211 80.5754 64.3884 80.8016C64.656 80.0664 64.6783 79.5122 64.7898 79.1616C65.1021 76.1078 65.0128 71.708 64.3995 68.7786C63.9758 66.607 63.474 64.5372 62.3588 62.4448C61.5225 60.228 60.6973 59.6964 58.7569 57.932C53.9172 53.7584 56.0694 54.8103 56.2033 52.8649C56.259 52.2315 56.3148 51.7791 56.7943 51.3719C57.0062 51.0892 56.3371 51.2249 56.3928 50.8969C57.9317 45.2869 59.3033 44.8345 61.3217 42.6742Z" fill="#2C1D0E"/>
<path d="M83.1113 61.574C83.4123 60.0923 83.6354 58.5767 83.8584 57.0611C83.9253 56.0545 83.8807 55.0931 84.0814 54.324C84.5498 54.0073 84.2822 53.34 84.3825 53.0685C84.9624 50.4558 84.6613 50.0939 85.4196 47.8771C85.7764 46.7799 85.9326 46.09 86.4344 45.2417C86.8247 44.8911 86.847 44.3595 87.3153 44.2125C88.0959 43.2737 89.5902 43.0249 90.828 43.3868C91.419 43.6583 91.7313 44.4839 91.9543 45.4001C91.6644 45.4906 91.7536 45.7507 91.5194 45.8299C91.5194 45.8299 91.2852 45.8977 90.9841 45.7168C90.5715 45.615 90.5715 45.615 90.4935 45.3548C90.0363 45.5019 90.014 46.0335 89.8021 46.3841C89.8467 46.5424 89.7575 46.8591 89.6014 47.1419C88.7427 49.0307 88.5754 49.3135 87.8617 51.6887C87.8394 52.2203 87.6499 53.0346 87.2596 53.6114C86.8358 54.6746 86.479 55.7717 86.479 56.9819C86.5459 57.1968 86.7689 57.1177 86.7689 57.1177C87.0477 57.2081 87.1815 57.4457 87.5384 57.5701C88.0402 58.3957 87.8506 57.9886 88.4193 58.7916C89.4006 59.9226 90.5158 61.9472 91.5529 63.0556C92.4561 64.1527 93.9392 66.1094 94.731 65.4082C95.8127 64.0283 96.0915 58.6106 96.5487 56.8462C96.6936 56.5069 96.4595 56.3486 96.6156 55.8396C96.5487 55.6247 96.8163 55.2514 96.6825 54.833C96.7271 54.3579 97.0059 54.2674 97.307 54.4032C97.4519 54.8782 97.9314 55.1949 97.8311 55.9075C97.7865 56.1563 97.9537 56.9141 97.8645 57.6379C97.9761 58.4071 97.6973 62.196 97.3739 62.7729L97.5077 63.1914C97.5858 63.8587 97.5411 64.5147 97.2735 64.8879C96.7271 65.7588 96.7271 67.1952 96.2922 68.0322L96.3368 68.1906C95.8015 68.8805 95.244 69.5252 94.5526 69.7401C93.7831 70.5092 93.2813 70.4866 92.1216 70.3961C90.7723 70.3056 89.4229 69.5817 88.1071 67.9644C87.3042 67.003 86.7355 65.9737 86.1221 65.001C85.9326 64.5938 85.8545 64.3337 85.4196 63.9492L85.3081 63.5759C84.9178 63.9265 84.9624 64.0849 84.8843 64.6391C84.7059 65.6796 84.5163 66.494 84.3602 67.2292C84.271 67.953 84.3045 68.6882 84.416 69.6383C84.6948 70.939 85.0851 72.8391 85.375 74.1851C85.3415 74.8863 85.6761 75.7685 85.9437 76.4359C86.111 76.7865 83.5685 77.8836 83.312 77.68C83.022 77.7705 83.1113 77.861 82.8771 78.1098L82.7321 78.6753C82.5648 78.7319 82.4087 78.2568 82.1299 78.3473C81.7396 78.6979 81.7396 78.6979 81.0483 78.9241C80.2119 78.2681 79.5205 77.0353 78.673 76.3228C78.5169 75.2143 78.2827 73.8458 77.8032 72.4885C77.5356 71.414 77.491 70.4526 77.3348 69.3442C76.9892 67.1952 76.5877 65.4761 76.3201 63.4176C76.0524 62.7502 76.0078 61.7776 75.9186 61.1102C75.9521 60.409 75.4503 59.5833 75.4057 58.8482C75.1157 58.7124 74.5582 55.4777 74.5582 55.4777C74.1567 57.8642 74.2013 60.2167 73.7106 62.5127C73.5657 62.852 73.3203 63.1009 73.3538 63.6098C73.4207 63.8247 73.0973 65.0236 73.0527 65.2725C72.707 66.5958 73.0193 65.9737 72.5844 66.8107C72.3502 67.0595 72.4505 67.1952 71.9376 67.3649C71.7034 67.4328 71.4358 67.3536 71.2239 66.9012L71.0343 66.494C71.1347 65.9963 71.1793 65.7475 71.2127 65.4534C72.0937 61.5853 71.8149 61.5061 72.1829 59.244C72.4952 55.964 72.7851 53.0346 72.5621 49.8677C72.3056 49.2569 72.5174 48.4991 72.4728 47.7526C72.5732 47.255 72.5063 47.0514 72.7962 46.9609C72.7851 46.5085 75.9075 45.2191 76.1863 45.1286C76.5766 44.778 77.0895 44.6083 77.7809 44.3934C78.0151 44.3256 78.305 44.4613 78.4388 44.8798C78.9295 45.2417 79.0633 45.6715 79.264 46.1239C79.5763 46.9496 79.8328 47.5604 79.8774 48.5331C80.368 50.5237 80.658 52.2768 81.1598 54.3127C81.3828 55.455 81.6727 56.5748 81.8177 57.6832C82.1188 59.2666 82.4645 60.6013 82.8994 62.4336C83.0109 61.8907 83.1893 61.8454 83.1113 61.574Z" fill="#2C1D0E"/>
<path d="M120 48.3747C119.811 48.8271 119.811 51.4624 119.621 51.9148C119.699 52.978 119.432 53.8376 119.186 55.0591C119.454 55.6586 118.919 57.389 118.729 57.8528C118.863 58.1582 118.673 58.6106 118.484 59.0743C118.428 59.8321 118.428 59.8321 118.372 60.5899C118.183 61.0536 117.993 61.506 118.127 61.8114C118.506 62.6597 117.246 65.114 116.209 64.5712C116.209 64.5712 115.885 64.7295 115.752 64.4241C115.294 64.2771 114.826 64.1414 114.045 64.1527C113.722 64.311 113.12 63.8699 112.986 63.5645C112.852 63.2591 112.718 62.9651 112.718 62.9651C112.362 61.3024 111.826 60.1035 111.28 58.8933C111.146 58.5879 111.146 58.5879 111.012 58.2939C110.823 58.7576 110.823 58.7576 110.823 58.7576C110.767 59.5154 110.577 59.9791 110.388 60.4315C110.655 61.031 110.466 61.4947 110.276 61.9471C110.087 62.4109 110.031 63.1687 109.518 63.7794C108.113 65.9284 105.704 66.7314 103.262 65.7135C101.879 65.2837 100.006 63.6211 99.4706 62.4222C98.467 61.0762 97.731 58.1355 97.8425 56.6086C97.4076 53.8828 97.4857 53.4756 97.8425 50.7498C98.1325 48.7705 98.3555 47.5037 98.98 45.3774C99.1696 44.9137 100.14 43.4094 100.329 42.957C100.519 42.4932 102.136 41.1021 102.526 41.0908C103.028 41.0342 103.284 41.0229 103.619 40.8645C105.057 40.5365 106.429 40.661 107.299 41.7015C106.976 41.8599 106.34 42.3462 106.016 42.5046C105.693 42.6629 104.689 44.2464 104.823 44.5517C104.444 45.4679 103.775 46.4632 104.177 47.368C103.987 47.8318 103.853 48.5669 103.853 48.5669C103.284 49.9468 103.775 51.9035 103.53 53.125C103.664 53.4304 103.474 53.8828 103.284 54.3465C103.362 55.4097 103.396 57.2307 103.474 58.2826C103.742 58.882 104.02 59.4815 103.507 60.1035C104.188 61.6078 103.864 61.7662 104.734 62.8067C105.002 63.4062 106.44 63.0782 106.63 62.6258C107.143 62.015 107.332 61.5513 107.522 61.0989C108.146 58.9612 108.113 57.1402 108.459 54.4031C108.648 53.9394 108.425 52.5821 108.158 51.9827C108.347 51.5189 108.213 51.2249 108.213 51.2249C107.667 50.026 107.856 49.5622 107.778 48.4991C107.834 47.7413 107.555 47.1418 107.288 46.5311C106.886 45.6262 106.797 44.5744 106.396 43.6695C107.098 42.595 107.745 42.2783 108.86 42.1087C109.317 42.2557 109.641 42.0974 109.975 41.939C110.432 42.0861 111.224 42.0634 111.168 42.8326C112.228 43.4207 112.306 44.4839 112.718 45.3774C113.075 47.04 113.421 48.7027 113.778 50.3653C113.912 50.6707 114.045 50.9647 114.19 51.2701C115.004 53.0798 115.674 55.4437 116.443 57.1402C116.577 57.4456 116.711 57.7397 116.989 58.3391C117.346 57.7962 117.313 57.1402 117.424 56.6652C118.015 54.1769 118.015 51.2475 118.551 48.1824C118.417 47.877 119.186 47.3906 119.51 47.2323C119.666 47.1871 120.056 47.6169 120 48.3747Z" fill="#2C1D0E"/>
</svg>
