<svg width="250" height="244" viewBox="0 0 250 244" fill="none" xmlns="http://www.w3.org/2000/svg">
<path fill-rule="evenodd" clip-rule="evenodd" d="M229.089 93.2827C229.233 93.5281 229.451 93.7592 229.501 94.0226C230.16 97.3616 230.814 100.703 231.423 104.051C231.545 104.712 231.629 105.449 231.459 106.08C231.016 107.731 231.305 109.344 231.426 110.986C231.913 117.589 232.402 124.2 232.164 130.824C232.067 133.545 231.743 136.264 231.439 138.972C230.413 148.02 228.304 156.79 224.971 165.286C221.909 173.094 218.476 180.73 214.381 188.043C212.954 190.591 211.588 193.143 210.448 195.828C210.183 196.449 209.846 197.067 209.421 197.58C206.125 201.556 202.939 205.655 198.705 208.723C195.711 210.892 192.776 213.157 189.397 214.762C187.195 215.808 185.103 217.077 182.9 218.126C177.489 220.701 171.762 222.264 165.879 223.397C157.887 224.932 149.809 225.506 141.706 225.907C140.73 225.955 139.751 225.944 138.776 225.893C133.775 225.63 128.811 226.134 123.837 226.481C119.714 226.769 115.63 226.596 111.56 225.871C107.229 225.097 102.866 224.552 98.6083 223.343C95.1114 222.348 91.7179 221.1 88.4249 219.615C81.7437 216.597 74.9622 213.736 68.7997 209.715C64.9586 207.205 61.1987 204.547 57.5778 201.728C53.6503 198.669 49.8326 195.457 46.3288 191.895C40.8908 186.372 36.0534 180.401 32.1187 173.719C31.2275 172.21 30.171 170.796 29.1554 169.365C27.8548 167.532 26.4832 165.75 25.2051 163.908C23.8683 161.987 22.7535 159.943 22.1283 157.611C22.899 157.413 22.8933 158.072 23.1344 158.39C23.4291 158.776 23.6636 159.209 23.9302 159.617C24.1968 160.025 24.4595 160.436 24.7451 160.834C25.022 161.223 25.3264 161.594 25.6211 161.979C26.3635 161.57 25.934 161.106 25.794 160.744C24.155 156.462 22.5491 152.168 21.5074 147.692C21.3112 146.845 21.2124 145.975 21.0302 145.128C20.541 142.847 20.0339 140.57 19.5202 138.292C19.4798 138.109 19.3929 137.877 19.2505 137.783C17.8989 136.867 18.0645 135.438 17.9352 134.095C17.5284 129.995 17.8893 125.911 18.2031 121.838C18.3428 120.047 18.2635 118.361 17.701 116.673C17.4595 115.946 17.2982 115.195 17.0631 114.315C18.2052 114.244 17.924 115.584 18.707 115.65C18.8261 115.523 19.0329 115.408 19.0543 115.268C19.3216 113.34 19.562 111.408 19.8064 109.474C20.3078 105.514 20.8459 101.56 21.3031 97.596C21.8213 93.1093 23.0816 88.8222 24.6366 84.6077C24.9569 83.7321 25.4494 82.9178 25.8536 82.0947C26.7239 82.4099 26.5211 82.8935 26.3544 83.3491C24.4655 88.4781 23.0239 93.7341 22.0082 99.103C21.6102 101.203 21.3195 103.322 21.2911 105.501C21.8912 103.43 22.4914 101.359 23.0983 99.2883C24.5727 94.2376 26.0069 89.1798 27.5371 84.1458C29.7018 77.0223 32.7923 70.3098 36.8304 64.0429C37.6201 62.8166 38.5228 61.655 39.4475 60.5248C40.253 59.542 41.2244 58.7743 42.4073 58.1987C43.5261 57.653 44.5613 56.8759 45.5102 56.0595C47.2845 54.5391 48.9758 52.9214 50.6898 51.3319C51.3055 50.7594 52.1347 50.3278 52.1972 49.0524C51.7434 49.2751 51.4209 49.3799 51.1598 49.5677C47.9996 51.855 44.8251 54.126 41.7069 56.4689C40.3885 57.4609 39.1895 58.6184 37.9216 59.7157C37.4114 59.0238 38.0303 58.7855 38.2916 58.5186C39.9918 56.7718 41.6323 54.9526 43.4688 53.3537C47.4642 49.8757 50.9025 45.8936 54.2092 41.7954C57.6624 37.5132 61.9764 34.3837 67.0486 32.3613C71.4003 30.6246 75.8839 29.2173 80.2794 27.5847C85.6995 25.5686 91.3479 24.3735 96.9085 22.8534C97.8195 22.6048 98.876 22.6672 99.715 21.6904C98.4025 21.2182 97.2158 21.6591 96.0488 21.8316C94.7009 22.0308 93.3628 22.3314 92.027 22.6187C90.7881 22.8852 89.5568 23.1875 88.3104 23.4768C87.9456 22.7245 88.6271 22.6211 88.97 22.4202C91.0065 21.2349 93.1937 20.4098 95.4742 19.8007C100.781 18.3872 106.192 17.5217 111.668 17.2629C116.058 17.0532 120.468 17.0259 124.862 17.1025C131.052 17.2068 137.106 18.4943 143.162 19.6104C150.219 20.9097 156.967 23.2931 163.578 25.986C176.286 31.1643 188.461 37.3904 199.823 45.1171C202.645 47.0354 205.328 49.1628 208.063 51.2033C208.292 51.3744 208.457 51.6339 208.646 51.8564C213.337 57.3821 217.66 63.1558 220.819 69.7147C220.861 69.8048 220.916 69.8867 220.952 69.9756C223.939 77.0787 226.778 84.2348 228.919 91.6429C229.078 92.1937 229.069 92.7907 229.134 93.3628C228.877 92.977 228.527 92.6298 228.393 92.2141C228.041 91.1167 227.776 89.9934 227.49 88.8732C227.28 88.0484 227.067 87.237 226.073 86.5046C226.616 89.3623 227.483 91.8507 228.427 94.3148C228.469 94.4288 228.755 94.4551 228.914 94.5313C228.662 95.0785 228.362 95.6241 229.01 96.1029C229.05 96.2303 229.089 96.361 229.128 96.4918C229.058 96.383 228.987 96.2742 228.916 96.1655C228.911 95.628 228.902 95.0898 228.893 94.5551C228.768 94.0893 228.561 93.6333 229.089 93.2827ZM193.653 120.646C193.719 120.093 193.781 119.544 193.893 118.614C193.201 119.521 193.013 120.062 193.734 120.598C193.762 120.792 193.789 120.986 193.817 121.18C193.858 121.126 193.946 121.038 193.933 121.015C193.852 120.884 193.748 120.769 193.653 120.646ZM187.289 41.2356C186.981 40.1803 186.156 39.9214 184.712 39.591C185.725 40.626 186.339 41.2365 187.366 41.1734C187.437 41.3167 187.501 41.4655 187.592 41.5951C187.609 41.6186 187.734 41.572 187.81 41.5544C187.635 41.4512 187.46 41.3448 187.289 41.2356ZM104.188 20.7146C104.029 20.7142 103.87 20.7137 103.712 20.7132C103.853 20.7174 103.991 20.7177 104.132 20.7185C105.616 20.6706 107.103 20.6232 108.589 20.5792C109.515 20.4019 110.446 20.2359 111.368 20.0408C113.144 19.6694 115.019 19.9896 116.749 19.3042C118.693 19.3099 120.637 19.3396 122.582 19.318C124.544 19.2993 126.567 19.288 128.33 20.1251C129.618 20.7374 130.89 20.9446 132.236 21.1303C136.393 21.712 140.55 22.2936 144.695 22.9454C147.213 23.3412 149.58 24.2573 151.97 25.1225C154.626 26.0861 157.364 26.82 160.072 27.6276C160.321 27.7025 160.671 27.6576 160.9 27.5329C161.095 27.4263 161.183 27.122 161.307 26.9305C161.102 26.7223 160.997 26.5353 160.84 26.4629C154.146 23.4184 147.228 21.0772 139.903 20.1467C135.74 19.619 131.564 19.1235 127.379 18.8774C124.083 18.6815 120.764 18.8735 117.455 18.9265C117.23 18.9281 117.013 19.22 116.786 19.3692C114.115 18.6883 111.522 19.3834 108.92 19.8395C108.774 19.8653 108.709 20.332 108.586 20.5786C107.087 19.5576 105.643 20.0253 104.188 20.7146ZM68.2155 175.254C67.1838 173.68 67.1838 173.68 65.0318 172.777C65.9435 173.798 66.6511 175.075 68.2887 175.192C68.3608 175.332 68.4222 175.473 68.51 175.602C68.5232 175.625 68.6467 175.571 68.719 175.553C68.5571 175.452 68.3846 175.353 68.2155 175.254ZM206.957 55.3042C206.836 55.049 206.77 54.7381 206.586 54.5441C203.619 51.4275 200.366 48.6354 196.894 46.0935C196.691 45.9477 196.385 45.9385 196.109 45.8622C195.812 46.742 196.329 47.2011 196.842 47.6185C199.795 50.0137 202.751 52.4095 205.735 54.7689C206.078 55.0391 206.596 55.0962 207.031 55.2554C207.265 55.847 207.265 55.847 208.096 56.0314C207.535 55.671 207.245 55.4893 206.957 55.3042ZM227.653 99.4923C227.79 103.18 227.99 106.868 228.04 110.56C228.064 112.419 228.274 114.227 228.549 116.061C228.876 118.261 229.008 120.506 229.038 122.73C229.066 124.864 228.906 127.003 228.74 129.137C228.24 135.66 227.092 142.054 224.797 148.209C224.627 148.664 224.361 149.137 224.374 149.593C224.443 151.999 223.368 154.083 222.629 156.271C222.008 158.112 221.487 159.987 220.964 161.856C220.882 162.147 220.621 162.607 221.344 162.838C221.592 162.486 221.881 162.121 222.12 161.729C227.808 152.334 229.987 141.936 230.897 131.172C230.913 130.979 230.879 130.783 230.889 130.589C231.213 123.774 230.47 116.994 229.994 110.214C229.764 106.936 228.963 103.696 228.397 100.442C228.321 100.009 228.3 99.4275 227.588 99.5256C227.922 99.1614 228.165 98.8018 227.377 98.2915C227.499 98.8324 227.576 99.1624 227.653 99.4923ZM218.874 70.789C217.454 68.6949 216.245 66.4799 214.558 64.6071C213.064 62.9506 211.435 61.4114 209.838 59.847C208.799 58.8278 207.722 57.84 206.628 56.8732C206.425 56.6929 206.079 56.6766 205.39 56.4486C207.982 60.2833 210.311 63.7277 212.643 67.1793C213.759 66.9049 214.695 67.0045 215.367 67.8351C216.03 68.6572 216.618 69.5381 217.249 70.3888C217.608 70.8754 218.019 71.2504 218.874 70.789ZM191.986 78.0622C192.017 77.9406 192.165 77.6708 192.148 77.4133C192.062 76.2183 191.581 75.1636 190.835 74.241C188.645 71.5159 186.361 68.8773 183.674 66.6151C183.494 66.4629 183.205 66.436 182.578 66.2119C185.891 70.3836 188.947 74.2347 191.986 78.0622ZM29.1462 106.329C29.0407 105.458 28.9755 104.593 28.8134 103.749C28.7587 103.471 28.4537 103.242 28.1939 102.894C26.761 106.377 26.5378 107.348 26.5793 109.915C27.4087 108.757 28.1837 107.673 29.1462 106.329ZM61.8582 59.8776C63.5299 58.7828 64.6393 58.0945 65.6968 57.3282C65.9507 57.1425 66.1845 56.6781 66.1356 56.3874C66.0691 56.0008 65.7213 55.6609 65.4421 55.2264C63.8633 56.3823 62.9711 57.759 61.8582 59.8776ZM125.09 218.045C127.415 218.476 129.716 218.847 132.045 218.666C132.227 218.653 132.519 218.271 132.501 218.079C132.487 217.887 132.144 217.559 131.959 217.567C129.67 217.697 127.379 217.878 125.09 218.045ZM167.769 214.282C168.263 214.561 168.478 214.792 168.695 214.792C170.785 214.796 172.647 213.873 174.591 213.294C174.97 213.182 175.559 213.031 175.488 212.296C172.995 212.937 170.52 213.573 167.769 214.282ZM55.9072 192.452C56.009 190.837 55.9701 189.901 54.8163 189.391C54.2246 189.906 53.5889 190.2 53.5691 191.136C54.1635 191.467 54.8013 191.828 55.9072 192.452ZM201.052 67.729C200.916 67.2648 201.061 66.3651 200.107 66.3103C200.445 66.8206 200.748 67.2765 201.052 67.729ZM124.776 161.986C125.682 161.888 126.586 161.793 127.755 161.669C126.488 160.685 125.561 161.475 124.776 161.986ZM24.8176 132.288C24.6082 132.771 24.4545 133.015 24.4008 133.281C24.2981 133.765 24.3405 134.23 24.8702 134.478C24.931 134.506 25.0941 134.463 25.1006 134.426C25.1852 134.083 25.3236 133.729 25.2929 133.393C25.2627 133.075 25.0388 132.778 24.8176 132.288ZM203.745 109.919C204.198 108.864 203.745 108.196 202.729 107.122C202.925 108.44 202.841 109.268 203.745 109.919ZM60.9957 185.459C61.2152 185.88 61.2836 186.177 61.4686 186.323C61.6686 186.483 61.9832 186.579 62.2377 186.566C62.5489 186.545 62.4093 186.004 61.9392 185.712C61.734 185.583 61.4522 185.574 60.9957 185.459ZM162.914 74.2053C163.017 73.7591 163.12 73.5056 163.11 73.2493C163.105 73.1212 162.894 73.0048 162.774 72.8839C162.634 73.0691 162.367 73.2697 162.381 73.4441C162.396 73.6565 162.652 73.8495 162.914 74.2053ZM174.654 134.366C174.726 134.589 174.802 134.822 174.879 135.053C175.016 135.001 175.273 134.933 175.265 134.897C175.236 134.651 175.154 134.41 175.09 134.168C174.966 134.225 174.842 134.279 174.654 134.366ZM172.237 63.5149C172.17 63.6406 172.102 63.7697 172.034 63.8988C172.296 64.0791 172.555 64.2589 172.817 64.4392C172.887 64.3552 172.953 64.2707 173.023 64.1867C172.763 63.9619 172.498 63.7364 172.237 63.5149ZM203.763 72.3207C203.856 72.2442 203.949 72.1678 204.041 72.0946C203.915 71.8661 203.801 71.6327 203.66 71.4152C203.616 71.349 203.506 71.3295 203.423 71.2875C203.372 71.4228 203.243 71.6031 203.287 71.6899C203.405 71.9205 203.599 72.113 203.763 72.3207ZM181.658 46.9015C181.981 47.2613 182.147 47.4556 182.33 47.6324C182.365 47.6695 182.544 47.6323 182.548 47.6123C182.571 47.4616 182.623 47.2059 182.563 47.1747C182.355 47.059 182.106 47.0253 181.658 46.9015ZM83.2656 63.5492C83.4235 63.4566 83.6081 63.3894 83.7306 63.2631C83.7605 63.2306 83.6074 63.0213 83.5369 62.8919C83.3762 62.9805 83.1944 63.0516 83.0719 63.1779C83.0426 63.2072 83.1951 63.4198 83.2656 63.5492ZM46.4208 127.443C46.2358 126.455 46.1855 126.133 46.106 125.819C46.092 125.762 45.8874 125.688 45.8783 125.7C45.786 125.832 45.624 126.006 45.6572 126.112C45.7372 126.363 45.9181 126.591 46.4208 127.443ZM45.9265 82.6761C45.9908 82.5464 46.0551 82.4167 46.1194 82.2871C46.0321 82.2923 45.9093 82.2638 45.8704 82.3085C45.7794 82.4128 45.7334 82.5561 45.6669 82.6785C45.7531 82.6799 45.8364 82.6774 45.9265 82.6761ZM125.818 170.969C125.892 170.982 125.969 170.995 126.046 171.009C126.015 170.91 125.995 170.807 125.941 170.722C125.93 170.706 125.8 170.759 125.727 170.781C125.758 170.841 125.788 170.901 125.818 170.969ZM183.441 130.127C183.493 130.064 183.55 129.998 183.606 129.936C183.506 129.874 183.41 129.812 183.31 129.75C183.296 129.833 183.255 129.926 183.273 130.001C183.288 130.055 183.382 130.086 183.441 130.127ZM229.538 98.5589L229.488 98.3301L229.373 98.5333L229.538 98.5589ZM172.84 155.626C172.902 155.572 172.989 155.529 173.004 155.463C173.02 155.407 172.955 155.327 172.926 155.256C172.872 155.309 172.778 155.351 172.764 155.414C172.75 155.473 172.812 155.553 172.84 155.626Z" fill="#EA580C"/>
<path fill-rule="evenodd" clip-rule="evenodd" d="M26.7717 78.3484C26.812 78.6686 26.859 78.9898 26.868 79.3113C26.8706 79.3358 26.5716 79.3657 26.4115 79.3925C26.4127 79.0522 26.4107 78.7113 26.4119 78.371C26.5345 78.3616 26.6531 78.355 26.7717 78.3484Z" fill="#EA580C"/>
<path fill-rule="evenodd" clip-rule="evenodd" d="M36.2061 60.8535L36.3654 60.8712L36.2506 61.0711L36.2061 60.8535Z" fill="#EA580C"/>
</svg>
