<svg width="14" height="14" viewBox="0 0 14 14" fill="none" xmlns="http://www.w3.org/2000/svg">
<path d="M10.5 0H3.5C1.57517 0 0 1.57449 0 3.5V10.5C0 12.4248 1.57517 14 3.5 14H10.5C12.4248 14 14 12.4248 14 10.5V3.5C14 1.57449 12.4248 0 10.5 0ZM7 9.91655C5.38894 9.91655 4.08328 8.61034 4.08328 7C4.08328 5.38894 5.38894 4.08328 7 4.08328C8.61034 4.08328 9.91672 5.38894 9.91672 7C9.91672 8.61034 8.61034 9.91655 7 9.91655ZM10.7917 4.08328C10.308 4.08328 9.91672 3.69144 9.91672 3.20828C9.91672 2.72511 10.308 2.33328 10.7917 2.33328C11.2754 2.33328 11.6667 2.72511 11.6667 3.20828C11.6667 3.69144 11.2754 4.08328 10.7917 4.08328Z" fill="#262626"/>
</svg>
