<svg width="55" height="55" viewBox="0 0 55 55" fill="none" xmlns="http://www.w3.org/2000/svg">
<path fill-rule="evenodd" clip-rule="evenodd" d="M44.8406 6.679C45.24 6.80496 45.5068 7.04557 45.8358 7.31849C47.7201 8.88249 49.2841 10.6992 50.646 12.6936C52.281 15.0876 53.4927 17.652 54.2563 20.403C54.8027 22.3674 54.9936 24.382 54.9992 26.4103C55 26.7704 54.9417 27.1337 54.8802 27.4914C54.714 28.4636 54.5383 29.4341 54.3514 30.4022C54.2819 30.764 54.2555 31.1168 54.3075 31.4826C54.3841 32.0219 54.4297 32.5645 54.4872 33.1063C54.5679 33.8629 54.4648 34.6106 54.329 35.351C54.1509 36.3199 53.9424 37.2848 53.7164 38.2448C53.6157 38.6728 53.4736 39.0983 53.2906 39.5004C52.8258 40.5218 52.3585 41.5448 51.8321 42.5388C51.4287 43.3002 50.9343 44.0196 50.479 44.7568C49.8288 45.8105 49.074 46.7851 48.1506 47.6434C47.4485 48.295 46.8007 48.9999 46.0882 49.6418C44.4971 51.0758 42.7534 52.316 40.7877 53.2567C38.9074 54.1561 36.8922 54.5873 34.8098 54.7714C32.9567 54.9353 31.0988 54.8723 29.2425 54.8521C28.9861 54.8489 28.7097 54.7108 28.4805 54.9757C28.4333 55.0298 28.2209 54.9813 28.0963 54.9442C27.4365 54.7504 26.7623 54.7003 26.0754 54.6987C25.7551 54.6979 25.4356 54.601 25.1161 54.5461C24.7135 54.4767 24.3133 54.3959 23.91 54.3338C22.4986 54.1142 21.1606 53.7048 19.8842 53.0758C19.1877 52.7318 18.4201 52.5138 17.6749 52.2635C15.6987 51.5998 13.9103 50.6196 12.2649 49.3963C10.6067 48.1634 9.0459 46.8311 7.62651 45.3495C6.68797 44.37 5.83729 43.3268 5.07049 42.2223C4.25975 41.0539 3.50732 39.8524 2.84355 38.5993C2.1055 37.2041 1.48008 35.7733 1.05913 34.2626C0.857045 33.5375 0.59665 32.8237 0.434503 32.0914C0.106213 30.6049 0.149346 29.1014 0.324274 27.6004C0.561505 25.5592 1.02159 23.5633 1.69494 21.6109C2.25727 19.9782 2.97135 18.4086 3.88992 16.9318C4.43388 16.0573 4.96984 15.1918 5.23663 14.1978C5.27577 14.0525 5.37641 13.9217 5.4475 13.7844C5.43712 13.744 5.42673 13.7045 5.41715 13.6649C5.42593 13.7069 5.43392 13.7481 5.44191 13.7893C5.34606 13.8127 5.20707 13.8054 5.16155 13.8644C4.98342 14.0921 4.82766 14.3367 4.6751 14.5814C3.27967 16.8204 2.19097 19.1845 1.44094 21.6892C1.06073 22.9577 0.666142 24.2221 0.285934 25.4898C0.239606 25.6448 0.162925 25.7054 0.00317383 25.6803C0.145353 25.0505 0.284336 24.4208 0.430509 23.7918C1.25163 20.2609 2.40743 16.8438 4.25496 13.6625C5.00739 12.3674 5.81972 11.1086 6.80299 9.95799C7.14566 9.5575 7.53066 9.18689 7.91646 8.82193C8.08739 8.65963 8.29028 8.49492 8.51233 8.42144C8.94925 8.2761 9.2416 7.97654 9.54912 7.68425C10.4972 6.78235 11.5316 5.98057 12.6619 5.29344C13.1891 4.97289 13.7306 4.68625 14.3904 4.64669C14.6132 4.63377 14.8361 4.47632 15.0398 4.3552C16.7827 3.31603 18.627 2.49003 20.6119 1.96116C20.9793 1.86265 21.3507 1.78029 21.723 1.69874C22.7054 1.48316 23.6927 1.28614 24.6712 1.05441C26.1944 0.693487 27.732 0.548957 29.2968 0.696717C29.4326 0.709636 29.5692 0.7274 29.7049 0.7274C31.1906 0.726592 32.6324 1.01081 34.0702 1.32732C34.1764 1.35074 34.2842 1.36931 34.3913 1.38788C36.1517 1.7044 37.7884 2.30674 39.3276 3.19007C40.5201 3.87478 41.7023 4.56675 42.7902 5.39679C43.0881 5.62368 43.4052 5.7997 43.7766 5.92082C44.1824 6.05243 44.5275 6.25752 44.7679 6.59745C44.6329 6.64186 44.4939 6.66689 44.351 6.67254C47.8918 10.1372 49.4007 14.6516 51.6196 18.8769C50.7498 16.5523 50.2522 13.912 48.9135 11.7788C47.7393 9.90631 45.6601 8.65963 44.7096 6.64347C44.7519 6.65316 44.7975 6.66608 44.8406 6.679ZM37.6901 4.26154C37.7101 4.10167 37.6358 4.02577 37.4665 4.03384C37.3978 3.98863 37.3291 3.94341 37.2612 3.899C37.2484 3.93049 37.2356 3.96279 37.2228 3.99428C37.3107 4.00155 37.3978 4.008 37.4856 4.01527C37.5559 4.10086 37.6262 4.18564 37.6965 4.26961C37.7388 4.26154 37.7812 4.25346 37.8235 4.24458C37.7788 4.24943 37.7341 4.25589 37.6901 4.26154ZM7.10332 39.6837C6.9875 39.6272 6.87168 39.5714 6.72072 39.4972C6.78781 39.7862 6.95555 39.7087 7.09853 39.6918C7.01386 39.8557 7.02744 40.018 7.10732 40.1794C7.21675 40.4556 7.34615 40.718 7.64967 40.9215C7.78147 40.6389 7.58817 40.5065 7.48433 40.3563C7.39647 40.2295 7.28384 40.1157 7.09693 40.1916C7.09933 40.022 7.10173 39.8524 7.10332 39.6837ZM41.4658 50.3208C41.489 50.3127 41.513 50.2958 41.5345 50.299C41.5497 50.3006 41.5617 50.3289 41.5745 50.3451C41.5409 50.3305 41.5074 50.3152 41.4738 50.3006C41.3444 50.4379 41.2158 50.5752 41.0872 50.7132C40.9818 50.7253 40.8636 50.7124 40.7725 50.7528C40.2581 50.9853 39.7501 51.2292 39.2397 51.4698C38.9729 51.5958 38.7069 51.7217 38.4402 51.8493C38.2708 51.93 38.2333 52.0705 38.2469 52.2288C38.2045 52.1973 38.1662 52.1545 38.1175 52.1392C38.0919 52.1319 38.0504 52.1739 38.016 52.1933C38.0424 52.1949 38.0703 52.1933 38.0967 52.1981C38.147 52.2062 38.1973 52.2183 38.2469 52.2288C38.3778 52.1489 38.5025 52.0568 38.6414 51.9914C39.3164 51.6733 39.9993 51.3705 40.6687 51.0427C40.8236 50.9668 40.9371 50.8142 41.0705 50.6963C41.3995 50.6511 41.4035 50.647 41.4658 50.3208ZM52.8298 19.3589C52.8753 19.476 52.9208 19.5939 52.9759 19.7344C53.0806 19.5269 52.9855 19.4357 52.8306 19.3662C52.8393 19.279 52.8481 19.191 52.8569 19.1038C52.8385 19.103 52.8202 19.1022 52.8018 19.1022C52.8106 19.1878 52.8202 19.2734 52.8298 19.3589ZM53.1397 20.7994C53.1796 20.8584 53.2172 20.9189 53.2611 20.9746C53.2739 20.9916 53.3034 20.9964 53.325 21.0069C53.3226 20.9819 53.3298 20.9464 53.3154 20.9326C53.2619 20.885 53.2012 20.8446 53.1429 20.801C53.1565 20.6428 53.1692 20.4837 53.1828 20.3254C53.1684 20.3246 53.1541 20.3238 53.1405 20.323C53.1397 20.4813 53.1397 20.6403 53.1397 20.7994ZM25.0913 4.72016C24.9284 4.64426 24.7614 4.51669 24.5929 4.78637C24.7806 4.7573 24.9316 4.73389 25.0817 4.71047C25.3469 4.66849 25.6121 4.6265 25.8773 4.58451C25.6568 4.52396 25.4444 4.52638 25.2375 4.55868C25.1824 4.56675 25.1424 4.66606 25.0913 4.72016ZM37.5479 49.8905C37.5695 49.884 37.5919 49.8719 37.6126 49.8727C37.6294 49.8735 37.6454 49.8905 37.6622 49.9002C37.627 49.8913 37.5911 49.8824 37.5567 49.8735C37.0998 50.1069 36.5239 50.1206 36.1301 50.559C36.7963 50.4508 37.0543 50.3265 37.5479 49.8905ZM52.6021 37.0587C52.6093 37.0345 52.6197 37.0111 52.6229 36.986C52.6245 36.9723 52.6141 36.957 52.6093 36.9416C52.6133 36.9869 52.6165 37.0321 52.6205 37.0773C52.551 37.1104 52.444 37.1257 52.4192 37.1774C52.15 37.7362 51.8928 38.2997 51.6396 38.8649C51.6252 38.8964 51.6724 38.9521 51.6915 38.9966C52.1125 38.4685 52.3697 37.9251 52.6021 37.0587ZM7.62092 11.7779C7.59456 11.8151 7.5666 11.8522 7.54424 11.8918C7.54184 11.8966 7.57139 11.9168 7.58577 11.9297C7.58977 11.8724 7.59296 11.8159 7.59696 11.7586C7.74473 11.656 7.92445 11.5769 8.03467 11.4461C8.7272 10.6209 9.40694 9.78601 10.0827 8.9495C10.133 8.88733 10.2768 8.81547 10.1074 8.66286C9.16731 9.62533 8.28069 10.6177 7.62092 11.7779ZM1.9769 24.0461C1.9769 23.9718 1.9769 23.8991 1.9769 23.8257C1.97131 23.8257 1.96652 23.8265 1.96093 23.8273C1.96492 23.9016 1.96891 23.9775 1.97371 24.0518C1.90821 24.1293 1.81396 24.1971 1.78201 24.2859C1.66938 24.6024 1.55835 24.9206 1.48247 25.2468C1.274 26.1487 1.0152 27.0506 1.33151 27.9589C1.54477 26.667 1.76044 25.3574 1.9769 24.0461ZM15.7818 5.37095C15.8337 5.36288 15.8857 5.35481 15.9376 5.34592C15.8896 5.35804 15.8417 5.37015 15.7938 5.38226C15.0206 5.69554 14.237 5.98783 13.479 6.33019C12.8807 6.60068 12.6587 6.8534 12.3663 7.41538C12.5277 7.33383 12.6435 7.27973 12.7553 7.21917C13.4654 6.84049 14.1763 6.46261 14.8832 6.07907C15.142 5.93858 15.3976 5.79163 15.6388 5.6261C15.7123 5.57443 15.7331 5.45493 15.7818 5.37095ZM3.44661 25.2742C3.44342 25.254 3.43943 25.2338 3.43543 25.2137C3.43703 25.2371 3.43863 25.2605 3.44022 25.2831C3.36834 25.3864 3.25332 25.4817 3.23255 25.594C3.15187 26.0267 3.05442 26.4644 3.04883 26.9004C3.03286 28.2213 3.05522 29.5431 3.0688 30.8641C3.0712 31.0441 3.10555 31.225 3.12791 31.4051C3.29006 32.7058 3.78369 33.9129 4.2941 35.1152C4.30767 35.1459 4.37717 35.1564 4.48739 35.2065C4.40912 34.9206 4.34122 34.6776 4.27652 34.4321C4.12875 33.8758 4.01852 33.3082 4.09281 32.7381C4.17588 32.1003 4.05047 31.4987 3.86596 30.8996C3.29964 29.0546 3.23974 27.1749 3.44661 25.2742ZM49.435 39.5739C49.2202 39.7241 49.1531 39.7547 49.1076 39.804C48.2721 40.6906 47.3974 41.5392 46.494 42.3636C45.9069 42.8997 45.3638 43.481 44.8238 44.0616C44.3917 44.5267 44.0099 45.0297 43.5147 45.4447C42.9643 45.9066 42.4507 46.4088 41.9259 46.8973C41.8365 46.9797 41.7686 47.083 41.6735 47.1961C42.0521 47.2477 42.3676 47.2913 42.7183 47.3406C43.3653 47.1274 43.7743 46.5961 44.2088 46.102C45.3438 44.8101 46.4772 43.5166 47.5883 42.2061C48.066 41.6425 48.4925 41.0386 48.927 40.4435C49.0892 40.2214 49.2074 39.9679 49.435 39.5739ZM9.14814 42.6623C9.22642 42.848 9.2384 42.9223 9.28153 42.9716C10.3111 44.1528 11.4286 45.2509 12.6962 46.2053C12.8448 46.3168 13.0021 46.4548 13.1763 46.4912C13.4111 46.5404 13.5669 46.6583 13.7162 46.8125C14.13 47.238 14.6444 47.5319 15.1732 47.8049C15.2307 47.8347 15.3121 47.8242 15.5094 47.846C14.9168 47.3349 14.3688 46.9562 13.8528 46.5412C13.3328 46.123 12.8192 45.6975 12.3056 45.2727C11.7912 44.8472 11.2768 44.4209 10.7688 43.9881C10.2704 43.565 9.82229 43.0854 9.14814 42.6623ZM9.12338 16.646C9.34464 16.386 9.5587 16.1211 9.78715 15.8676C10.3015 15.2967 10.8191 14.7283 11.3415 14.1639C11.5844 13.9015 11.7729 13.631 11.6307 13.2192C11.1634 13.3218 10.8902 13.6617 10.6226 13.9612C9.92134 14.7445 9.25517 15.5592 9.12338 16.646ZM12.5484 10.9875C13.118 10.9196 13.372 10.4965 13.7322 10.193C14.098 9.8837 14.4495 9.56073 14.8233 9.26117C15.1963 8.96161 15.5861 8.68063 15.9751 8.39883C16.3537 8.1243 16.801 7.93617 17.1772 7.58736C17.0582 7.56233 17.0055 7.53488 16.9616 7.54376C16.5015 7.64227 16.1013 7.8522 15.7483 8.14611C15.0733 8.70566 14.384 9.25068 13.725 9.82638C13.3097 10.1897 12.939 10.5991 12.5484 10.9875ZM35.206 49.1323C35.2244 49.1678 35.2427 49.2033 35.2611 49.2397C35.3378 49.2276 35.4153 49.2195 35.4895 49.2017C36.8674 48.8763 38.139 48.2885 39.4338 47.7588C39.58 47.6991 39.7158 47.6022 39.8332 47.4997C39.9187 47.4246 40.0425 47.3204 39.8699 47.1799C38.3179 47.8299 36.762 48.4807 35.206 49.1323ZM39.7956 7.80537C40.7526 8.64914 41.7414 9.13198 42.9156 9.35887C42.5394 8.67417 41.1224 7.95717 39.7956 7.80537ZM52.5726 25.4672C52.6237 25.4712 52.6748 25.4753 52.7259 25.4785C52.7395 25.3275 52.7699 25.1757 52.7643 25.0255C52.7235 23.7683 52.3936 22.579 51.8066 21.4542C51.7922 21.4276 51.7235 21.4268 51.6388 21.4018C51.6987 21.8547 51.7706 22.2794 51.9463 22.6888C52.2043 23.2912 52.3425 23.9226 52.4192 24.5677C52.4551 24.8689 52.5206 25.1668 52.5726 25.4672ZM38.818 49.2938C39.4801 49.1323 39.4801 49.1323 39.9642 48.7092C39.4777 48.7924 39.1439 49.0209 38.818 49.2938ZM22.5241 10.7565C22.1775 10.6354 21.9786 10.8688 21.6559 10.977C22.1359 11.1352 22.1407 11.1336 22.5241 10.7565ZM11.526 31.2492C11.4038 31.5124 11.4302 31.7288 11.784 32.0219C11.6626 31.657 11.5947 31.4527 11.526 31.2492ZM18.1206 48.6389C17.9568 48.3894 17.7739 48.299 17.4552 48.2336C17.6094 48.5848 17.8242 48.6212 18.1206 48.6389ZM36.8834 36.1245C36.9329 36.202 36.9505 36.2682 36.9848 36.2771C37.151 36.3199 37.2149 36.2053 37.2524 36.0841C37.262 36.0527 37.2157 36.005 37.1957 35.9646C37.0919 36.0171 36.9888 36.0696 36.8834 36.1245ZM26.9708 4.40203C26.9708 4.41253 26.9708 4.42303 26.9708 4.43352C27.0627 4.43837 27.1537 4.44321 27.2456 4.44806C27.2448 4.42626 27.244 4.40446 27.2432 4.38265C27.1529 4.38992 27.0619 4.39557 26.9708 4.40203ZM11.7569 27.3566C11.7808 27.3937 11.804 27.4301 11.828 27.4672C11.8455 27.4236 11.8775 27.3792 11.8759 27.3356C11.8743 27.2984 11.8344 27.2629 11.8112 27.2274C11.7928 27.2702 11.7753 27.3138 11.7569 27.3566ZM39.2413 4.75246L39.294 4.73308L39.2421 4.71047L39.2413 4.75246Z" fill="black"/>
<path fill-rule="evenodd" clip-rule="evenodd" d="M14.0509 3.53808C16.0518 2.51587 18.1677 1.7593 20.3116 1.05764C21.7893 0.573991 23.2901 0.206608 24.8461 0.0580404C25.3341 0.0120167 25.827 -0.00736174 26.3174 0.00152004C26.6377 0.00717208 26.9564 0.0863006 27.454 0.15897C27.0371 0.343872 26.7631 0.393126 26.4931 0.414926C22.8684 0.71287 19.4345 1.72943 16.0446 2.91071C15.5582 3.08027 15.0741 3.25871 14.5837 3.41777C14.408 3.4743 14.2163 3.48479 14.0317 3.51628L14.0509 3.53808Z" fill="black"/>
<path fill-rule="evenodd" clip-rule="evenodd" d="M0 25.6779C0.0407366 25.8927 0.0814732 26.1075 0.121411 26.3223C-0.100643 26.1293 0.0766807 25.8935 0.000798757 25.6811C0.00159751 25.6795 0 25.6779 0 25.6779Z" fill="black"/>
<path fill-rule="evenodd" clip-rule="evenodd" d="M14.0318 3.51706C14.015 3.55824 13.9982 3.60023 13.9814 3.64222C13.9862 3.62284 13.9862 3.60023 13.9966 3.58408C14.0102 3.56632 14.0334 3.55501 14.0517 3.53886C14.0509 3.53805 14.0318 3.51706 14.0318 3.51706Z" fill="black"/>
</svg>
