<svg width="55" height="55" viewBox="0 0 55 55" fill="none" xmlns="http://www.w3.org/2000/svg">
<path fill-rule="evenodd" clip-rule="evenodd" d="M10.1584 6.67958C9.75905 6.80554 9.49226 7.04615 9.16318 7.31907C7.27891 8.88307 5.71495 10.6998 4.35307 12.6942C2.71801 15.0882 1.50629 17.6526 0.742683 20.4035C0.196335 22.368 0.00543213 24.3826 -0.000160217 26.4108C-0.000957489 26.771 0.0573502 27.1343 0.118855 27.492C0.284996 28.4642 0.460724 29.4347 0.647633 30.4028C0.717125 30.7645 0.743481 31.1174 0.691563 31.4832C0.614883 32.0225 0.569351 32.5651 0.511841 33.1069C0.431168 33.8635 0.53421 34.6112 0.669998 35.3516C0.848122 36.3205 1.05659 37.2854 1.28265 38.2454C1.38329 38.6734 1.52547 39.0989 1.70838 39.501C2.17326 40.5224 2.64053 41.5454 3.16692 42.5394C3.57029 43.3008 4.06472 44.0202 4.52001 44.7574C5.1702 45.8111 5.92502 46.7856 6.84838 47.644C7.55049 48.2956 8.19828 49.0004 8.91077 49.6424C10.5019 51.0764 12.2456 52.3166 14.2113 53.2572C16.0916 54.1567 18.1069 54.5879 20.1892 54.772C22.0423 54.9359 23.9002 54.8729 25.7566 54.8527C26.013 54.8495 26.2893 54.7114 26.5186 54.9763C26.5657 55.0304 26.7782 54.9819 26.9028 54.9448C27.5625 54.751 28.2367 54.7009 28.9236 54.6993C29.2439 54.6985 29.5634 54.6016 29.8829 54.5467C30.2855 54.4773 30.6857 54.3965 31.0891 54.3344C32.5005 54.1147 33.8384 53.7054 35.1148 53.0764C35.8113 52.7324 36.5789 52.5144 37.3242 52.2641C39.3003 51.6004 41.0887 50.6202 42.7341 49.3969C44.3924 48.1639 45.9531 46.8317 47.3725 45.35C48.3111 44.3706 49.1617 43.3274 49.9285 42.2228C50.7393 41.0545 51.4917 39.853 52.1555 38.5999C52.8935 37.2046 53.5189 35.7739 53.9399 34.2631C54.142 33.5381 54.4024 32.8243 54.5645 32.092C54.8928 30.6055 54.8497 29.102 54.6747 27.601C54.4375 25.5598 53.9774 23.5638 53.3041 21.6115C52.7418 19.9788 52.0277 18.4092 51.1091 16.9324C50.5651 16.0579 50.0292 15.1924 49.7624 14.1984C49.7233 14.0531 49.6226 13.9223 49.5515 13.785C49.5619 13.7446 49.5723 13.7051 49.5819 13.6655C49.5731 13.7075 49.5651 13.7487 49.5571 13.7898C49.653 13.8133 49.7919 13.806 49.8375 13.8649C50.0156 14.0926 50.1714 14.3373 50.3239 14.5819C51.7193 16.821 52.8081 19.1851 53.5581 21.6898C53.9383 22.9583 54.3329 24.2227 54.7131 25.4904C54.7594 25.6454 54.8361 25.706 54.9958 25.6809C54.8537 25.0511 54.7147 24.4213 54.5685 23.7923C53.7474 20.2614 52.5916 16.8444 50.7441 13.6631C49.9916 12.368 49.1793 11.1092 48.196 9.95857C47.8534 9.55808 47.4684 9.18747 47.0826 8.82251C46.9116 8.66021 46.7087 8.4955 46.4867 8.42202C46.0498 8.27668 45.7574 7.97712 45.4499 7.68483C44.5018 6.78293 43.4674 5.98115 42.3372 5.29402C41.81 4.97347 41.2684 4.68683 40.6086 4.64727C40.3858 4.63435 40.1629 4.4769 39.9593 4.35578C38.2164 3.31661 36.372 2.49061 34.3871 1.96174C34.0197 1.86323 33.6483 1.78087 33.2761 1.69932C32.2936 1.48374 31.3063 1.28672 30.3278 1.05499C28.8046 0.694067 27.267 0.549536 25.7022 0.697297C25.5665 0.710216 25.4299 0.727979 25.2941 0.727979C23.8084 0.727172 22.3666 1.01139 20.9289 1.3279C20.8226 1.35132 20.7148 1.36989 20.6078 1.38846C18.8473 1.70498 17.2107 2.30732 15.6715 3.19065C14.4789 3.87536 13.2967 4.56733 12.2088 5.39737C11.9109 5.62426 11.5938 5.80028 11.2224 5.9214C10.8166 6.05301 10.4715 6.2581 10.2311 6.59803C10.3661 6.64244 10.5051 6.66747 10.6481 6.67312C7.10718 10.1378 5.59833 14.6522 3.37938 18.8775C4.24923 16.5529 4.74685 13.9126 6.08557 11.7793C7.25974 9.90689 9.33891 8.66021 10.2894 6.64405C10.2471 6.65374 10.2016 6.66666 10.1584 6.67958ZM17.3089 4.26212C17.2889 4.10225 17.3632 4.02635 17.5326 4.03442C17.6012 3.98921 17.6699 3.94399 17.7378 3.89958C17.7506 3.93107 17.7634 3.96337 17.7762 3.99486C17.6883 4.00213 17.6012 4.00858 17.5134 4.01585C17.4431 4.10144 17.3728 4.18622 17.3025 4.27019C17.2602 4.26212 17.2178 4.25404 17.1755 4.24516C17.2202 4.25001 17.265 4.25647 17.3089 4.26212ZM47.8957 39.6843C48.0115 39.6277 48.1273 39.572 48.2783 39.4977C48.2112 39.7868 48.0435 39.7093 47.9005 39.6923C47.9852 39.8562 47.9716 40.0185 47.8917 40.18C47.7823 40.4562 47.6529 40.7186 47.3494 40.9221C47.2176 40.6395 47.4109 40.507 47.5147 40.3569C47.6026 40.2301 47.7152 40.1162 47.9021 40.1921C47.8997 40.0226 47.8973 39.853 47.8957 39.6843ZM13.5332 50.3214C13.51 50.3133 13.4861 50.2964 13.4645 50.2996C13.4493 50.3012 13.4373 50.3295 13.4245 50.3456C13.4581 50.3311 13.4916 50.3158 13.5252 50.3012C13.6546 50.4385 13.7832 50.5757 13.9118 50.7138C14.0172 50.7259 14.1354 50.713 14.2265 50.7534C14.7409 50.9859 15.2489 51.2298 15.7593 51.4704C16.0261 51.5963 16.2921 51.7223 16.5589 51.8499C16.7282 51.9306 16.7658 52.0711 16.7522 52.2294C16.7945 52.1979 16.8328 52.1551 16.8816 52.1397C16.9071 52.1325 16.9487 52.1745 16.983 52.1938C16.9567 52.1955 16.9287 52.1938 16.9023 52.1987C16.852 52.2068 16.8017 52.2189 16.7522 52.2294C16.6212 52.1494 16.4966 52.0574 16.3576 51.992C15.6826 51.6739 14.9997 51.3711 14.3303 51.0432C14.1754 50.9674 14.062 50.8147 13.9286 50.6969C13.5995 50.6516 13.5955 50.6476 13.5332 50.3214ZM2.16926 19.3595C2.12373 19.4766 2.07821 19.5945 2.02309 19.735C1.91846 19.5275 2.01351 19.4362 2.16847 19.3668C2.15968 19.2796 2.15089 19.1916 2.14211 19.1044C2.16048 19.1036 2.17885 19.1028 2.19722 19.1028C2.18843 19.1884 2.17885 19.2739 2.16926 19.3595ZM1.85934 20.8C1.81941 20.8589 1.78187 20.9195 1.73794 20.9752C1.72516 20.9922 1.6956 20.997 1.67404 21.0075C1.67643 20.9825 1.66924 20.9469 1.68362 20.9332C1.73714 20.8856 1.79784 20.8452 1.85615 20.8016C1.84257 20.6433 1.82979 20.4843 1.81621 20.326C1.83059 20.3252 1.84497 20.3244 1.85855 20.3236C1.85935 20.4819 1.85934 20.6409 1.85934 20.8ZM29.9077 4.72074C30.0706 4.64484 30.2376 4.51727 30.4061 4.78695C30.2184 4.75788 30.0674 4.73447 29.9173 4.71105C29.6521 4.66907 29.3869 4.62708 29.1217 4.58509C29.3422 4.52454 29.5546 4.52696 29.7615 4.55925C29.8166 4.56733 29.8566 4.66664 29.9077 4.72074ZM17.4511 49.891C17.4295 49.8846 17.4072 49.8725 17.3864 49.8733C17.3696 49.8741 17.3536 49.891 17.3369 49.9007C17.372 49.8918 17.408 49.883 17.4423 49.8741C17.8992 50.1074 18.4751 50.1212 18.8689 50.5596C18.2027 50.4514 17.9447 50.3271 17.4511 49.891ZM2.39691 37.0593C2.38972 37.0351 2.37934 37.0117 2.37614 36.9866C2.37455 36.9729 2.38493 36.9576 2.38972 36.9422C2.38573 36.9874 2.38253 37.0326 2.37854 37.0779C2.44803 37.111 2.55507 37.1263 2.57983 37.178C2.84901 37.7367 3.1062 38.3003 3.35941 38.8655C3.37379 38.897 3.32666 38.9527 3.30749 38.9971C2.88655 38.4691 2.62935 37.9257 2.39691 37.0593ZM47.3781 11.7785C47.4045 11.8157 47.4324 11.8528 47.4548 11.8924C47.4572 11.8972 47.4276 11.9174 47.4133 11.9303C47.4093 11.873 47.4061 11.8165 47.4021 11.7591C47.2543 11.6566 47.0746 11.5775 46.9643 11.4467C46.2718 10.6215 45.5921 9.78658 44.9163 8.95008C44.866 8.88791 44.7222 8.81605 44.8916 8.66344C45.8317 9.62591 46.7183 10.6182 47.3781 11.7785ZM53.0221 24.0467C53.0221 23.9724 53.0221 23.8997 53.0221 23.8263C53.0277 23.8263 53.0325 23.8271 53.0381 23.8279C53.0341 23.9022 53.0301 23.9781 53.0253 24.0523C53.0908 24.1298 53.1851 24.1977 53.217 24.2865C53.3296 24.603 53.4407 24.9211 53.5166 25.2473C53.725 26.1492 53.9838 27.0511 53.6675 27.9595C53.4542 26.6676 53.2386 25.358 53.0221 24.0467ZM39.2172 5.37153C39.1653 5.36346 39.1134 5.35539 39.0614 5.3465C39.1094 5.35861 39.1573 5.37073 39.2052 5.38284C39.9784 5.69612 40.762 5.98841 41.52 6.33077C42.1183 6.60126 42.3403 6.85398 42.6327 7.41596C42.4713 7.33441 42.3555 7.28031 42.2437 7.21975C41.5336 6.84106 40.8227 6.46319 40.1158 6.07965C39.857 5.93916 39.6014 5.79221 39.3602 5.62668C39.2867 5.57501 39.2659 5.45551 39.2172 5.37153ZM51.5524 25.2748C51.5556 25.2546 51.5596 25.2344 51.5636 25.2142C51.562 25.2376 51.5604 25.2611 51.5588 25.2837C51.6307 25.387 51.7457 25.4823 51.7665 25.5945C51.8472 26.0273 51.9446 26.4649 51.9502 26.901C51.9662 28.2219 51.9438 29.5437 51.9302 30.8647C51.9278 31.0447 51.8935 31.2256 51.8711 31.4056C51.709 32.7064 51.2153 33.9135 50.7049 35.1158C50.6913 35.1465 50.6219 35.157 50.5116 35.207C50.5899 34.9212 50.6578 34.6782 50.7225 34.4327C50.8703 33.8764 50.9805 33.3088 50.9062 32.7387C50.8231 32.1008 50.9485 31.4993 51.1331 30.9002C51.6994 29.0552 51.7593 27.1755 51.5524 25.2748ZM5.56398 39.5745C5.77885 39.7246 5.84594 39.7553 5.89147 39.8046C6.72697 40.6911 7.60161 41.5397 8.505 42.3641C9.09209 42.9003 9.63525 43.4816 10.1752 44.0622C10.6073 44.5273 10.9891 45.0303 11.4844 45.4453C12.0347 45.9072 12.5483 46.4094 13.0731 46.8979C13.1626 46.9802 13.2304 47.0836 13.3255 47.1966C12.9469 47.2483 12.6314 47.2919 12.2807 47.3412C11.6337 47.128 11.2248 46.5967 10.7902 46.1026C9.65522 44.8107 8.52177 43.5172 7.41071 42.2067C6.93305 41.6431 6.50652 41.0391 6.07199 40.4441C5.90984 40.222 5.79163 39.9685 5.56398 39.5745ZM45.8509 42.6629C45.7726 42.8486 45.7606 42.9229 45.7175 42.9721C44.6879 44.1534 43.5704 45.2515 42.3028 46.2059C42.1542 46.3173 41.9969 46.4554 41.8228 46.4917C41.5879 46.541 41.4322 46.6589 41.2828 46.8131C40.869 47.2386 40.3546 47.5325 39.8259 47.8054C39.7683 47.8353 39.6869 47.8248 39.4896 47.8466C40.0823 47.3355 40.6302 46.9568 41.1462 46.5418C41.6662 46.1236 42.1798 45.698 42.6934 45.2733C43.2078 44.8478 43.7222 44.4215 44.2302 43.9887C44.7286 43.5656 45.1767 43.086 45.8509 42.6629ZM45.8756 16.6465C45.6544 16.3866 45.4403 16.1217 45.2119 15.8682C44.6975 15.2973 44.1799 14.7289 43.6575 14.1645C43.4147 13.9021 43.2262 13.6316 43.3683 13.2198C43.8356 13.3223 44.1088 13.6623 44.3764 13.9618C45.0777 14.745 45.7438 15.5597 45.8756 16.6465ZM42.4506 10.988C41.8811 10.9202 41.6271 10.4971 41.2668 10.1935C40.901 9.88428 40.5495 9.56131 40.1757 9.26175C39.8027 8.96219 39.4129 8.68121 39.0239 8.39941C38.6453 8.12488 38.198 7.93675 37.8218 7.58794C37.9408 7.56291 37.9935 7.53546 38.0374 7.54434C38.4975 7.64285 38.8977 7.85278 39.2508 8.14669C39.9257 8.70624 40.615 9.25126 41.274 9.82696C41.6894 10.1903 42.06 10.5997 42.4506 10.988ZM19.793 49.1329C19.7747 49.1684 19.7563 49.2039 19.7379 49.2402C19.6612 49.2281 19.5838 49.2201 19.5095 49.2023C18.1316 48.8769 16.86 48.2891 15.5652 47.7594C15.419 47.6997 15.2833 47.6028 15.1658 47.5002C15.0804 47.4251 14.9566 47.321 15.1291 47.1805C16.6811 47.8305 18.2371 48.4813 19.793 49.1329ZM15.2034 7.80595C14.2465 8.64972 13.2576 9.13256 12.0834 9.35945C12.4596 8.67475 13.8766 7.95775 15.2034 7.80595ZM2.42646 25.4678C2.37534 25.4718 2.32423 25.4758 2.27311 25.4791C2.25953 25.3281 2.22917 25.1763 2.23476 25.0261C2.2755 23.7689 2.60538 22.5796 3.19247 21.4548C3.20685 21.4282 3.27554 21.4274 3.36021 21.4023C3.3003 21.8553 3.22841 22.28 3.05269 22.6894C2.79469 23.2917 2.65651 23.9231 2.57983 24.5683C2.54388 24.8695 2.47839 25.1674 2.42646 25.4678ZM16.1811 49.2943C15.5189 49.1329 15.5189 49.1329 15.0348 48.7098C15.5213 48.7929 15.8552 49.0214 16.1811 49.2943ZM32.4749 10.7571C32.8216 10.636 33.0205 10.8694 33.3431 10.9776C32.8631 11.1358 32.8583 11.1342 32.4749 10.7571ZM43.473 31.2498C43.5952 31.513 43.5688 31.7294 43.215 32.0225C43.3364 31.6576 43.4043 31.4533 43.473 31.2498ZM36.8784 48.6395C37.0422 48.39 37.2251 48.2996 37.5438 48.2342C37.3897 48.5854 37.1748 48.6218 36.8784 48.6395ZM18.1156 36.1251C18.0661 36.2026 18.0486 36.2688 18.0142 36.2777C17.8481 36.3205 17.7842 36.2058 17.7466 36.0847C17.737 36.0532 17.7834 36.0056 17.8033 35.9652C17.9072 36.0177 18.0102 36.0702 18.1156 36.1251ZM28.0282 4.40261C28.0282 4.41311 28.0282 4.42361 28.0282 4.4341C27.9364 4.43895 27.8453 4.44379 27.7534 4.44864C27.7542 4.42684 27.755 4.40504 27.7558 4.38323C27.8461 4.3905 27.9372 4.39615 28.0282 4.40261ZM43.2421 27.3572C43.2182 27.3943 43.195 27.4306 43.1711 27.4678C43.1535 27.4242 43.1215 27.3798 43.1231 27.3362C43.1247 27.299 43.1647 27.2635 43.1878 27.228C43.2062 27.2708 43.2238 27.3144 43.2421 27.3572ZM15.7577 4.75304L15.705 4.73366L15.7569 4.71105L15.7577 4.75304Z" fill="black"/>
<path fill-rule="evenodd" clip-rule="evenodd" d="M40.9481 3.53866C38.9472 2.51645 36.8313 1.75988 34.6875 1.05822C33.2098 0.574571 31.7089 0.207188 30.1529 0.0586203C29.6649 0.0125965 29.1721 -0.00678191 28.6816 0.00209987C28.3613 0.00775191 28.0426 0.0868805 27.545 0.15955C27.9619 0.344452 28.2359 0.393706 28.5059 0.415506C32.1306 0.713449 35.5645 1.73001 38.9544 2.91129C39.4409 3.08085 39.9249 3.25929 40.4153 3.41835C40.5911 3.47488 40.7828 3.48537 40.9673 3.51686L40.9481 3.53866Z" fill="black"/>
<path fill-rule="evenodd" clip-rule="evenodd" d="M54.999 25.6785C54.9583 25.8933 54.9176 26.1081 54.8776 26.3228C55.0997 26.1299 54.9223 25.8941 54.9982 25.6817C54.9974 25.6801 54.999 25.6785 54.999 25.6785Z" fill="black"/>
<path fill-rule="evenodd" clip-rule="evenodd" d="M40.9673 3.51764C40.984 3.55882 41.0008 3.60081 41.0176 3.6428C41.0128 3.62342 41.0128 3.60081 41.0024 3.58466C40.9888 3.5669 40.9657 3.55559 40.9473 3.53944C40.9481 3.53863 40.9673 3.51764 40.9673 3.51764Z" fill="black"/>
</svg>
