<svg width="55" height="55" viewBox="0 0 55 55" fill="none" xmlns="http://www.w3.org/2000/svg">
<path fill-rule="evenodd" clip-rule="evenodd" d="M44.8406 6.67958C45.24 6.80554 45.5068 7.04615 45.8358 7.31907C47.7201 8.88307 49.2841 10.6998 50.646 12.6942C52.281 15.0882 53.4927 17.6526 54.2563 20.4035C54.8027 22.368 54.9936 24.3826 54.9992 26.4108C55 26.771 54.9417 27.1343 54.8802 27.492C54.714 28.4642 54.5383 29.4347 54.3514 30.4028C54.2819 30.7645 54.2555 31.1174 54.3075 31.4832C54.3841 32.0225 54.4297 32.5651 54.4872 33.1069C54.5679 33.8635 54.4648 34.6112 54.329 35.3516C54.1509 36.3205 53.9424 37.2854 53.7164 38.2454C53.6157 38.6734 53.4736 39.0989 53.2906 39.501C52.8258 40.5224 52.3585 41.5454 51.8321 42.5394C51.4287 43.3008 50.9343 44.0202 50.479 44.7574C49.8288 45.8111 49.074 46.7856 48.1506 47.644C47.4485 48.2956 46.8007 49.0004 46.0882 49.6424C44.4971 51.0764 42.7534 52.3166 40.7877 53.2572C38.9074 54.1567 36.8922 54.5879 34.8098 54.772C32.9567 54.9359 31.0988 54.8729 29.2425 54.8527C28.9861 54.8495 28.7097 54.7114 28.4805 54.9763C28.4333 55.0304 28.2209 54.9819 28.0963 54.9448C27.4365 54.751 26.7623 54.7009 26.0754 54.6993C25.7551 54.6985 25.4356 54.6016 25.1161 54.5467C24.7135 54.4773 24.3133 54.3965 23.91 54.3344C22.4986 54.1147 21.1606 53.7054 19.8842 53.0764C19.1877 52.7324 18.4201 52.5144 17.6749 52.2641C15.6987 51.6004 13.9103 50.6202 12.2649 49.3969C10.6067 48.1639 9.0459 46.8317 7.62651 45.35C6.68797 44.3706 5.83729 43.3274 5.07049 42.2228C4.25975 41.0545 3.50732 39.853 2.84355 38.5999C2.1055 37.2046 1.48008 35.7739 1.05913 34.2631C0.857045 33.5381 0.59665 32.8243 0.434503 32.092C0.106213 30.6055 0.149346 29.102 0.324274 27.601C0.561505 25.5598 1.02159 23.5638 1.69494 21.6115C2.25727 19.9788 2.97135 18.4092 3.88992 16.9324C4.43388 16.0579 4.96984 15.1924 5.23663 14.1984C5.27577 14.0531 5.37641 13.9223 5.4475 13.785C5.43712 13.7446 5.42673 13.7051 5.41715 13.6655C5.42593 13.7075 5.43392 13.7487 5.44191 13.7898C5.34606 13.8133 5.20707 13.806 5.16155 13.8649C4.98342 14.0926 4.82766 14.3373 4.6751 14.5819C3.27967 16.821 2.19097 19.1851 1.44094 21.6898C1.06073 22.9583 0.666142 24.2227 0.285934 25.4904C0.239606 25.6454 0.162925 25.706 0.00317383 25.6809C0.145353 25.0511 0.284336 24.4213 0.430509 23.7923C1.25163 20.2614 2.40743 16.8444 4.25496 13.6631C5.00739 12.368 5.81972 11.1092 6.80299 9.95857C7.14566 9.55808 7.53066 9.18747 7.91646 8.82251C8.08739 8.66021 8.29028 8.4955 8.51233 8.42202C8.94925 8.27668 9.2416 7.97712 9.54912 7.68483C10.4972 6.78293 11.5316 5.98115 12.6619 5.29402C13.1891 4.97347 13.7306 4.68683 14.3904 4.64727C14.6132 4.63435 14.8361 4.4769 15.0398 4.35578C16.7827 3.31661 18.627 2.49061 20.6119 1.96174C20.9793 1.86323 21.3507 1.78087 21.723 1.69932C22.7054 1.48374 23.6927 1.28672 24.6712 1.05499C26.1944 0.694067 27.732 0.549536 29.2968 0.697297C29.4326 0.710216 29.5692 0.727979 29.7049 0.727979C31.1906 0.727172 32.6324 1.01139 34.0702 1.3279C34.1764 1.35132 34.2842 1.36989 34.3913 1.38846C36.1517 1.70498 37.7884 2.30732 39.3276 3.19065C40.5201 3.87536 41.7023 4.56733 42.7902 5.39737C43.0881 5.62426 43.4052 5.80028 43.7766 5.9214C44.1824 6.05301 44.5275 6.2581 44.7679 6.59803C44.6329 6.64244 44.4939 6.66747 44.351 6.67312C47.8918 10.1378 49.4007 14.6522 51.6196 18.8775C50.7498 16.5529 50.2522 13.9126 48.9135 11.7793C47.7393 9.90689 45.6601 8.66021 44.7096 6.64405C44.7519 6.65374 44.7975 6.66666 44.8406 6.67958ZM37.6901 4.26212C37.7101 4.10225 37.6358 4.02635 37.4665 4.03442C37.3978 3.98921 37.3291 3.94399 37.2612 3.89958C37.2484 3.93107 37.2356 3.96337 37.2228 3.99486C37.3107 4.00213 37.3978 4.00858 37.4856 4.01585C37.5559 4.10144 37.6262 4.18622 37.6965 4.27019C37.7388 4.26212 37.7812 4.25404 37.8235 4.24516C37.7788 4.25001 37.7341 4.25647 37.6901 4.26212ZM7.10332 39.6843C6.9875 39.6277 6.87168 39.572 6.72072 39.4977C6.78781 39.7868 6.95555 39.7093 7.09853 39.6923C7.01386 39.8562 7.02744 40.0185 7.10732 40.18C7.21675 40.4562 7.34615 40.7186 7.64967 40.9221C7.78147 40.6395 7.58817 40.507 7.48433 40.3569C7.39647 40.2301 7.28384 40.1162 7.09693 40.1921C7.09933 40.0226 7.10173 39.853 7.10332 39.6843ZM41.4658 50.3214C41.489 50.3133 41.513 50.2964 41.5345 50.2996C41.5497 50.3012 41.5617 50.3295 41.5745 50.3456C41.5409 50.3311 41.5074 50.3158 41.4738 50.3012C41.3444 50.4385 41.2158 50.5757 41.0872 50.7138C40.9818 50.7259 40.8636 50.713 40.7725 50.7534C40.2581 50.9859 39.7501 51.2298 39.2397 51.4704C38.9729 51.5963 38.7069 51.7223 38.4402 51.8499C38.2708 51.9306 38.2333 52.0711 38.2469 52.2294C38.2045 52.1979 38.1662 52.1551 38.1175 52.1397C38.0919 52.1325 38.0504 52.1745 38.016 52.1938C38.0424 52.1955 38.0703 52.1938 38.0967 52.1987C38.147 52.2068 38.1973 52.2189 38.2469 52.2294C38.3778 52.1494 38.5025 52.0574 38.6414 51.992C39.3164 51.6739 39.9993 51.3711 40.6687 51.0432C40.8236 50.9674 40.9371 50.8147 41.0705 50.6969C41.3995 50.6516 41.4035 50.6476 41.4658 50.3214ZM52.8298 19.3595C52.8753 19.4766 52.9208 19.5945 52.9759 19.735C53.0806 19.5275 52.9855 19.4362 52.8306 19.3668C52.8393 19.2796 52.8481 19.1916 52.8569 19.1044C52.8385 19.1036 52.8202 19.1028 52.8018 19.1028C52.8106 19.1884 52.8202 19.2739 52.8298 19.3595ZM53.1397 20.8C53.1796 20.8589 53.2172 20.9195 53.2611 20.9752C53.2739 20.9922 53.3034 20.997 53.325 21.0075C53.3226 20.9825 53.3298 20.9469 53.3154 20.9332C53.2619 20.8856 53.2012 20.8452 53.1429 20.8016C53.1565 20.6433 53.1692 20.4843 53.1828 20.326C53.1684 20.3252 53.1541 20.3244 53.1405 20.3236C53.1397 20.4819 53.1397 20.6409 53.1397 20.8ZM25.0913 4.72074C24.9284 4.64484 24.7614 4.51727 24.5929 4.78695C24.7806 4.75788 24.9316 4.73447 25.0817 4.71105C25.3469 4.66907 25.6121 4.62708 25.8773 4.58509C25.6568 4.52454 25.4444 4.52696 25.2375 4.55925C25.1824 4.56733 25.1424 4.66664 25.0913 4.72074ZM37.5479 49.891C37.5695 49.8846 37.5919 49.8725 37.6126 49.8733C37.6294 49.8741 37.6454 49.891 37.6622 49.9007C37.627 49.8918 37.5911 49.883 37.5567 49.8741C37.0998 50.1074 36.5239 50.1212 36.1301 50.5596C36.7963 50.4514 37.0543 50.3271 37.5479 49.891ZM52.6021 37.0593C52.6093 37.0351 52.6197 37.0117 52.6229 36.9866C52.6245 36.9729 52.6141 36.9576 52.6093 36.9422C52.6133 36.9874 52.6165 37.0326 52.6205 37.0779C52.551 37.111 52.444 37.1263 52.4192 37.178C52.15 37.7367 51.8928 38.3003 51.6396 38.8655C51.6252 38.897 51.6724 38.9527 51.6915 38.9971C52.1125 38.4691 52.3697 37.9257 52.6021 37.0593ZM7.62092 11.7785C7.59456 11.8157 7.5666 11.8528 7.54424 11.8924C7.54184 11.8972 7.57139 11.9174 7.58577 11.9303C7.58977 11.873 7.59296 11.8165 7.59696 11.7591C7.74473 11.6566 7.92445 11.5775 8.03467 11.4467C8.7272 10.6215 9.40694 9.78658 10.0827 8.95008C10.133 8.88791 10.2768 8.81605 10.1074 8.66344C9.16731 9.62591 8.28069 10.6182 7.62092 11.7785ZM1.9769 24.0467C1.9769 23.9724 1.9769 23.8997 1.9769 23.8263C1.97131 23.8263 1.96652 23.8271 1.96093 23.8279C1.96492 23.9022 1.96891 23.9781 1.97371 24.0523C1.90821 24.1298 1.81396 24.1977 1.78201 24.2865C1.66938 24.603 1.55835 24.9211 1.48247 25.2473C1.274 26.1492 1.0152 27.0511 1.33151 27.9595C1.54477 26.6676 1.76044 25.358 1.9769 24.0467ZM15.7818 5.37153C15.8337 5.36346 15.8857 5.35539 15.9376 5.3465C15.8896 5.35861 15.8417 5.37073 15.7938 5.38284C15.0206 5.69612 14.237 5.98841 13.479 6.33077C12.8807 6.60126 12.6587 6.85398 12.3663 7.41596C12.5277 7.33441 12.6435 7.28031 12.7553 7.21975C13.4654 6.84106 14.1763 6.46319 14.8832 6.07965C15.142 5.93916 15.3976 5.79221 15.6388 5.62668C15.7123 5.57501 15.7331 5.45551 15.7818 5.37153ZM3.44661 25.2748C3.44342 25.2546 3.43943 25.2344 3.43543 25.2142C3.43703 25.2376 3.43863 25.2611 3.44022 25.2837C3.36834 25.387 3.25332 25.4823 3.23255 25.5945C3.15187 26.0273 3.05442 26.4649 3.04883 26.901C3.03286 28.2219 3.05522 29.5437 3.0688 30.8647C3.0712 31.0447 3.10555 31.2256 3.12791 31.4056C3.29006 32.7064 3.78369 33.9135 4.2941 35.1158C4.30767 35.1465 4.37717 35.157 4.48739 35.207C4.40912 34.9212 4.34122 34.6782 4.27652 34.4327C4.12875 33.8764 4.01852 33.3088 4.09281 32.7387C4.17588 32.1008 4.05047 31.4993 3.86596 30.9002C3.29964 29.0552 3.23974 27.1755 3.44661 25.2748ZM49.435 39.5745C49.2202 39.7246 49.1531 39.7553 49.1076 39.8046C48.2721 40.6911 47.3974 41.5397 46.494 42.3641C45.9069 42.9003 45.3638 43.4816 44.8238 44.0622C44.3917 44.5273 44.0099 45.0303 43.5147 45.4453C42.9643 45.9072 42.4507 46.4094 41.9259 46.8979C41.8365 46.9802 41.7686 47.0836 41.6735 47.1966C42.0521 47.2483 42.3676 47.2919 42.7183 47.3412C43.3653 47.128 43.7743 46.5967 44.2088 46.1026C45.3438 44.8107 46.4772 43.5172 47.5883 42.2067C48.066 41.6431 48.4925 41.0391 48.927 40.4441C49.0892 40.222 49.2074 39.9685 49.435 39.5745ZM9.14814 42.6629C9.22642 42.8486 9.2384 42.9229 9.28153 42.9721C10.3111 44.1534 11.4286 45.2515 12.6962 46.2059C12.8448 46.3173 13.0021 46.4554 13.1763 46.4917C13.4111 46.541 13.5669 46.6589 13.7162 46.8131C14.13 47.2386 14.6444 47.5325 15.1732 47.8054C15.2307 47.8353 15.3121 47.8248 15.5094 47.8466C14.9168 47.3355 14.3688 46.9568 13.8528 46.5418C13.3328 46.1236 12.8192 45.698 12.3056 45.2733C11.7912 44.8478 11.2768 44.4215 10.7688 43.9887C10.2704 43.5656 9.82229 43.086 9.14814 42.6629ZM9.12338 16.6465C9.34464 16.3866 9.5587 16.1217 9.78715 15.8682C10.3015 15.2973 10.8191 14.7289 11.3415 14.1645C11.5844 13.9021 11.7729 13.6316 11.6307 13.2198C11.1634 13.3223 10.8902 13.6623 10.6226 13.9618C9.92134 14.745 9.25517 15.5597 9.12338 16.6465ZM12.5484 10.988C13.118 10.9202 13.372 10.4971 13.7322 10.1935C14.098 9.88428 14.4495 9.56131 14.8233 9.26175C15.1963 8.96219 15.5861 8.68121 15.9751 8.39941C16.3537 8.12488 16.801 7.93675 17.1772 7.58794C17.0582 7.56291 17.0055 7.53546 16.9616 7.54434C16.5015 7.64285 16.1013 7.85278 15.7483 8.14669C15.0733 8.70624 14.384 9.25126 13.725 9.82696C13.3097 10.1903 12.939 10.5997 12.5484 10.988ZM35.206 49.1329C35.2244 49.1684 35.2427 49.2039 35.2611 49.2402C35.3378 49.2281 35.4153 49.2201 35.4895 49.2023C36.8674 48.8769 38.139 48.2891 39.4338 47.7594C39.58 47.6997 39.7158 47.6028 39.8332 47.5002C39.9187 47.4251 40.0425 47.321 39.8699 47.1805C38.3179 47.8305 36.762 48.4813 35.206 49.1329ZM39.7956 7.80595C40.7526 8.64972 41.7414 9.13256 42.9156 9.35945C42.5394 8.67475 41.1224 7.95775 39.7956 7.80595ZM52.5726 25.4678C52.6237 25.4718 52.6748 25.4758 52.7259 25.4791C52.7395 25.3281 52.7699 25.1763 52.7643 25.0261C52.7235 23.7689 52.3936 22.5796 51.8066 21.4548C51.7922 21.4282 51.7235 21.4274 51.6388 21.4023C51.6987 21.8553 51.7706 22.28 51.9463 22.6894C52.2043 23.2917 52.3425 23.9231 52.4192 24.5683C52.4551 24.8695 52.5206 25.1674 52.5726 25.4678ZM38.818 49.2943C39.4801 49.1329 39.4801 49.1329 39.9642 48.7098C39.4777 48.7929 39.1439 49.0214 38.818 49.2943ZM22.5241 10.7571C22.1775 10.636 21.9786 10.8694 21.6559 10.9776C22.1359 11.1358 22.1407 11.1342 22.5241 10.7571ZM11.526 31.2498C11.4038 31.513 11.4302 31.7294 11.784 32.0225C11.6626 31.6576 11.5947 31.4533 11.526 31.2498ZM18.1206 48.6395C17.9568 48.39 17.7739 48.2996 17.4552 48.2342C17.6094 48.5854 17.8242 48.6218 18.1206 48.6395ZM36.8834 36.1251C36.9329 36.2026 36.9505 36.2688 36.9848 36.2777C37.151 36.3205 37.2149 36.2058 37.2524 36.0847C37.262 36.0532 37.2157 36.0056 37.1957 35.9652C37.0919 36.0177 36.9888 36.0702 36.8834 36.1251ZM26.9708 4.40261C26.9708 4.41311 26.9708 4.42361 26.9708 4.4341C27.0627 4.43895 27.1537 4.44379 27.2456 4.44864C27.2448 4.42684 27.244 4.40504 27.2432 4.38323C27.1529 4.3905 27.0619 4.39615 26.9708 4.40261ZM11.7569 27.3572C11.7808 27.3943 11.804 27.4306 11.828 27.4678C11.8455 27.4242 11.8775 27.3798 11.8759 27.3362C11.8743 27.299 11.8344 27.2635 11.8112 27.228C11.7928 27.2708 11.7753 27.3144 11.7569 27.3572ZM39.2413 4.75304L39.294 4.73366L39.2421 4.71105L39.2413 4.75304Z" fill="black"/>
<path fill-rule="evenodd" clip-rule="evenodd" d="M14.0509 3.53866C16.0518 2.51645 18.1677 1.75988 20.3116 1.05822C21.7893 0.574571 23.2901 0.207188 24.8461 0.0586203C25.3341 0.0125965 25.827 -0.00678191 26.3174 0.00209987C26.6377 0.00775191 26.9564 0.0868805 27.454 0.15955C27.0371 0.344452 26.7631 0.393706 26.4931 0.415506C22.8684 0.713449 19.4345 1.73001 16.0446 2.91129C15.5582 3.08085 15.0741 3.25929 14.5837 3.41835C14.408 3.47488 14.2163 3.48537 14.0317 3.51686L14.0509 3.53866Z" fill="black"/>
<path fill-rule="evenodd" clip-rule="evenodd" d="M0 25.6785C0.0407366 25.8933 0.0814732 26.1081 0.121411 26.3228C-0.100643 26.1299 0.0766807 25.8941 0.000798757 25.6817C0.00159751 25.6801 0 25.6785 0 25.6785Z" fill="black"/>
<path fill-rule="evenodd" clip-rule="evenodd" d="M14.0318 3.51764C14.015 3.55882 13.9982 3.60081 13.9814 3.6428C13.9862 3.62342 13.9862 3.60081 13.9966 3.58466C14.0102 3.5669 14.0334 3.55559 14.0517 3.53944C14.0509 3.53863 14.0318 3.51764 14.0318 3.51764Z" fill="black"/>
</svg>
