<svg width="186" height="186" viewBox="0 0 186 186" fill="none" xmlns="http://www.w3.org/2000/svg">
<g clip-path="url(#clip0)">
<path fill-rule="evenodd" clip-rule="evenodd" d="M177.22 60.0989C177.374 60.2796 177.589 60.4377 177.669 60.6467C178.7 63.2925 179.728 65.9412 180.719 68.6012C180.916 69.1264 181.093 69.7194 181.044 70.2616C180.919 71.6819 181.393 72.9639 181.733 74.2939C183.098 79.6449 184.466 85.0016 185.234 90.474C185.551 92.7217 185.68 95.0005 185.823 97.268C186.294 104.844 185.828 112.35 184.312 119.807C182.918 126.66 181.193 133.426 178.874 140.023C178.066 142.321 177.309 144.614 176.757 146.983C176.629 147.531 176.44 148.087 176.163 148.57C174.018 152.311 171.982 156.138 168.929 159.269C166.77 161.483 164.673 163.767 162.114 165.575C160.446 166.752 158.901 168.096 157.233 169.277C153.135 172.174 148.628 174.286 143.929 176.068C137.546 178.485 130.951 180.125 124.311 181.628C123.511 181.808 122.7 181.941 121.886 182.04C117.713 182.548 113.683 183.681 109.622 184.686C106.254 185.519 102.853 185.968 99.3827 185.962C95.6897 185.954 92.0025 186.137 88.3067 185.762C85.2707 185.451 82.2832 184.917 79.3442 184.175C73.3807 182.664 67.3572 181.297 61.6764 178.889C58.1348 177.384 54.6389 175.746 51.2344 173.956C47.5415 172.013 43.9171 169.929 40.5012 167.512C35.2003 163.765 30.3306 159.563 26.1036 154.647C25.1468 153.537 24.0672 152.529 23.019 151.501C21.6766 150.185 20.2828 148.92 18.9576 147.593C17.5724 146.209 16.3528 144.693 15.496 142.869C16.1043 142.595 16.1957 143.137 16.4414 143.363C16.7413 143.637 16.9983 143.959 17.2782 144.255C17.5581 144.552 17.8351 144.851 18.1293 145.136C18.4149 145.416 18.7205 145.676 19.0204 145.95C19.5745 145.506 19.1518 145.187 18.9833 144.91C17.004 141.632 15.0504 138.34 13.5367 134.815C13.2511 134.149 13.0426 133.449 12.7684 132.78C12.0315 130.978 11.2804 129.182 10.5235 127.386C10.4635 127.242 10.3579 127.064 10.2265 127.008C8.9755 126.452 8.9041 125.254 8.60135 124.17C7.66741 120.863 7.37037 117.458 7.03621 114.069C6.89055 112.578 6.57923 111.206 5.86806 109.901C5.56246 109.34 5.31969 108.747 4.99695 108.058C5.93089 107.834 5.89377 108.975 6.55067 108.916C6.63064 108.795 6.78487 108.67 6.78201 108.552C6.72204 106.931 6.63921 105.31 6.55924 103.686C6.39644 100.363 6.26506 97.0393 6.06513 93.7185C5.8395 89.9601 6.25649 86.2582 6.92768 82.5732C7.06477 81.8079 7.35324 81.0681 7.56744 80.3339C8.33288 80.4666 8.23577 80.893 8.16437 81.2912C7.35038 85.7753 6.92482 90.299 6.8677 94.8537C6.84485 96.6355 6.9134 98.4173 7.20757 100.21C7.40179 98.4229 7.596 96.6355 7.79593 94.848C8.27861 90.4882 8.72702 86.1283 9.25826 81.774C10.0094 75.6126 11.586 69.6545 14.0108 63.9251C14.4849 62.804 15.0619 61.7197 15.6616 60.658C16.1843 59.7346 16.8755 58.9637 17.7695 58.3199C18.6149 57.71 19.3574 56.9221 20.0229 56.1145C21.2682 54.6095 22.4306 53.0367 23.6159 51.4836C24.0415 50.9245 24.6641 50.4501 24.5299 49.394C24.1871 49.6425 23.9358 49.7752 23.7473 49.9672C21.4681 52.3025 19.1747 54.6264 16.9383 57.0012C15.993 58.0065 15.1704 59.1303 14.2821 60.2146C13.7595 59.7205 14.2365 59.4353 14.4135 59.1783C15.5645 57.4982 16.6556 55.7672 17.9408 54.1887C20.7369 50.7551 22.999 46.9882 25.1354 43.145C27.366 39.1297 30.4763 35.936 34.3749 33.5414C37.7194 31.4857 41.2209 29.6814 44.6168 27.7047C48.8039 25.265 53.2994 23.4663 57.675 21.4134C58.3918 21.0774 59.2744 20.9757 59.8256 20.0523C58.6717 19.8547 57.7549 20.3884 56.8153 20.699C55.73 21.0576 54.6675 21.4981 53.605 21.9273C52.6197 22.3255 51.6457 22.7519 50.6575 23.1698C50.2462 22.605 50.7946 22.4215 51.0488 22.2069C52.5597 20.939 54.2476 19.945 56.0441 19.1149C60.2255 17.1862 64.5725 15.6925 69.0623 14.6872C72.6609 13.8796 76.3025 13.2189 79.9469 12.6456C85.0793 11.8352 90.2717 12.0159 95.4413 12.0555C101.465 12.1006 107.391 13.0805 113.249 14.3342C124.511 16.7457 135.484 20.0947 146.003 24.7934C148.616 25.9596 151.144 27.3179 153.703 28.597C153.917 28.7043 154.091 28.8935 154.28 29.0488C158.964 32.9061 163.379 37.0203 166.947 41.9478C166.995 42.0155 167.052 42.0748 167.095 42.1426C170.6 47.5416 173.99 53.0056 176.84 58.7774C177.052 59.2066 177.132 59.6979 177.269 60.1582C177 59.8786 176.66 59.6442 176.489 59.3223C176.038 58.4724 175.655 57.5886 175.255 56.7104C174.961 56.0637 174.667 55.4284 173.739 54.9709C174.604 57.2384 175.684 59.1557 176.823 61.042C176.875 61.1295 177.114 61.1098 177.257 61.1493C177.129 61.635 176.96 62.1263 177.566 62.4256C177.617 62.5245 177.669 62.6261 177.72 62.7278C177.646 62.6487 177.571 62.5697 177.497 62.4906C177.414 62.0501 177.329 61.6096 177.243 61.1719C177.072 60.8076 176.835 60.4631 177.22 60.0989ZM151.912 87.6926C151.886 87.2295 151.858 86.7693 151.815 85.9899C151.375 86.8342 151.298 87.3058 151.972 87.6418C152.024 87.7971 152.075 87.9524 152.126 88.1077C152.152 88.0569 152.212 87.9722 152.198 87.9552C152.112 87.8592 152.009 87.7802 151.912 87.6926ZM135.075 23.4211C134.667 22.5994 133.947 22.5062 132.705 22.4441C133.693 23.1472 134.29 23.5595 135.13 23.359C135.21 23.4663 135.284 23.5792 135.378 23.6724C135.395 23.6893 135.492 23.6329 135.552 23.6075C135.392 23.5482 135.233 23.486 135.075 23.4211ZM63.3815 18.6038C63.2501 18.6264 63.1187 18.6489 62.9873 18.6715C63.1044 18.6546 63.2187 18.6348 63.3358 18.6151C64.5553 18.3609 65.7777 18.1068 67.0001 17.8555C67.7399 17.5759 68.4853 17.3048 69.2193 17.0112C70.6331 16.4492 72.2297 16.4408 73.5606 15.6275C75.1686 15.3508 76.7795 15.0938 78.3846 14.7945C80.004 14.4952 81.6748 14.1931 83.2542 14.6251C84.4081 14.9413 85.4906 14.9272 86.6302 14.8849C90.1517 14.7606 93.6733 14.6364 97.1949 14.5714C99.3341 14.5319 101.425 14.9413 103.527 15.3056C105.863 15.7122 108.234 15.9184 110.59 16.1894C110.807 16.2149 111.09 16.1273 111.261 15.9918C111.407 15.876 111.435 15.6134 111.51 15.4383C111.31 15.2971 111.196 15.1588 111.056 15.1221C105.078 13.5916 99.0171 12.671 92.8251 12.9675C89.3063 13.137 85.7819 13.3346 82.286 13.7384C79.5327 14.0547 76.8166 14.6929 74.089 15.2153C73.9034 15.2491 73.7663 15.5202 73.6006 15.6755C71.2929 15.5033 69.2508 16.4492 67.1658 17.2004C67.0487 17.2427 67.063 17.6352 66.9973 17.8555C65.6092 17.2342 64.4839 17.8272 63.3815 18.6038ZM56.1698 150.682C55.0873 149.539 55.0873 149.539 53.1766 149.109C54.0791 149.815 54.8503 150.761 56.2212 150.62C56.3012 150.725 56.3726 150.832 56.464 150.925C56.4783 150.942 56.5725 150.88 56.6296 150.854C56.4811 150.795 56.324 150.739 56.1698 150.682ZM153.386 32.1239C153.249 31.9319 153.149 31.6862 152.969 31.5535C150.061 29.4244 146.965 27.6031 143.724 26.0189C143.535 25.9286 143.281 25.9653 143.041 25.9427C142.924 26.7079 143.418 27.0101 143.904 27.2783C146.694 28.8173 149.487 30.3562 152.298 31.8613C152.62 32.0336 153.057 32.0053 153.44 32.0731C153.72 32.5249 153.72 32.5249 154.434 32.5559C153.917 32.3413 153.652 32.234 153.386 32.1239ZM176.937 65.4047C177.589 68.412 178.291 71.4108 178.871 74.4351C179.162 75.9571 179.599 77.4113 180.093 78.8769C180.685 80.6361 181.122 82.4602 181.47 84.2815C181.804 86.0294 181.984 87.8084 182.158 89.5845C182.695 95.0118 182.678 100.428 181.679 105.813C181.604 106.211 181.453 106.637 181.53 107.01C181.938 108.975 181.353 110.842 181.062 112.745C180.816 114.346 180.659 115.961 180.499 117.571C180.473 117.822 180.325 118.237 180.956 118.322C181.11 117.997 181.296 117.656 181.436 117.3C184.769 108.764 185.054 99.911 184.238 90.9428C184.223 90.7818 184.166 90.6265 184.146 90.4656C183.421 84.8237 181.818 79.3654 180.436 73.8675C179.768 71.2104 178.634 68.6661 177.691 66.0768C177.566 65.7323 177.463 65.2579 176.889 65.4414C177.112 65.0941 177.26 64.7637 176.535 64.4588C176.715 64.8851 176.826 65.1449 176.937 65.4047ZM165.496 43.1112C164.016 41.5976 162.694 39.9542 161.026 38.6609C159.549 37.5173 157.979 36.4894 156.431 35.4362C155.422 34.75 154.388 34.0949 153.343 33.4595C153.149 33.341 152.86 33.3777 152.258 33.2901C154.96 36.0631 157.387 38.5536 159.818 41.0498C160.7 40.663 161.489 40.6093 162.166 41.1938C162.834 41.7727 163.448 42.4109 164.093 43.018C164.462 43.3653 164.856 43.6138 165.496 43.1112ZM144.326 52.9745C144.335 52.8701 144.418 52.6272 144.366 52.4183C144.121 51.4497 143.57 50.6534 142.818 50.0039C140.611 48.0838 138.337 46.2483 135.787 44.78C135.615 44.6812 135.372 44.7009 134.821 44.6077C138.169 47.5529 141.256 50.2722 144.326 52.9745ZM13.8223 99.7529C13.6081 99.0526 13.4282 98.3523 13.1711 97.6831C13.0854 97.4628 12.7998 97.3188 12.5342 97.0703C11.8573 100.137 11.8145 100.967 12.2229 103.068C12.7399 101.998 13.2225 100.995 13.8223 99.7529ZM34.095 56.8826C35.3174 55.7418 36.1342 55.0161 36.8968 54.2339C37.0796 54.0447 37.2053 53.6296 37.1224 53.3981C37.011 53.0903 36.674 52.8616 36.3798 52.5453C35.2431 53.7228 34.7062 54.9822 34.095 56.8826ZM109.428 177.578C111.413 177.595 113.369 177.567 115.268 177.081C115.417 177.045 115.603 176.689 115.56 176.534C115.52 176.378 115.188 176.158 115.037 176.192C113.163 176.63 111.296 177.11 109.428 177.578ZM144.164 168.311C144.612 168.469 144.823 168.627 145.003 168.596C146.731 168.297 148.136 167.269 149.659 166.512C149.956 166.365 150.421 166.156 150.256 165.563C148.288 166.45 146.334 167.331 144.164 168.311ZM48.5012 166.583C48.3498 165.241 48.1813 164.479 47.1531 164.228C46.7389 164.736 46.2563 165.069 46.3762 165.84C46.916 166.026 47.4958 166.23 48.5012 166.583ZM150.316 43.1789C150.136 42.8175 150.124 42.0579 149.327 42.1511C149.682 42.521 149.999 42.8514 150.316 43.1789ZM100.996 131.602C101.73 131.39 102.464 131.181 103.413 130.91C102.222 130.286 101.57 131.068 100.996 131.602ZM14.028 121.691C13.9251 122.117 13.8337 122.34 13.828 122.566C13.8137 122.978 13.9166 123.354 14.3907 123.481C14.4449 123.495 14.5735 123.436 14.5735 123.405C14.5935 123.111 14.6563 122.8 14.582 122.529C14.5106 122.272 14.2821 122.061 14.028 121.691ZM158.693 77.4254C158.912 76.4936 158.441 76.0107 157.444 75.2766C157.799 76.3298 157.85 77.0216 158.693 77.4254ZM51.6886 160.105C51.9313 160.418 52.0313 160.653 52.2055 160.746C52.394 160.848 52.6682 160.882 52.8767 160.834C53.1309 160.771 52.9367 160.348 52.5054 160.176C52.3169 160.099 52.0827 160.133 51.6886 160.105ZM119.73 54.0165C119.75 53.6353 119.798 53.4122 119.752 53.2033C119.73 53.0988 119.538 53.0338 119.421 52.9519C119.333 53.1242 119.141 53.3275 119.178 53.4687C119.221 53.6409 119.461 53.7624 119.73 54.0165ZM138.206 101.707C138.297 101.879 138.394 102.06 138.491 102.238C138.597 102.176 138.8 102.083 138.788 102.054C138.728 101.857 138.626 101.67 138.537 101.481C138.443 101.546 138.349 101.608 138.206 101.707ZM125.879 43.8905C125.842 44.0035 125.805 44.1192 125.767 44.235C126.01 44.3451 126.25 44.4553 126.493 44.5654C126.539 44.4863 126.581 44.4073 126.627 44.3282C126.379 44.1814 126.127 44.0345 125.879 43.8905ZM153.226 46.5561C153.292 46.4799 153.357 46.4037 153.423 46.3302C153.286 46.1608 153.157 45.9857 153.009 45.8276C152.963 45.7796 152.869 45.7796 152.795 45.757C152.772 45.8756 152.692 46.0422 152.74 46.1072C152.872 46.2794 153.06 46.4093 153.226 46.5561ZM131.245 28.8879C131.565 29.1364 131.731 29.2719 131.908 29.3905C131.942 29.4159 132.085 29.3595 132.085 29.3425C132.082 29.2154 132.088 28.998 132.034 28.9811C131.845 28.9161 131.634 28.9246 131.245 28.8879ZM52.3283 56.7979C52.4454 56.6991 52.5882 56.6172 52.6711 56.4958C52.6911 56.4647 52.534 56.315 52.4569 56.219C52.3369 56.315 52.197 56.3997 52.1141 56.5212C52.0941 56.5494 52.2512 56.7019 52.3283 56.7979ZM31.1817 114.586C30.8847 113.801 30.7962 113.544 30.6848 113.298C30.6648 113.253 30.4848 113.222 30.4791 113.234C30.422 113.355 30.3135 113.522 30.3563 113.603C30.4591 113.798 30.6419 113.959 31.1817 114.586ZM24.2471 77.9055C24.2814 77.7897 24.3156 77.6739 24.3499 77.5582C24.2785 77.5751 24.1728 77.5695 24.1471 77.6118C24.0872 77.7106 24.07 77.8349 24.0329 77.945C24.1043 77.9337 24.1728 77.9196 24.2471 77.9055ZM103.167 138.825C103.23 138.825 103.296 138.825 103.361 138.825C103.321 138.749 103.29 138.667 103.233 138.605C103.221 138.594 103.121 138.656 103.064 138.684C103.098 138.729 103.133 138.774 103.167 138.825ZM144.852 96.9546C144.886 96.8953 144.923 96.8331 144.96 96.7738C144.869 96.7371 144.78 96.7004 144.689 96.6637C144.689 96.7343 144.669 96.8162 144.695 96.8755C144.715 96.9178 144.798 96.9291 144.852 96.9546ZM178.36 64.3656L178.285 64.1848L178.22 64.3684L178.36 64.3656ZM139.805 119.423C139.848 119.37 139.914 119.322 139.917 119.265C139.922 119.217 139.857 119.161 139.822 119.107C139.785 119.158 139.714 119.206 139.711 119.259C139.708 119.31 139.771 119.367 139.805 119.423Z" fill="#05B4DF"/>
<path fill-rule="evenodd" clip-rule="evenodd" d="M7.78124 77.1246C7.86121 77.3816 7.94689 77.6386 8.00116 77.9012C8.00687 77.9209 7.7641 77.9887 7.63558 78.0339C7.58702 77.7543 7.53561 77.4748 7.48706 77.1952C7.58702 77.1698 7.68413 77.1472 7.78124 77.1246Z" fill="#05B4DF"/>
<path fill-rule="evenodd" clip-rule="evenodd" d="M13.0308 61.3962L13.1643 61.3877L13.0989 61.5684L13.0308 61.3962Z" fill="#05B4DF"/>
<path d="M59.2954 70.5184C59.523 89.629 61.9801 110.337 80.4668 120.542C87.9334 124.664 97.1367 126.403 105.453 124.092C113.923 121.738 120.175 114.96 123.74 107.147C126.162 101.835 127.348 96.0311 127.992 90.2643C128.696 84.0195 129.739 76.5729 128.429 70.3704C128.232 69.4512 125.677 69.7116 125.848 70.5349C127.074 76.3397 126.121 83.1514 125.548 89.0142C124.957 95.1543 123.805 101.328 121.227 106.971C115.7 119.019 104.613 126.119 91.1774 122.999C80.2993 120.472 71.2743 112.574 66.7665 102.45C62.3197 92.428 61.9997 81.1354 61.877 70.3538C61.8611 69.48 59.2795 69.5991 59.2954 70.5184Z" fill="white"/>
<path d="M61.8197 71.4127C69.9413 64.1738 83.5587 62.2956 94.0944 62.677C99.4617 62.8694 104.766 63.8293 109.975 65.0876C112.431 65.6871 114.866 66.3459 117.293 67.0483C119.496 67.6879 124.593 68.3252 125.689 70.467C126.073 71.2239 128.606 70.8501 128.157 69.9623C127.29 68.2653 125.514 67.9378 123.805 67.4149C120.29 66.3499 116.771 65.3023 113.218 64.3839C106.723 62.7056 100.072 61.4494 93.3441 61.348C82.1421 61.1691 68.1846 63.2061 59.5537 70.9056C58.7166 71.6454 61.2128 71.9536 61.8197 71.4127Z" fill="white"/>
<path d="M62.4617 79.7765C71.8834 74.9287 82.4116 72.8506 92.9804 73.293C98.4576 73.5255 103.884 74.3738 109.196 75.707C114.11 76.9426 122.187 78.3293 125.388 82.6876C125.91 83.3904 128.39 82.9154 127.856 82.1829C124.782 78.0043 118.528 76.8003 113.806 75.4217C107.231 73.5096 100.437 72.2884 93.5906 72.0091C82.1479 71.5372 70.7981 73.7323 60.5881 78.985C59.3254 79.6306 61.7431 80.1499 62.4617 79.7765Z" fill="white"/>
<path d="M61.6437 80.239C52.9391 77.9559 42.8986 76.6848 37.1425 85.2035C31.219 93.97 33.8661 106.235 42.4303 112.218C46.6103 115.13 51.3323 115.874 56.3019 116.241C59.8691 116.5 63.4991 116.717 66.6793 118.504C68.6035 119.587 69.8897 122.411 72.0197 123.009C75.8155 124.076 76.4424 119.076 75.8836 116.516C74.8971 112.056 71.0781 109.152 66.9107 107.857C60.8889 105.992 50.3086 108.876 46.9371 102.325C45.4346 99.4038 45.3847 94.6593 46.4341 91.5856C48.5172 85.4713 54.6974 85.9078 59.9654 86.9148C60.883 87.089 62.8451 86.0298 61.1931 85.7179C53.6975 84.284 44.6097 84.464 43.3978 93.9359C42.8946 97.8624 43.269 102.844 46.6116 105.498C49.8845 108.093 54.4616 107.883 58.388 108.023C64.5315 108.234 72.1476 110.11 73.3789 117.203C73.5571 118.219 73.9432 120.917 72.3244 120.712C72.1569 120.687 70.8466 119.074 70.646 118.898C69.0967 117.572 67.1726 116.716 65.2275 116.146C60.0396 114.602 54.4528 115.463 49.3032 113.773C43.7367 111.944 39.2685 107.432 37.4567 101.883C35.5489 95.9959 36.491 89.0097 40.5227 84.219C45.7334 78.022 53.5203 79.632 60.4072 81.4341C61.3388 81.6746 63.273 80.6642 61.6437 80.239Z" fill="white"/>
<path d="M128.612 81.8531C133.671 77.0046 141.223 74.8399 147.789 77.9294C153.394 80.5638 157.24 86.8285 157.011 93.0139C156.744 100.253 151.199 105.902 145.189 109.2C140.075 112.006 134.23 113.07 129.144 115.872C127.36 116.858 125.651 118.104 124.423 119.754C124.003 120.314 123.471 122.022 122.969 122.357C120.744 123.872 120.471 120.244 120.388 118.93C120.164 115.285 120.362 111.433 124.013 109.505C126.195 108.344 129.905 108.931 132.359 108.27C137.246 106.961 141.366 103.775 144.618 99.9799C147.467 96.6581 151.422 91.8429 149.888 87.1738C148.584 83.2127 144.064 81.0944 140.143 81.0185C134.64 80.9168 129.931 84.1937 125.883 87.5664C125.044 88.2695 127.528 88.5934 128.149 88.0734C131.487 85.3027 135.591 82.0591 140.19 82.4157C143.799 82.6922 147.474 85.3218 147.663 89.1872C147.845 92.9514 144.64 96.8279 142.359 99.4833C140.195 102.008 137.657 104.313 134.677 105.84C130.179 108.152 122.964 106.357 119.537 110.615C117.27 113.428 116.292 121.685 119.762 123.975C124.263 126.96 125.648 121.069 127.985 118.815C132.514 114.441 139.937 113.557 145.459 110.842C156.222 105.545 164.556 93.1151 155.941 82.0703C148.591 72.6474 134.492 73.5315 126.346 81.346C125.528 82.1259 128.019 82.4149 128.612 81.8531Z" fill="white"/>
<path d="M91.8666 124.044C92.0306 131.85 92.1876 139.645 92.3516 147.451C92.88 147.212 93.4102 146.964 93.9474 146.726C91.1268 146.499 79.8275 147.624 81.3356 152.561C81.9937 154.715 85.1982 155.518 87.0368 156.076C90.2588 157.064 93.6324 157.566 96.9937 157.584C100.364 157.604 103.741 157.181 106.983 156.251C109.003 155.675 112.606 154.935 113.792 152.904C117.115 147.21 101.619 147.143 99.2694 147.282C99.7125 147.47 100.156 147.658 100.599 147.847C100.491 143.526 100.386 139.197 100.278 134.876C100.203 131.623 100.558 128.12 99.1755 125.096C98.83 124.328 96.2921 124.683 96.7075 125.601C98.1716 128.805 97.6458 132.981 97.732 136.408C97.8306 140.273 97.9274 144.148 98.0172 148.011C98.0295 148.54 99.0168 148.592 99.3465 148.576C101.705 148.439 104.126 148.261 106.476 148.712C107.993 148.97 109.376 149.537 110.634 150.414C110.621 152.751 109.697 154.108 107.867 154.505C105.049 155.901 101.174 156.224 98.0975 156.281C94.52 156.346 90.787 155.827 87.4168 154.583C84.5018 153.51 82.5685 150.884 86.4562 149.221C88.6172 148.301 91.0103 147.809 93.3407 147.993C93.7506 148.03 94.9437 147.914 94.9366 147.269C94.7726 139.463 94.6156 131.668 94.4517 123.862C94.4236 123.004 91.842 123.123 91.8666 124.044Z" fill="white"/>
<path d="M76.5662 56.6176C73.1518 53.2327 69.7444 49.8582 66.3301 46.4733C65.7543 45.9047 63.3002 46.4303 64.1481 47.2709C67.5625 50.6558 70.9699 54.0303 74.3842 57.4153C74.96 57.9838 77.4141 57.4582 76.5662 56.6176Z" fill="white"/>
<path d="M91.4546 51.8733C91.1468 48.1475 90.8494 44.4148 90.5416 40.689C90.4681 39.7855 87.8935 39.9605 87.96 40.8535C88.2661 44.588 88.5739 48.3138 88.8713 52.0466C88.9465 52.9414 91.5298 52.7681 91.4546 51.8733Z" fill="white"/>
<path d="M120.117 60.7646C122.686 56.0806 125.252 51.4052 127.821 46.7212C128.251 45.9274 125.736 45.7606 125.309 46.5369C122.74 51.2209 120.174 55.8962 117.605 60.5803C117.173 61.3827 119.69 61.5409 120.117 60.7646Z" fill="white"/>
</g>
<g clip-path="url(#clip1)">
<path d="M19.8991 10.0315C15.8471 4.82092 22.2012 -1.42672 26.98 3.80947C28.8796 5.68913 29.0149 8.421 29.6781 10.8588C29.8887 11.6299 29.9821 12.4006 30.1675 13.1688C30.5113 14.4506 29.9883 14.6653 28.8565 14.1646C28.8639 14.1667 28.8722 14.1696 28.8796 14.1717C26.65 13.8081 24.5172 12.9842 22.5515 11.8549C22.5581 11.8578 22.5656 11.8615 22.5731 11.8652C21.5914 11.4176 20.6029 10.8677 19.8991 10.0315Z" fill="#05B4DF"/>
</g>
<g clip-path="url(#clip2)">
<path d="M7.34134 26.8613C-2.79921 23.2364 0.477206 9.07205 11.6407 12.0957C15.9017 13.0198 18.4799 16.6621 21.5276 19.4373C22.4927 20.3144 23.2962 21.2935 24.2241 22.1887C25.8197 23.6521 25.2877 24.4056 23.2913 24.7075C23.3033 24.7039 23.3172 24.7006 23.3292 24.697C19.9416 26.1488 16.284 26.8821 12.5892 27.0488C12.6009 27.047 12.6145 27.0456 12.628 27.0441C10.8847 27.2875 9.04251 27.3961 7.34134 26.8613Z" fill="#05B4DF"/>
</g>
<defs>
<clipPath id="clip0">
<rect width="181" height="174" fill="white" transform="translate(4.99951 12.0001)"/>
</clipPath>
<clipPath id="clip1">
<rect width="15" height="9.44444" fill="white" transform="translate(27.6246 17.0597) rotate(-137.951)"/>
</clipPath>
<clipPath id="clip2">
<rect width="24.4724" height="15.4085" fill="white" transform="translate(24.1304 29.7711) rotate(-170.411)"/>
</clipPath>
</defs>
</svg>
